<?xml version="1.0" encoding="UTF-8"?>
<svg width="187px" height="35px" viewBox="0 0 187 35" version="1.1" xmlns="http://www.w3.org/2000/svg" xmlns:xlink="http://www.w3.org/1999/xlink">
    <!-- Generator: Sketch 53.2 (72643) - https://sketchapp.com -->
    <title>Tutorial-5</title>
    <desc>Created with Sketch.</desc>
    <defs>
        <linearGradient x1="0%" y1="50%" x2="97.0195087%" y2="50%" id="linearGradient-1">
            <stop stop-color="#FFAAD2" offset="0%"></stop>
            <stop stop-color="#E24F4A" offset="100%"></stop>
        </linearGradient>
    </defs>
    <g id="Tutorial-5" stroke="none" stroke-width="1" fill="none" fill-rule="evenodd">
        <rect id="Rectangle-Copy-2" fill="url(#linearGradient-1)" x="0" y="0" width="187" height="45"></rect>
        <g id="Icon-/-Spreadsheet-/-white" transform="translate(10.000000, 10.000000)" fill="#FFFFFF">
            <g id="Spreadsheet" transform="translate(-0.000000, -0.018735)">
                <path d="M0.4688,2.27373675e-12 C0.1876,2.27373675e-12 4.54747351e-13,0.199894755 4.54747351e-13,0.500056889 L4.54747351e-13,14.4999431 C4.54747351e-13,14.8001052 0.1876,15 0.4688,15 L14.5312,15 C14.8124,15 15,14.8001052 15,14.4999431 L15,0.500056889 C15,0.199894755 14.8124,2.27373675e-12 14.5312,2.27373675e-12 L0.4688,2.27373675e-12 Z M0.913740821,0.965854872 L2.94026548,0.965854872 L2.94026548,3.12749655 L0.913740821,3.12749655 L0.913740821,0.965854872 Z M3.44695068,0.965854872 L8.51337041,0.965854872 L8.51337041,3.12749655 L3.44695068,3.12749655 L3.44695068,0.965854872 Z M9.01983945,0.965854872 L14.0862592,0.965854872 L14.0862592,3.12749655 L9.01983945,3.12749655 L9.01983945,0.965854872 Z M0.913740821,3.66796461 L2.94026548,3.66796461 L2.94026548,5.82960628 L0.913740821,5.82960628 L0.913740821,3.66796461 Z M3.44695068,3.66796461 L8.51337041,3.66796461 L8.51337041,5.82960628 L3.44695068,5.82960628 L3.44695068,3.66796461 Z M9.01983945,3.66796461 L14.0862592,3.66796461 L14.0862592,5.82960628 L9.01983945,5.82960628 L9.01983945,3.66796461 Z M0.913740821,6.36984377 L2.94026548,6.36984377 L2.94026548,8.53171602 L0.913740821,8.53171602 L0.913740821,6.36984377 Z M3.44695068,6.36984377 L8.51337041,6.36984377 L8.51337041,8.53171602 L3.44695068,8.53171602 L3.44695068,6.36984377 Z M9.01983945,6.36984377 L14.0862592,6.36984377 L14.0862592,8.53171602 L9.01983945,8.53171602 L9.01983945,6.36984377 Z M0.913740821,9.0719535 L2.94026548,9.0719535 L2.94026548,11.2335952 L0.913740821,11.2335952 L0.913740821,9.0719535 Z M3.44695068,9.0719535 L8.51337041,9.0719535 L8.51337041,11.2335952 L3.44695068,11.2335952 L3.44695068,9.0719535 Z M9.01983945,9.0719535 L14.0862592,9.0719535 L14.0862592,11.2335952 L9.01983945,11.2335952 L9.01983945,9.0719535 Z M0.913740821,11.7740632 L2.94026548,11.7740632 L2.94026548,13.9357049 L0.913740821,13.9357049 L0.913740821,11.7740632 Z M3.44695068,11.7740632 L8.51337041,11.7740632 L8.51337041,13.9357049 L3.44695068,13.9357049 L3.44695068,11.7740632 Z M9.01983945,11.7740632 L14.0862592,11.7740632 L14.0862592,13.9357049 L9.01983945,13.9357049 L9.01983945,11.7740632 Z"></path>
            </g>
        </g>
        <g id="Group-2" transform="translate(35.000000, 14.000000)" fill="#FFFFFF">
            <rect id="Rectangle-3-Copy-5" x="3.2" y="0.186666667" width="1.49333333" height="7.46666667"></rect>
            <polygon id="Rectangle-3-Copy-4" transform="translate(3.946667, 3.733333) rotate(-270.000000) translate(-3.946667, -3.733333) " points="3.2 -4.59780362e-14 4.69333333 -4.59780362e-14 4.69333333 7.46666667 3.2 7.46666667"></polygon>
        </g>
        <g id="Icon-/-notification-/-white" transform="translate(55.000000, 10.000000)" fill="#FFFFFF">
            <path d="M13.0714743,5.9040115 C13.0714743,3.5254156 11.5263946,0.25 7.49999994,0.25 C3.47360527,0.25 1.92852569,3.52561908 1.92852569,5.90421497 L1.92852569,8.28952547 L0.67339543,9.57649031 C0.562145248,9.69043503 0.5,9.84324303 0.5,10.0023587 L0.5,11.8193699 C0.5,12.1459436 0.76508514,12.4104581 1.09190802,12.4104581 L5.04088197,12.4104581 C5.04393829,13.7165494 6.19168971,14.8610834 7.5,14.8610834 C8.80831029,14.8610834 9.95606171,13.7165494 9.95911803,12.4104581 L13.908092,12.4104581 C14.2351186,12.4104581 14.5,12.1457401 14.5,11.8193699 L14.5,10.0023587 C14.5,9.84324303 14.4378548,9.69043503 14.3266046,9.57649031 L13.0714743,8.289322 L13.0714743,5.9040115 Z M7.5,13.6787035 C6.80050939,13.6787035 6.22816184,13.0202658 6.22490176,12.4102546 L8.77530199,12.4102546 C8.77183816,13.0202658 8.19949061,13.6787035 7.5,13.6787035 L7.5,13.6787035 Z M1.68401979,11.2280782 L1.68401979,10.234521 L3.11254548,8.76992452 L3.11254548,5.9040115 C3.11254548,3.7490321 4.56004726,1.38238472 7.53326348,1.38238472 C10.5064797,1.38238472 11.8876583,3.7490321 11.8876583,5.9040115 L11.8876583,8.76992452 L13.316184,10.234521 L13.316184,11.2280782 L1.68401979,11.2280782 Z" id="Alert-Icon"></path>
        </g>
    </g>
</svg>