<?xml version="1.0" encoding="UTF-8"?>
<svg width="187px" height="35px" viewBox="0 0 187 35" version="1.1" xmlns="http://www.w3.org/2000/svg" xmlns:xlink="http://www.w3.org/1999/xlink">
    <!-- Generator: Sketch 59.1 (86144) - https://sketch.com -->
    <title>Tutorial-1</title>
    <desc>Created with Sketch.</desc>
    <defs>
        <linearGradient x1="31.1819672%" y1="50%" x2="119.702609%" y2="50%" id="linearGradient-1">
            <stop stop-color="#7DD9E4" offset="0%"></stop>
            <stop stop-color="#0C93C0" offset="100%"></stop>
        </linearGradient>
    </defs>
    <g id="Tutorial-1" stroke="none" stroke-width="1" fill="none" fill-rule="evenodd">
        <rect id="Rectangle-Copy" fill="url(#linearGradient-1)" x="0" y="0" width="187" height="45"></rect>
        <g id="Group-2" transform="translate(35.250000, 14.000000)" fill="#FFFFFF">
            <rect id="Rectangle-3-Copy-5" x="3.2" y="0.186666667" width="1.49333333" height="7.46666667"></rect>
            <polygon id="Rectangle-3-Copy-4" transform="translate(3.946667, 3.733333) rotate(-270.000000) translate(-3.946667, -3.733333) " points="3.2 -4.59780362e-14 4.69333333 -4.59780362e-14 4.69333333 7.46666667 3.2 7.46666667"></polygon>
        </g>
        <g id="Group-2-Copy" transform="translate(78.750000, 14.000000)" fill="#FFFFFF">
            <rect id="Rectangle-3-Copy-5" x="3.2" y="0.186666667" width="1.49333333" height="7.46666667"></rect>
            <polygon id="Rectangle-3-Copy-4" transform="translate(3.946667, 3.733333) rotate(-270.000000) translate(-3.946667, -3.733333) " points="3.2 -4.57411886e-14 4.69333333 -4.57411886e-14 4.69333333 7.46666667 3.2 7.46666667"></polygon>
        </g>
        <g id="Icon/Step/Spreadsheet---white" transform="translate(10.000000, 10.000000)" fill="#FFFFFF">
            <g id="Spreadsheet" transform="translate(-0.000000, -0.018735)">
                <path d="M0.4688,2.27373675e-12 C0.1876,2.27373675e-12 4.54747351e-13,0.199894755 4.54747351e-13,0.500056889 L4.54747351e-13,14.4999431 C4.54747351e-13,14.8001052 0.1876,15 0.4688,15 L14.5312,15 C14.8124,15 15,14.8001052 15,14.4999431 L15,0.500056889 C15,0.199894755 14.8124,2.27373675e-12 14.5312,2.27373675e-12 L0.4688,2.27373675e-12 Z M0.913740821,0.965854872 L2.94026548,0.965854872 L2.94026548,3.12749655 L0.913740821,3.12749655 L0.913740821,0.965854872 Z M3.44695068,0.965854872 L8.51337041,0.965854872 L8.51337041,3.12749655 L3.44695068,3.12749655 L3.44695068,0.965854872 Z M9.01983945,0.965854872 L14.0862592,0.965854872 L14.0862592,3.12749655 L9.01983945,3.12749655 L9.01983945,0.965854872 Z M0.913740821,3.66796461 L2.94026548,3.66796461 L2.94026548,5.82960628 L0.913740821,5.82960628 L0.913740821,3.66796461 Z M3.44695068,3.66796461 L8.51337041,3.66796461 L8.51337041,5.82960628 L3.44695068,5.82960628 L3.44695068,3.66796461 Z M9.01983945,3.66796461 L14.0862592,3.66796461 L14.0862592,5.82960628 L9.01983945,5.82960628 L9.01983945,3.66796461 Z M0.913740821,6.36984377 L2.94026548,6.36984377 L2.94026548,8.53171602 L0.913740821,8.53171602 L0.913740821,6.36984377 Z M3.44695068,6.36984377 L8.51337041,6.36984377 L8.51337041,8.53171602 L3.44695068,8.53171602 L3.44695068,6.36984377 Z M9.01983945,6.36984377 L14.0862592,6.36984377 L14.0862592,8.53171602 L9.01983945,8.53171602 L9.01983945,6.36984377 Z M0.913740821,9.0719535 L2.94026548,9.0719535 L2.94026548,11.2335952 L0.913740821,11.2335952 L0.913740821,9.0719535 Z M3.44695068,9.0719535 L8.51337041,9.0719535 L8.51337041,11.2335952 L3.44695068,11.2335952 L3.44695068,9.0719535 Z M9.01983945,9.0719535 L14.0862592,9.0719535 L14.0862592,11.2335952 L9.01983945,11.2335952 L9.01983945,9.0719535 Z M0.913740821,11.7740632 L2.94026548,11.7740632 L2.94026548,13.9357049 L0.913740821,13.9357049 L0.913740821,11.7740632 Z M3.44695068,11.7740632 L8.51337041,11.7740632 L8.51337041,13.9357049 L3.44695068,13.9357049 L3.44695068,11.7740632 Z M9.01983945,11.7740632 L14.0862592,11.7740632 L14.0862592,13.9357049 L9.01983945,13.9357049 L9.01983945,11.7740632 Z"></path>
            </g>
        </g>
        <g id="Icon-/-clean-/-white" transform="translate(53.000000, 9.000000)" fill="#FFFFFF">
            <g id="noun_1581226_cc" stroke-width="1" fill-rule="evenodd" transform="translate(5.666667, 4.533333)">
                <path d="M8.57846154,5.82358974 C8.42732057,5.82358974 8.30479661,5.70106578 8.30479661,5.54992481 C8.30328854,4.24469202 7.24556439,3.18696787 5.9403316,3.1854598 C5.78919063,3.1854598 5.66666667,3.06293584 5.66666667,2.91179487 C5.66666667,2.7606539 5.78919063,2.63812994 5.9403316,2.63812994 C7.24556439,2.63662187 8.30328854,1.57889772 8.30479661,0.273664932 C8.30479661,0.122523963 8.42732057,0 8.57846154,0 C8.72960251,0 8.85212647,0.122523963 8.85212647,0.273664932 C8.85363454,1.57889772 9.91135869,2.63662187 11.2165915,2.63812994 C11.3677324,2.63812994 11.4902564,2.7606539 11.4902564,2.91179487 C11.4902564,3.06293584 11.3677324,3.1854598 11.2165915,3.1854598 C9.91135869,3.18696787 8.85363454,4.24469202 8.85212647,5.54992481 C8.85212647,5.62250526 8.823294,5.69211301 8.77197187,5.74343514 C8.72064974,5.79475727 8.65104199,5.82358974 8.57846154,5.82358974 L8.57846154,5.82358974 Z M8.58119819,1.50515712 C8.87175594,2.1236824 9.36931066,2.62123712 9.98783594,2.91179487 C9.36828641,3.20183389 8.86970418,3.69944799 8.57846154,4.31843262 C8.28790379,3.69990735 7.79034906,3.20235262 7.17182379,2.91179487 C7.79137332,2.62175585 8.28995554,2.12414175 8.58119819,1.50515712 Z" id="Combined-Shape" fill-rule="nonzero"></path>
                <path d="M3.96666668,12.4666667 C3.76077105,12.4666667 3.59385966,12.2997553 3.59385966,12.0938596 C3.59180526,10.3157731 2.15089361,8.87486142 0.372807019,8.87280702 C0.166911388,8.87280702 0,8.70589563 0,8.5 C0,8.29410437 0.166911388,8.12719298 0.372807019,8.12719298 C2.15089361,8.12513858 3.59180526,6.68422694 3.59385966,4.90614035 C3.59385966,4.70024472 3.76077105,4.53333333 3.96666668,4.53333333 C4.17256231,4.53333333 4.3394737,4.70024472 4.3394737,4.90614035 C4.34152811,6.68422694 5.78243975,8.12513858 7.56052635,8.12719298 C7.76642196,8.127193 7.93333333,8.29410438 7.93333333,8.5 C7.93333333,8.70589562 7.76642196,8.872807 7.56052635,8.87280702 C5.78243975,8.87486142 4.34152811,10.3157731 4.3394737,12.0938596 C4.3394737,12.2997553 4.17256231,12.4666667 3.96666668,12.4666667 Z M3.96666668,6.58004386 C4.36248637,7.42264565 5.04029296,8.10045224 5.88289476,8.49627193 C5.11261629,8.85811709 4.48005728,9.45561891 4.07474864,10.1992465 L3.85858472,10.1992465 C3.45327609,9.45561891 2.82071708,8.85811709 2.0504386,8.49627193 C2.8930404,8.10045224 3.57084699,7.42264565 3.96666668,6.58004386 Z" id="Combined-Shape" fill-rule="nonzero"></path>
            </g>
            <path d="M5.1,10.3961538 C4.83527705,10.3961538 4.62067669,10.1815535 4.62067669,9.91683054 C4.61803531,7.63071921 2.76543464,5.77811853 0.479323308,5.77547715 C0.214600355,5.77547715 0,5.5608768 0,5.29615385 C0,5.03143089 0.214600355,4.81683054 0.479323308,4.81683054 C2.76543464,4.81418916 4.61803531,2.96158848 4.62067669,0.675477154 C4.62067669,0.410754201 4.83527705,0.196153846 5.1,0.196153846 C5.36472295,0.196153846 5.57932331,0.410754201 5.57932331,0.675477154 C5.58196469,2.96158848 7.43456536,4.81418916 9.72067669,4.81683054 C9.98539965,4.81683054 10.2,5.03143089 10.2,5.29615385 C10.2,5.5608768 9.98539965,5.77547715 9.72067669,5.77547715 C7.43456536,5.77811853 5.58196469,7.63071921 5.57932331,9.91683054 C5.57932331,10.1815535 5.36472295,10.3961538 5.1,10.3961538 Z M5.09520677,2.83243204 C5.60411779,3.9157772 6.47558341,4.78724282 7.55892857,5.29615385 C6.47558341,5.80506487 5.60411779,6.67653049 5.09520677,7.75987565 C4.58629574,6.67653049 3.71483012,5.80506487 2.63148496,5.29615385 C3.71483012,4.78724282 4.58629574,3.9157772 5.09520677,2.83243204 Z" id="Combined-Shape" fill-rule="nonzero"></path>
        </g>
        <g id="Icon-/-Chart-/-white" transform="translate(97.000000, 9.000000)" fill="#FFFFFF">
            <g id="Group-2" transform="translate(1.200000, 1.200000)">
                <g id="Group" transform="translate(0.694737, 0.694737)">
                    <polygon id="Rectangle-path" points="7.89473684 1.63102213 10.2631579 1.63102213 10.2631579 10.6686016 7.89473684 10.6686016"></polygon>
                    <rect id="Rectangle-path" x="11.8421053" y="0" width="2.36842105" height="10.9402278"></rect>
                    <polygon id="Rectangle-path" points="0 12.6315789 14.2105263 12.6315789 14.2105263 14.0585652 0 14.0585652"></polygon>
                    <polygon id="Rectangle-path" points="0 3.15789474 2.36842105 3.15789474 2.36842105 10.768488 0 10.768488"></polygon>
                    <rect id="Rectangle-path" x="3.94736842" y="4.4849946" width="2.36842105" height="6.18360701"></rect>
                </g>
            </g>
        </g>
    </g>
</svg>