<?xml version="1.0" standalone="no"?>
<!DOCTYPE svg PUBLIC "-//W3C//DTD SVG 20010904//EN"
 "http://www.w3.org/TR/2001/REC-SVG-20010904/DTD/svg10.dtd">
<svg version="1.0" xmlns="http://www.w3.org/2000/svg"
 width="700.000000pt" height="700.000000pt" viewBox="0 0 700.000000 700.000000"
 preserveAspectRatio="xMidYMid meet">
<metadata>
Created by potrace 1.11, written by Peter Selinger 2001-2013
</metadata>
<g transform="translate(0.000000,700.000000) scale(0.100000,-0.100000)"
fill="#000000" stroke="none">
<path d="M137 6985 c-48 -17 -82 -48 -110 -100 l-22 -40 0 -3345 0 -3345 22
-41 c28 -52 72 -90 121 -104 58 -16 6602 -14 6656 2 22 7 57 29 78 50 74 74
68 -232 68 3438 0 3670 6 3364 -68 3438 -21 21 -56 43 -78 50 -64 19 -6614 17
-6667 -3z m3823 -1030 l0 -495 -1160 0 -1160 0 0 495 0 495 1160 0 1160 0 0
-495z m-2550 -1240 l0 -495 -460 0 -460 0 0 495 0 495 460 0 460 0 0 -495z
m2550 0 l0 -495 -1155 0 -1155 0 0 495 0 495 1155 0 1155 0 0 -495z m2550 0
l0 -495 -1155 0 -1155 0 0 495 0 495 1155 0 1155 0 0 -495z m-2550 -1240 l0
-495 -1155 0 -1155 0 0 495 0 495 1155 0 1155 0 0 -495z m2550 0 l0 -495
-1155 0 -1155 0 0 495 0 495 1155 0 1155 0 0 -495z m0 -1240 l0 -495 -1155 0
-1155 0 0 495 0 495 1155 0 1155 0 0 -495z m-5100 -20 l0 -495 -465 0 -465 0
0 488 c0 269 3 492 7 495 3 4 213 7 465 7 l458 0 0 -495z m0 -1220 l0 -495
-460 0 -460 0 0 495 0 495 460 0 460 0 0 -495z m5100 -5 l0 -490 -1155 0
-1155 0 0 490 0 490 1155 0 1155 0 0 -490z"/>
</g>
</svg>
