<!-- Generated by IcoMoon.io -->
<svg version="1.1" xmlns="http://www.w3.org/2000/svg" width="32" height="32" viewBox="0 0 32 32">
<title>addc</title>
<path fill="#686768" d="M14.933 17.067h-7.467v-2.133h7.467v-7.467h2.133v7.467h7.467v2.133h-7.467v7.467h-2.133v-7.467z"></path>
<path fill="#686768" d="M16 32c-8.837 0-16-7.163-16-16s7.163-16 16-16c8.837 0 16 7.163 16 16s-7.163 16-16 16zM16 29.867c7.658 0 13.867-6.208 13.867-13.867s-6.208-13.867-13.867-13.867c-7.658 0-13.867 6.208-13.867 13.867s6.208 13.867 13.867 13.867z"></path>
</svg>
