<!-- Generated by IcoMoon.io -->
<svg version="1.1" xmlns="http://www.w3.org/2000/svg" width="28" height="32" viewBox="0 0 28 32">
<title>bin</title>
<path fill="#686768" d="M4.909 32h17.916c1.302 0 2.358-1.055 2.358-2.358v-20.274h-22.632v20.274c0 1.303 1.056 2.358 2.358 2.358zM27.2 5.56c0 0.708-0.574 1.282-1.283 1.282h-24.102c-0.708 0-1.283-0.573-1.283-1.282v-1.997c0-0.708 0.574-1.282 1.283-1.282h8.306v-0.999c0-0.708 0.573-1.283 1.282-1.283h4.927c0.708 0 1.282 0.574 1.282 1.283v0.999h8.306c0.708 0 1.283 0.573 1.283 1.282v1.997z"></path>
</svg>
