<!-- Generated by IcoMoon.io -->
<svg version="1.1" xmlns="http://www.w3.org/2000/svg" width="32" height="32" viewBox="0 0 32 32">
<title>calculator</title>
<path fill="#4a4a4a" d="M26.4 0h-20.8c-3.093 0-5.6 2.507-5.6 5.6v20.8c0 3.093 2.507 5.6 5.6 5.6h20.8c3.093 0 5.6-2.507 5.6-5.6v-20.8c0-3.093-2.507-5.6-5.6-5.6zM30.4 26.4c0 2.209-1.791 4-4 4h-20.8c-2.209 0-4-1.791-4-4v-20.8c0-2.209 1.791-4 4-4h20.8c2.209 0 4 1.791 4 4v20.8z"></path>
<path fill="#4a4a4a" d="M12 21.6h-2.8v-2.4c0-0.442-0.358-0.8-0.8-0.8s-0.8 0.358-0.8 0.8v2.4h-2.8c-0.442 0-0.8 0.358-0.8 0.8s0.358 0.8 0.8 0.8h2.8v2.8c0 0.442 0.358 0.8 0.8 0.8s0.8-0.358 0.8-0.8v-2.8h2.8c0.442 0 0.8-0.358 0.8-0.8s-0.358-0.8-0.8-0.8z"></path>
<path fill="#4a4a4a" d="M12 8.4h-7.2c-0.442 0-0.8 0.358-0.8 0.8s0.358 0.8 0.8 0.8h7.2c0.442 0 0.8-0.358 0.8-0.8s-0.358-0.8-0.8-0.8z"></path>
<path fill="#4a4a4a" d="M26.4 24h-7.2c-0.442 0-0.8 0.358-0.8 0.8s0.358 0.8 0.8 0.8h7.2c0.442 0 0.8-0.358 0.8-0.8s-0.358-0.8-0.8-0.8z"></path>
<path fill="#4a4a4a" d="M26.4 20.4h-7.2c-0.442 0-0.8 0.358-0.8 0.8s0.358 0.8 0.8 0.8h7.2c0.442 0 0.8-0.358 0.8-0.8s-0.358-0.8-0.8-0.8z"></path>
<path fill="#4a4a4a" d="M19.8 12.2c0.144 0.157 0.347 0.246 0.56 0.246s0.416-0.089 0.56-0.246l2.040-2.040 2.040 2.040c0.144 0.157 0.347 0.246 0.56 0.246s0.416-0.089 0.56-0.246c0.157-0.144 0.246-0.347 0.246-0.56s-0.089-0.416-0.246-0.56l-2.040-2.040 2.040-2.040c0.25-0.188 0.368-0.504 0.302-0.81s-0.306-0.545-0.611-0.611c-0.306-0.067-0.622 0.051-0.81 0.302l-2.040 2.040-2.040-2.040c-0.319-0.239-0.764-0.207-1.046 0.074s-0.313 0.727-0.074 1.046l2.040 2.040-2.040 2.040c-0.157 0.144-0.246 0.347-0.246 0.56s0.089 0.416 0.246 0.56v0z"></path>
</svg>
