<!-- Generated by IcoMoon.io -->
<svg version="1.1" xmlns="http://www.w3.org/2000/svg" width="32" height="32" viewBox="0 0 32 32">
<title>calendar</title>
<path fill="#686768" d="M30.11 30.248h-5.807v-4.551h5.807v4.551zM16.781 25.697h5.77v4.551h-5.77v-4.551zM9.259 25.697h5.77v4.551h-5.77v-4.551zM1.752 25.697h5.756v4.551h-5.756v-4.551zM1.752 4.173h3.419c0.373 1.429 1.666 2.494 3.213 2.494s2.838-1.065 3.213-2.494h8.618c0.375 1.429 1.666 2.494 3.213 2.494s2.84-1.065 3.214-2.494h3.468v6.508h-28.358v-6.508zM6.802 3.333c0-0.347 0.135-0.652 0.326-0.913 0.287-0.396 0.73-0.669 1.256-0.669s0.969 0.273 1.256 0.669c0.191 0.261 0.326 0.566 0.326 0.913 0 0.315-0.116 0.592-0.275 0.839-0.282 0.436-0.75 0.743-1.307 0.743s-1.025-0.307-1.307-0.743c-0.159-0.247-0.275-0.524-0.275-0.839v0 0zM21.845 3.333c0-0.347 0.135-0.652 0.326-0.913 0.287-0.396 0.73-0.669 1.256-0.669s0.969 0.273 1.256 0.669c0.191 0.261 0.326 0.566 0.326 0.913 0 0.315-0.116 0.592-0.275 0.839-0.282 0.436-0.75 0.743-1.307 0.743s-1.025-0.307-1.307-0.743c-0.158-0.247-0.275-0.524-0.275-0.839v0 0zM24.303 19.064h5.807v4.88h-5.807v-4.88zM16.781 19.064h5.77v4.88h-5.77v-4.88zM9.259 19.064h5.77v4.88h-5.77v-4.88zM1.752 19.064h5.756v4.88h-5.756v-4.88zM7.508 17.312h-5.756v-4.88h5.756v4.88zM15.030 17.312h-5.77v-4.88h5.77v4.88zM22.551 17.312h-5.77v-4.88h5.77v4.88zM30.11 17.312h-5.807v-4.88h5.807v4.88zM30.11 2.421h-3.493c-0.399-1.393-1.669-2.421-3.19-2.421-1.519 0-2.79 1.028-3.19 2.421h-8.664c-0.399-1.393-1.671-2.421-3.19-2.421-1.52 0-2.79 1.028-3.19 2.421h-3.442c-0.967 0-1.752 0.783-1.752 1.752v26.076c0 0.967 0.785 1.752 1.752 1.752h28.358c0.967 0 1.752-0.785 1.752-1.752v-26.076c0-0.969-0.785-1.752-1.752-1.752v0 0z"></path>
</svg>
