<!-- Generated by IcoMoon.io -->
<svg version="1.1" xmlns="http://www.w3.org/2000/svg" width="32" height="32" viewBox="0 0 32 32">
<title>chronos</title>
<path fill="#686768" d="M16 7.010c-0.635 0-1.149 0.643-1.149 1.438v8.401c0 0.795 0.514 1.437 1.149 1.437s1.149-0.642 1.149-1.437v-8.401c0-0.795-0.514-1.438-1.149-1.438z"></path>
<path fill="#686768" d="M16 2.286c-8.234 0-14.933 6.664-14.933 14.856 0 8.193 6.7 14.858 14.933 14.858s14.933-6.666 14.933-14.858c0-8.192-6.699-14.856-14.933-14.856zM16 28.681c-6.469 0-11.733-5.237-11.733-11.675 0-6.436 5.264-11.672 11.733-11.672s11.733 5.236 11.733 11.672c0 6.438-5.264 11.675-11.733 11.675z"></path>
<path fill="#686768" d="M17.149 0c-0.429 0-1.869 0-2.297 0-1.27 0-2.298 0.712-2.298 1.591v0.695h6.892v-0.695c0.001-0.879-1.027-1.591-2.297-1.591z"></path>
<path fill="#686768" d="M25.53 21.068c0.227-0.593-0.189-1.303-0.931-1.587l-7.843-3.011c-0.742-0.285-1.526-0.035-1.753 0.557s0.188 1.303 0.93 1.588l7.843 3.011c0.742 0.285 1.526 0.036 1.754-0.557z"></path>
</svg>
