<!-- Generated by IcoMoon.io -->
<svg version="1.1" xmlns="http://www.w3.org/2000/svg" width="32" height="32" viewBox="0 0 32 32">
<title>database</title>
<path fill="#686768" d="M16 0.356c-3.848 0-7.689 0.31-10.638 0.944-1.474 0.317-2.723 0.706-3.675 1.233-0.887 0.491-1.571 1.183-1.663 2.033-0.012 0.096-0.017 0.128-0.025 0.189v7.444c0 0.019 0 0.037 0 0.056v7.456c0 0.015 0 0.029 0 0.044v7.5c0 0.94 0.735 1.684 1.688 2.211s2.201 0.927 3.675 1.244c2.949 0.635 6.789 0.933 10.638 0.933s7.689-0.299 10.638-0.933c1.474-0.317 2.735-0.717 3.687-1.244s1.675-1.271 1.675-2.211v-22.5c0-0.052-0.008-0.098-0.012-0.144-0.071-0.871-0.76-1.578-1.663-2.078-0.952-0.527-2.213-0.916-3.687-1.233-2.949-0.635-6.789-0.944-10.638-0.944h-0zM16 1.778c3.752 0 7.511 0.308 10.262 0.9 1.376 0.296 2.502 0.673 3.213 1.067 0.666 0.369 0.899 0.681 0.925 0.956 0 0.018 0 0.038 0 0.056 0 0.287-0.215 0.607-0.925 1s-1.837 0.771-3.213 1.067c-2.751 0.592-6.511 0.9-10.262 0.9s-7.511-0.308-10.262-0.9c-1.376-0.296-2.502-0.673-3.213-1.067s-0.925-0.713-0.925-1c0-0.287 0.215-0.618 0.925-1.011s1.837-0.771 3.213-1.067c2.751-0.592 6.511-0.9 10.262-0.9zM1.6 6.911c0.030 0.017 0.057 0.039 0.088 0.056 0.952 0.527 2.201 0.916 3.675 1.233 2.949 0.635 6.789 0.944 10.638 0.944s7.689-0.31 10.638-0.944c1.474-0.317 2.735-0.706 3.687-1.233 0.026-0.014 0.049-0.030 0.075-0.044v5.333c0 0.287-0.215 0.607-0.925 1s-1.837 0.771-3.213 1.067c-2.751 0.592-6.511 0.9-10.262 0.9s-7.511-0.308-10.262-0.9c-1.376-0.296-2.502-0.673-3.213-1.067s-0.925-0.713-0.925-1c0-0.026 0-0.052 0-0.078v-5.267zM1.6 14.411c0.030 0.017 0.057 0.039 0.088 0.056 0.952 0.527 2.201 0.927 3.675 1.244 2.949 0.635 6.789 0.933 10.638 0.933s7.689-0.299 10.638-0.933c1.474-0.317 2.735-0.717 3.687-1.244 0.026-0.014 0.049-0.030 0.075-0.044v5.333c0 0.287-0.215 0.618-0.925 1.011s-1.837 0.759-3.213 1.056c-2.751 0.592-6.511 0.9-10.262 0.9s-7.511-0.308-10.262-0.9c-1.376-0.296-2.502-0.662-3.213-1.056s-0.925-0.724-0.925-1.011c0-0.022 0-0.044 0-0.067v-5.278zM1.6 21.911c0.030 0.017 0.057 0.039 0.088 0.056 0.952 0.527 2.201 0.927 3.675 1.244 2.949 0.635 6.789 0.933 10.638 0.933s7.689-0.299 10.638-0.933c1.474-0.317 2.735-0.717 3.687-1.244 0.026-0.015 0.049-0.029 0.075-0.044v5.333c0 0.287-0.215 0.618-0.925 1.011s-1.837 0.759-3.213 1.056c-2.751 0.592-6.511 0.9-10.262 0.9s-7.511-0.308-10.262-0.9c-1.376-0.296-2.502-0.662-3.213-1.056s-0.925-0.724-0.925-1.011v-5.344z"></path>
</svg>
