<!-- Generated by IcoMoon.io -->
<svg version="1.1" xmlns="http://www.w3.org/2000/svg" width="32" height="32" viewBox="0 0 32 32">
<title>duplicate</title>
<path fill="#686768" d="M20.148 17.896h7.111v2.37h-7.111v7.111h-2.37v-7.111h-7.111v-2.37h7.111v-7.111h2.37v7.111zM5.926 26.074v-18.015c0-1.178 0.955-2.133 2.133-2.133h21.807c1.178 0 2.133 0.955 2.133 2.133v21.807c0 1.178-0.955 2.133-2.133 2.133h-21.807c-1.178 0-2.133-0.955-2.133-2.133v-3.793h-1.185v-2.37h-2.37v-21.333h21.333v2.37h2.37v-2.607c0-1.178-0.955-2.133-2.133-2.133h-21.807c-1.178 0-2.133 0.955-2.133 2.133v21.807c0 1.178 0.955 2.133 2.133 2.133h3.793zM8.296 8.296v21.333h21.333v-21.333h-21.333z"></path>
</svg>
