<!-- Generated by IcoMoon.io -->
<svg version="1.1" xmlns="http://www.w3.org/2000/svg" width="32" height="32" viewBox="0 0 32 32">
<title>help</title>
<path fill="#686768" d="M23.009 3.205c-2.062-1.492-4.514-2.242-7-2.143-1.921-0.064-3.818 0.478-5.455 1.558-2.364 1.623-3.606 4.318-3.727 8.084h5.455c0.008-1.143 0.324-2.259 0.909-3.214 0.689-1.083 1.873-1.68 3.091-1.558 1.455 0 2.455 0.422 3 1.266 0.551 0.822 0.838 1.813 0.818 2.825 0.007 0.874-0.248 1.727-0.727 2.435-0.303 0.45-0.671 0.845-1.091 1.169l-1.364 1.169c-1.070 0.764-1.945 1.802-2.545 3.019-0.43 1.515-0.644 3.091-0.636 4.675h5.091c-0.007-0.789 0.085-1.575 0.273-2.338 0.22-0.884 0.698-1.668 1.364-2.24l1.364-1.071c1.019-0.775 1.936-1.692 2.727-2.727 0.821-1.288 1.235-2.824 1.182-4.383 0.197-2.533-0.833-4.996-2.727-6.526v0z"></path>
<path fill="#686768" d="M13.645 25.12h5.636v5.795h-5.636z"></path>
</svg>
