<!-- Generated by IcoMoon.io -->
<svg version="1.1" xmlns="http://www.w3.org/2000/svg" width="32" height="32" viewBox="0 0 32 32">
<title>intercom</title>
<path d="M28 0h-24c-2.209 0-4 1.791-4 4v24c0 2.209 1.791 4 4 4h24c2.209 0 4-1.791 4-4v-24c0-2.209-1.791-4-4-4zM20.266 5.866c0.025-0.571 0.495-1.022 1.067-1.022s1.042 0.45 1.067 1.022v14.25c-0.025 0.571-0.495 1.022-1.067 1.022s-1.042-0.45-1.067-1.022v-14.25zM14.934 5.326c0-0.589 0.477-1.066 1.066-1.066s1.066 0.477 1.066 1.066v15.468c0 0.381-0.203 0.733-0.533 0.923s-0.736 0.19-1.066 0c-0.33-0.19-0.533-0.542-0.533-0.923v-15.468zM9.6 5.866c0.025-0.571 0.495-1.022 1.067-1.022s1.042 0.45 1.067 1.022v14.25c-0.042 0.558-0.507 0.99-1.067 0.99s-1.025-0.432-1.067-0.99v-14.25zM4.266 8c0.025-0.571 0.495-1.022 1.067-1.022s1.042 0.45 1.067 1.022v9.594c-0.025 0.571-0.495 1.022-1.067 1.022s-1.042-0.45-1.067-1.022v-9.594zM27.36 24.27c-0.164 0.14-4.116 3.456-11.36 3.456s-11.196-3.314-11.36-3.456c-0.448-0.382-0.502-1.056-0.12-1.504s1.056-0.502 1.504-0.12c0.064 0.054 3.592 2.948 9.976 2.948 6.464 0 9.94-2.914 9.972-2.944 0.289-0.248 0.689-0.323 1.048-0.196s0.624 0.435 0.694 0.81c0.070 0.375-0.065 0.758-0.354 1.006v0zM27.734 17.594c-0.025 0.571-0.495 1.022-1.067 1.022s-1.042-0.45-1.067-1.022v-9.594c0-0.589 0.478-1.067 1.067-1.067s1.067 0.478 1.067 1.067v9.594z"></path>
</svg>
