<!-- Generated by IcoMoon.io -->
<svg version="1.1" xmlns="http://www.w3.org/2000/svg" width="37" height="32" viewBox="0 0 37 32">
<title>loc</title>
<path fill="#4a4a4a" d="M18.215 29.243l0.271-0.172c1.699-2.005 4.432-2.8 6.942-2.018 1.378 0.345 2.757 0.714 4.16 0.96 1.999 0.227 4.023 0.017 5.932-0.615l0.591-0.148h0.222c0 0.64 0 1.305 0 1.969 0 0-0.197 0.246-0.345 0.295-2.547 1.077-5.4 1.191-8.025 0.32-0.897-0.329-1.819-0.584-2.757-0.763-1.782-0.426-3.649 0.229-4.775 1.674-0.235 0.347-0.642 0.537-1.058 0.492-0.714 0-1.428 0-2.142 0-0.229-0.002-0.448-0.090-0.615-0.246-1.392-1.836-3.832-2.529-5.982-1.698-0.591 0.197-1.231 0.345-1.822 0.566-2.135 0.701-4.438 0.701-6.572 0-1.797-0.345-1.797-0.345-1.797-2.166v-27.077l1.526 0.468c2.397 0.796 4.987 0.796 7.385 0 1.57-0.589 3.265-0.767 4.923-0.517 1.353 0.245 2.627 0.811 3.717 1.649 0.246 0.172 0.394 0.271 0.689 0 2.357-1.814 5.482-2.288 8.271-1.255 1.369 0.54 2.837 0.784 4.308 0.714 1.6-0.197 3.175-0.591 4.775-0.911h0.295c0 0.714 0 1.403 0 2.092-0.071 0.14-0.195 0.247-0.345 0.295-2.621 1.038-5.513 1.177-8.222 0.394-1.714-0.633-3.547-0.877-5.366-0.714-1.533 0.191-2.948 0.925-3.988 2.068-0.083 0.095-0.15 0.203-0.197 0.32v2.142l0.345-0.271c1.623-1.86 4.168-2.625 6.548-1.969 1.354 0.32 2.683 0.689 4.037 0.96 2.070 0.304 4.183 0.136 6.178-0.492l1.009-0.271c0 0.689 0 1.305 0 1.92-0.059 0.165-0.184 0.299-0.345 0.369-2.641 1.030-5.548 1.16-8.271 0.369-1.527-0.528-3.136-0.778-4.751-0.738-1.709 0.054-3.327 0.779-4.505 2.018-0.143 0.115-0.232 0.284-0.246 0.468 0 0.64 0 1.28 0 1.969 0.090 0.013 0.181 0.013 0.271 0 1.749-2.011 4.533-2.777 7.065-1.945 1.206 0.295 2.462 0.615 3.618 0.862 2.101 0.211 4.222-0.059 6.203-0.788l0.714-0.197h0.246c0 0.665 0 1.305 0 1.969 0 0-0.197 0.222-0.345 0.271-2.629 1.077-5.547 1.224-8.271 0.418-1.62-0.563-3.333-0.814-5.046-0.738-1.625 0.125-3.144 0.854-4.258 2.043-0.105 0.087-0.175 0.21-0.197 0.345v2.092h0.222c1.762-2.090 4.627-2.882 7.212-1.994 1.108 0.295 2.215 0.591 3.323 0.812 2.158 0.354 4.37 0.186 6.449-0.492l0.911-0.222c0 0.665 0 1.28 0 1.895 0 0-0.197 0.32-0.345 0.369-2.596 1.038-5.464 1.177-8.148 0.394-1.585-0.534-3.25-0.792-4.923-0.763-1.657 0.113-3.211 0.842-4.357 2.043-0.128 0.093-0.209 0.237-0.222 0.394 0 0.665 0 1.329 0 2.018h0.222c1.74-2.074 4.57-2.874 7.138-2.018 1.385 0.387 2.79 0.699 4.209 0.935 1.908 0.185 3.833-0.016 5.662-0.591l0.886-0.246c0 0.689 0 1.329 0 1.945 0 0.123-0.197 0.271-0.32 0.32-2.636 1.051-5.547 1.19-8.271 0.394-1.583-0.543-3.251-0.793-4.923-0.738-1.706 0.065-3.321 0.788-4.505 2.018-0.117 0.122-0.194 0.276-0.222 0.443 0 0.64 0 1.305 0 1.994h0.246c1.73-2.056 4.541-2.847 7.089-1.994 1.354 0.345 2.683 0.689 4.062 0.911 1.981 0.234 3.989 0.032 5.883-0.591l0.862-0.222c0 0.665 0 1.28 0 1.871 0 0.148-0.197 0.345-0.369 0.394-2.627 1.055-5.535 1.185-8.246 0.369-1.516-0.503-3.104-0.752-4.702-0.738-1.723 0.052-3.358 0.776-4.554 2.018-0.121 0.103-0.207 0.24-0.246 0.394l-0.025 1.895z"></path>
</svg>
