<!-- Generated by IcoMoon.io -->
<svg version="1.1" xmlns="http://www.w3.org/2000/svg" width="6" height="32" viewBox="0 0 6 32">
<title>more</title>
<path fill="#686768" d="M3.2 6.4c-1.767 0-3.2-1.433-3.2-3.2s1.433-3.2 3.2-3.2c1.767 0 3.2 1.433 3.2 3.2s-1.433 3.2-3.2 3.2z"></path>
<path fill="#686768" d="M3.2 19.2c-1.767 0-3.2-1.433-3.2-3.2s1.433-3.2 3.2-3.2c1.767 0 3.2 1.433 3.2 3.2s-1.433 3.2-3.2 3.2z"></path>
<path fill="#686768" d="M3.2 32c-1.767 0-3.2-1.433-3.2-3.2s1.433-3.2 3.2-3.2c1.767 0 3.2 1.433 3.2 3.2s-1.433 3.2-3.2 3.2z"></path>
</svg>
