<!-- Generated by IcoMoon.io -->
<svg version="1.1" xmlns="http://www.w3.org/2000/svg" width="32" height="32" viewBox="0 0 32 32">
<title>no-notification</title>
<path fill="#686768" d="M26.143 11.808c0-4.757-3.090-11.308-11.143-11.308s-11.143 6.551-11.143 11.308v4.771l-2.51 2.574c-0.222 0.228-0.347 0.534-0.347 0.852v3.634c0 0.653 0.53 1.182 1.184 1.182h7.898c0.006 2.612 2.302 4.901 4.918 4.901s4.912-2.289 4.918-4.901h7.898c0.654 0 1.184-0.529 1.184-1.182v-3.634c0-0.318-0.124-0.624-0.347-0.852l-2.51-2.574v-4.771zM15 27.357c-1.399 0-2.544-1.317-2.55-2.537h5.101c-0.007 1.22-1.152 2.537-2.551 2.537v0zM3.368 22.456v-1.987l2.857-2.929v-5.732c0-4.31 2.895-9.043 8.841-9.043s8.709 4.733 8.709 9.043v5.732l2.857 2.929v1.987h-23.264z"></path>
<path fill="#686768" d="M2.227 0l28.242 28.242-2.121 2.121-28.242-28.242 2.121-2.121z"></path>
</svg>
