<!-- Generated by IcoMoon.io -->
<svg version="1.1" xmlns="http://www.w3.org/2000/svg" width="32" height="32" viewBox="0 0 32 32">
<title>notification-filled</title>
<path fill="#4a4a4a" d="M27.886 12.595c0-5.074-3.296-12.062-11.886-12.062s-11.886 6.988-11.886 12.062v5.089l-2.678 2.746c-0.237 0.243-0.37 0.569-0.37 0.909v3.876c0 0.697 0.566 1.261 1.263 1.261h8.424c0.007 2.786 2.455 5.228 5.246 5.228s5.24-2.442 5.246-5.228h8.424c0.698 0 1.263-0.565 1.263-1.261v-3.876c0-0.339-0.133-0.665-0.37-0.909l-2.678-2.746v-5.089zM16 29.181c-1.492 0-2.713-1.405-2.72-2.706h5.441c-0.007 1.301-1.228 2.706-2.721 2.706v0z"></path>
</svg>
