<!-- Generated by IcoMoon.io -->
<svg version="1.1" xmlns="http://www.w3.org/2000/svg" width="48" height="32" viewBox="0 0 48 32">
<title>number</title>
<path fill="#686768" d="M6.402 22.329h3.955v-13.086l-3.412 3.024-1.551-2.396 5.894-5.211h2.275v17.668h3.878v3.294h-11.039v-3.294zM29.403 25.623h-11.53v-2.905c0.207-0.2 0.465-0.464 0.776-0.794s0.659-0.704 1.047-1.123c0.388-0.419 0.797-0.878 1.228-1.377s0.853-1.018 1.267-1.557c0.586-0.759 1.099-1.447 1.538-2.066s0.801-1.203 1.086-1.752c0.284-0.549 0.495-1.088 0.633-1.617s0.207-1.073 0.207-1.632c0-0.399-0.078-0.788-0.233-1.168s-0.371-0.714-0.646-1.003c-0.276-0.29-0.607-0.519-0.995-0.689s-0.814-0.254-1.28-0.254c-0.621 0-1.185 0.11-1.693 0.329s-1.038 0.589-1.59 1.108l-1.344-2.755c0.724-0.599 1.529-1.103 2.417-1.512s1.909-0.614 3.064-0.614c0.741 0 1.452 0.12 2.133 0.359s1.284 0.594 1.81 1.063c0.526 0.469 0.944 1.053 1.254 1.752s0.465 1.507 0.465 2.426c0 0.639-0.047 1.233-0.142 1.782s-0.241 1.098-0.439 1.647c-0.198 0.549-0.457 1.113-0.776 1.692s-0.702 1.208-1.151 1.886c-0.345 0.519-0.72 1.043-1.125 1.572s-0.806 1.033-1.202 1.512c-0.396 0.479-0.788 0.928-1.176 1.348s-0.737 0.769-1.047 1.048h7.445v3.294zM34.514 22.749c0.569 0 1.090-0.085 1.564-0.254s0.879-0.409 1.215-0.719c0.336-0.309 0.599-0.669 0.788-1.078s0.284-0.854 0.284-1.333c0-0.599-0.108-1.103-0.323-1.512s-0.513-0.734-0.892-0.973c-0.379-0.239-0.836-0.409-1.37-0.509s-1.112-0.15-1.732-0.15h-1.448v-2.126l4.343-6.139h-6.541v-3.294h10.548v2.725l-4.55 6.019h0.595c0.603 0 1.189 0.12 1.758 0.359s1.073 0.599 1.512 1.078c0.439 0.479 0.793 1.078 1.060 1.797s0.401 1.547 0.401 2.486c0 1.138-0.202 2.136-0.607 2.994s-0.939 1.582-1.603 2.171c-0.664 0.589-1.426 1.028-2.288 1.318s-1.749 0.434-2.663 0.434c-0.776 0-1.551-0.080-2.327-0.239s-1.525-0.409-2.249-0.749l0.905-3.234c0.155 0.1 0.366 0.2 0.633 0.299s0.569 0.2 0.905 0.299c0.336 0.1 0.681 0.18 1.034 0.239s0.702 0.090 1.047 0.090z"></path>
</svg>
