<!-- Generated by IcoMoon.io -->
<svg version="1.1" xmlns="http://www.w3.org/2000/svg" width="32" height="32" viewBox="0 0 32 32">
<title>search</title>
<path fill="#686768" d="M24.493 4.398c-5.531-5.531-14.564-5.531-20.095 0s-5.531 14.564 0 20.095c2.689 2.689 6.242 4.161 10.048 4.161 3.298 0 6.394-1.116 8.931-3.146l5.785 5.785c0.304 0.304 0.71 0.457 1.066 0.457s0.761-0.152 1.066-0.457c0.609-0.609 0.609-1.573 0-2.131l-5.785-5.785c2.030-2.537 3.146-5.633 3.146-8.931 0-3.755-1.472-7.358-4.161-10.048zM6.58 22.362c-4.364-4.364-4.364-11.418 0-15.782 2.182-2.182 5.024-3.248 7.916-3.248s5.734 1.066 7.916 3.248c2.131 2.131 3.248 4.922 3.248 7.916s-1.167 5.785-3.248 7.916c-2.081 2.131-4.922 3.248-7.916 3.248-2.994-0.051-5.836-1.167-7.916-3.298z"></path>
</svg>
