<!-- Generated by IcoMoon.io -->
<svg version="1.1" xmlns="http://www.w3.org/2000/svg" width="32" height="32" viewBox="0 0 32 32">
<title>sentiment</title>
<path fill="#686768" d="M16 32c-8.837 0-16-7.163-16-16s7.163-16 16-16c8.837 0 16 7.163 16 16s-7.163 16-16 16zM16 29.867c7.658 0 13.867-6.208 13.867-13.867s-6.208-13.867-13.867-13.867c-7.658 0-13.867 6.208-13.867 13.867s6.208 13.867 13.867 13.867z"></path>
<path fill="#686768" d="M12.8 11.733c0 1.767-1.433 3.2-3.2 3.2s-3.2-1.433-3.2-3.2c0-1.767 1.433-3.2 3.2-3.2s3.2 1.433 3.2 3.2z"></path>
<path fill="#686768" d="M6.4 19.2h19.2v2.133h-19.2v-2.133z"></path>
<path fill="#686768" d="M25.6 11.733c0 1.767-1.433 3.2-3.2 3.2s-3.2-1.433-3.2-3.2c0-1.767 1.433-3.2 3.2-3.2s3.2 1.433 3.2 3.2z"></path>
</svg>
