<!-- Generated by IcoMoon.io -->
<svg version="1.1" xmlns="http://www.w3.org/2000/svg" width="23" height="32" viewBox="0 0 23 32">
<title>share</title>
<path fill="#686768" d="M8.533 10.667v2.133h6.4v-2.133h6.4c1.178 0 2.133 0.955 2.133 2.133v17.067c0 1.178-0.955 2.133-2.133 2.133h-19.2c-1.178 0-2.133-0.955-2.133-2.133v-17.067c0-1.178 0.955-2.133 2.133-2.133h6.4zM3.2 12.8c-0.589 0-1.067 0.478-1.067 1.067v14.933c0 0.589 0.478 1.067 1.067 1.067h17.067c0.589 0 1.067-0.478 1.067-1.067v-14.933c0-0.589-0.478-1.067-1.067-1.067h-17.067z"></path>
<path fill="#686768" d="M11.041 19.231h1.348v-16.411l3.746 4.075 0.932-0.985-5.328-5.911-5.339 5.911 0.951 0.985 3.69-4.075v12.31z"></path>
</svg>
