<!-- Generated by IcoMoon.io -->
<svg version="1.1" xmlns="http://www.w3.org/2000/svg" width="36" height="32" viewBox="0 0 36 32">
<title>twitter</title>
<path fill="#686768" d="M35.556 5.878c-1.306 0.595-2.713 0.997-4.189 1.177 1.507-0.925 2.663-2.39 3.208-4.137-1.411 0.856-2.97 1.479-4.635 1.813-1.327-1.453-3.224-2.361-5.324-2.361-4.026 0-7.292 3.349-7.292 7.48 0 0.586 0.063 1.156 0.188 1.704-6.063-0.312-11.437-3.287-15.037-7.818-0.628 1.109-0.987 2.395-0.987 3.764 0 2.594 1.288 4.884 3.245 6.226-1.194-0.036-2.321-0.377-3.306-0.933v0.092c0 3.625 2.515 6.649 5.854 7.334-0.611 0.175-1.256 0.263-1.922 0.263-0.47 0-0.929-0.045-1.373-0.133 0.929 2.97 3.621 5.134 6.814 5.192-2.496 2.007-5.643 3.204-9.059 3.204-0.589 0-1.171-0.034-1.741-0.103 3.229 2.119 7.064 3.358 11.182 3.358 13.419 0 20.755-11.396 20.755-21.281 0-0.325-0.006-0.651-0.019-0.969 1.425-1.055 2.663-2.371 3.638-3.871z"></path>
</svg>
