<!-- Generated by IcoMoon.io -->
<svg version="1.1" xmlns="http://www.w3.org/2000/svg" width="37" height="32" viewBox="0 0 37 32">
<title>word-cloud</title>
<path fill="#686768" d="M23.385 0h2.462c0.68 0 1.231 0.551 1.231 1.231s-0.551 1.231-1.231 1.231h-2.462c-0.68 0-1.231-0.551-1.231-1.231s0.551-1.231 1.231-1.231z"></path>
<path fill="#686768" d="M8.615 0h9.846c0.68 0 1.231 0.551 1.231 1.231s-0.551 1.231-1.231 1.231h-9.846c-0.68 0-1.231-0.551-1.231-1.231s0.551-1.231 1.231-1.231z"></path>
<path fill="#686768" d="M4.923 4.923h9.846c1.359 0 2.462 1.102 2.462 2.462s-1.102 2.462-2.462 2.462h-9.846c-1.359 0-2.462-1.102-2.462-2.462s1.102-2.462 2.462-2.462z"></path>
<path fill="#686768" d="M13.538 12.308h19.692c2.039 0 3.692 1.653 3.692 3.692s-1.653 3.692-3.692 3.692h-19.692c-2.039 0-3.692-1.653-3.692-3.692s1.653-3.692 3.692-3.692z"></path>
<path fill="#686768" d="M2.462 12.308h2.462c1.359 0 2.462 1.102 2.462 2.462v2.462c0 1.359-1.102 2.462-2.462 2.462h-2.462c-1.359 0-2.462-1.102-2.462-2.462v-2.462c0-1.359 1.102-2.462 2.462-2.462z"></path>
<path fill="#686768" d="M20.923 29.538h9.846c0.68 0 1.231 0.551 1.231 1.231s-0.551 1.231-1.231 1.231h-9.846c-0.68 0-1.231-0.551-1.231-1.231s0.551-1.231 1.231-1.231z"></path>
<path fill="#686768" d="M11.077 29.538h4.923c0.68 0 1.231 0.551 1.231 1.231s-0.551 1.231-1.231 1.231h-4.923c-0.68 0-1.231-0.551-1.231-1.231s0.551-1.231 1.231-1.231z"></path>
<path fill="#686768" d="M7.385 22.154h14.769c1.359 0 2.462 1.102 2.462 2.462s-1.102 2.462-2.462 2.462h-14.769c-1.359 0-2.462-1.102-2.462-2.462s1.102-2.462 2.462-2.462z"></path>
<path fill="#686768" d="M29.538 22.154h4.923c1.359 0 2.462 1.102 2.462 2.462s-1.102 2.462-2.462 2.462h-4.923c-1.359 0-2.462-1.102-2.462-2.462s1.102-2.462 2.462-2.462z"></path>
<path fill="#686768" d="M22.154 4.923h7.385c1.359 0 2.462 1.102 2.462 2.462s-1.102 2.462-2.462 2.462h-7.385c-1.359 0-2.462-1.102-2.462-2.462s1.102-2.462 2.462-2.462z"></path>
</svg>
