<?xml version="1.0" encoding="UTF-8"?>
<svg width="12px" height="12px" viewBox="0 0 12 12" version="1.1" xmlns="http://www.w3.org/2000/svg" xmlns:xlink="http://www.w3.org/1999/xlink">
    <!-- Generator: Sketch 52.5 (67469) - http://www.bohemiancoding.com/sketch -->
    <title>Icon module</title>
    <desc>Created with Sketch.</desc>
    <g id="Icon-and-colors" stroke="none" stroke-width="1" fill="none" fill-rule="evenodd">
        <g id="Artboard" transform="translate(-693.000000, -46.000000)" fill="#4A4A4A">
            <g id="Icon-/-Math-/-gray" transform="translate(693.000000, 46.000000)">
                <g id="noun_Math_1987636">
                    <g id="Group">
                        <path d="M9.9,0 L2.1,0 C0.940202025,0 0,0.940202025 0,2.1 L0,9.9 C0,11.059798 0.940202025,12 2.1,12 L9.9,12 C11.059798,12 12,11.059798 12,9.9 L12,2.1 C12,0.940202025 11.059798,0 9.9,0 Z M11.4,9.9 C11.4,10.7284271 10.7284271,11.4 9.9,11.4 L2.1,11.4 C1.27157288,11.4 0.6,10.7284271 0.6,9.9 L0.6,2.1 C0.6,1.27157288 1.27157288,0.6 2.1,0.6 L9.9,0.6 C10.7284271,0.6 11.4,1.27157288 11.4,2.1 L11.4,9.9 Z" id="Shape" fill-rule="nonzero"></path>
                        <path d="M4.5,8.1 L3.45,8.1 L3.45,7.2 C3.45,7.03431458 3.31568542,6.9 3.15,6.9 C2.98431458,6.9 2.85,7.03431458 2.85,7.2 L2.85,8.1 L1.8,8.1 C1.63431458,8.1 1.5,8.23431458 1.5,8.4 C1.5,8.56568542 1.63431458,8.7 1.8,8.7 L2.85,8.7 L2.85,9.75 C2.85,9.91568542 2.98431458,10.05 3.15,10.05 C3.31568542,10.05 3.45,9.91568542 3.45,9.75 L3.45,8.7 L4.5,8.7 C4.66568542,8.7 4.8,8.56568542 4.8,8.4 C4.8,8.23431458 4.66568542,8.1 4.5,8.1 Z" id="Path"></path>
                        <path d="M4.5,3.15 L1.8,3.15 C1.63431458,3.15 1.5,3.28431458 1.5,3.45 C1.5,3.61568542 1.63431458,3.75 1.8,3.75 L4.5,3.75 C4.66568542,3.75 4.8,3.61568542 4.8,3.45 C4.8,3.28431458 4.66568542,3.15 4.5,3.15 Z" id="Path"></path>
                        <path d="M9.9,9 L7.2,9 C7.03431458,9 6.9,9.13431458 6.9,9.3 C6.9,9.46568542 7.03431458,9.6 7.2,9.6 L9.9,9.6 C10.0656854,9.6 10.2,9.46568542 10.2,9.3 C10.2,9.13431458 10.0656854,9 9.9,9 Z" id="Path"></path>
                        <path d="M9.9,7.65 L7.2,7.65 C7.03431458,7.65 6.9,7.78431458 6.9,7.95 C6.9,8.11568542 7.03431458,8.25 7.2,8.25 L9.9,8.25 C10.0656854,8.25 10.2,8.11568542 10.2,7.95 C10.2,7.78431458 10.0656854,7.65 9.9,7.65 Z" id="Path"></path>
                        <path d="M7.425,4.575 C7.47897805,4.6338306 7.55515848,4.66732151 7.635,4.66732151 C7.71484152,4.66732151 7.79102195,4.6338306 7.845,4.575 L8.61,3.81 L9.375,4.575 C9.42897805,4.6338306 9.50515848,4.66732151 9.585,4.66732151 C9.66484152,4.66732151 9.74102195,4.6338306 9.795,4.575 C9.8538306,4.52102195 9.88732151,4.44484152 9.88732151,4.365 C9.88732151,4.28515848 9.8538306,4.20897805 9.795,4.155 L9.03,3.39 L9.795,2.625 C9.88890819,2.55456886 9.9331114,2.43583732 9.90812486,2.32114222 C9.88313832,2.20644711 9.79355289,2.11686168 9.67885778,2.09187514 C9.56416268,2.0668886 9.44543114,2.11109181 9.375,2.205 L8.61,2.97 L7.845,2.205 C7.72556391,2.11542293 7.55843555,2.12730038 7.45286797,2.23286797 C7.34730038,2.33843555 7.33542293,2.50556391 7.425,2.625 L8.19,3.39 L7.425,4.155 C7.3661694,4.20897805 7.33267849,4.28515848 7.33267849,4.365 C7.33267849,4.44484152 7.3661694,4.52102195 7.425,4.575 Z" id="Path"></path>
                    </g>
                </g>
            </g>
        </g>
    </g>
</svg>