<?xml version="1.0" encoding="UTF-8"?>
<svg width="35px" height="35px" viewBox="0 0 35 35" version="1.1" xmlns="http://www.w3.org/2000/svg" xmlns:xlink="http://www.w3.org/1999/xlink">
    <!-- Generator: Sketch 46.2 (44496) - http://www.bohemiancoding.com/sketch -->
    <title>Tables logo</title>
    <desc>Created with Sketch.</desc>
    <defs></defs>
    <g id="Video" stroke="none" stroke-width="1" fill="none" fill-rule="evenodd">
        <g id="Tables-logo">
            <g id="Path">
                <path d="M1.08582353,0 C0.434514706,0 0,0.466421095 0,1.16679941 L0,33.8332006 C0,34.5335789 0.434514706,35 1.08582353,35 L33.6568235,35 C34.3081324,35 34.7426471,34.5335789 34.7426471,33.8332006 L34.7426471,1.16679941 C34.7426471,0.466421095 34.3081324,0 33.6568235,0 L1.08582353,0 Z" fill="#3A3A3A"></path>
                <polygon fill="$brand-orange" points="2.41752255 27.5574688 7.05618216 27.5574688 7.05618216 32.5223461 2.41752255 32.5223461"></polygon>
                <polygon fill="#E57622" points="8.21597076 27.5574688 19.8128672 27.5574688 19.8128672 32.5223461 8.21597076 32.5223461"></polygon>
                <polygon fill="#1DCBE0" points="20.972161 27.5574688 32.5690574 27.5574688 32.5690574 32.5223461 20.972161 32.5223461"></polygon>
                <polygon fill="#BBDEE2" points="20.972161 21.3512399 32.5690574 21.3512399 32.5690574 26.3161171 20.972161 26.3161171"></polygon>
                <polygon fill="#1DCBE0" points="20.972161 15.1450109 32.5690574 15.1450109 32.5690574 20.1104178 20.972161 20.1104178"></polygon>
                <polygon fill="#1DCBE0" points="20.972161 8.93931159 32.5690574 8.93931159 32.5690574 13.9041888 20.972161 13.9041888"></polygon>
                <polygon fill="#1DCBE0" points="2.41752255 8.93931159 7.05618216 8.93931159 7.05618216 13.9041888 2.41752255 13.9041888"></polygon>
                <polygon fill="#BBDEE2" points="2.41752255 21.4530706 7.05618216 21.4530706 7.05618216 26.4179479 2.41752255 26.4179479"></polygon>
                <polygon fill="#E57622" points="2.41752255 15.1450109 7.05618216 15.1450109 7.05618216 20.1104178 2.41752255 20.1104178"></polygon>
                <polygon fill="#BBDEE2" points="8.21597076 2.73308264 19.8128672 2.73308264 19.8128672 7.69795988 8.21597076 7.69795988"></polygon>
                <polygon fill="#E24F4A" points="8.21597076 21.3512399 19.8128672 21.3512399 19.8128672 26.3161171 8.21597076 26.3161171"></polygon>
                <polygon fill="$brand-orange" points="8.21597076 15.1450109 19.8128672 15.1450109 19.8128672 20.1104178 8.21597076 20.1104178"></polygon>
                <polygon fill="$brand-orange" points="8.21597076 8.93931159 19.8128672 8.93931159 19.8128672 13.9041888 8.21597076 13.9041888"></polygon>
                <polygon fill="#E24F4A" points="20.972161 2.73308264 32.5690574 2.73308264 32.5690574 7.69795988 20.972161 7.69795988"></polygon>
                <polygon fill="#E24F4A" points="2.41752255 2.73308264 7.05618216 2.73308264 7.05618216 7.69795988 2.41752255 7.69795988"></polygon>
            </g>
        </g>
    </g>
</svg>