<?xml version="1.0" encoding="UTF-8"?>
<svg width="611px" height="97px" viewBox="0 0 611 97" version="1.1" xmlns="http://www.w3.org/2000/svg" xmlns:xlink="http://www.w3.org/1999/xlink">
    <!-- Generator: Sketch 54.1 (76490) - https://sketchapp.com -->
    <title>Workbench</title>
    <desc>Created with Sketch.</desc>
    <g id="Logos" stroke="none" stroke-width="1" fill="none" fill-rule="evenodd">
        <g id="Workbench-logo-dark" transform="translate(-112.000000, 0.000000)" fill="#4A4A4A" fill-rule="nonzero">
            <g id="Group-2" transform="translate(112.000000, -5.000000)">
                <path d="M0.768,8.456 L15.232,8.456 C16.7253408,8.456 17.9733283,8.80799648 18.976,9.512 C19.9786717,10.2160035 20.650665,11.1653274 20.992,12.36 L36.736,67.72 C37.1200019,69.0853402 37.4719984,70.567992 37.792,72.168 C38.1120016,73.768008 38.4213318,75.463991 38.72,77.256 C39.061335,75.463991 39.4346646,73.768008 39.84,72.168 C40.2453354,70.567992 40.6826643,69.0853402 41.152,67.72 L59.328,12.36 C59.669335,11.3786618 60.3413283,10.4826707 61.344,9.672 C62.3466717,8.86132928 63.5733261,8.456 65.024,8.456 L70.08,8.456 C71.5733408,8.456 72.8106618,8.80799648 73.792,9.512 C74.7733382,10.2160035 75.4559981,11.1653274 75.84,12.36 L93.888,67.72 C94.8266714,70.4506803 95.6373299,73.4799834 96.32,76.808 C96.6186682,75.1439917 96.9279984,73.5440077 97.248,72.008 C97.5680016,70.4719923 97.898665,69.0426733 98.24,67.72 L113.984,12.36 C114.282668,11.293328 114.943995,10.3760038 115.968,9.608 C116.992005,8.83999616 118.229326,8.456 119.68,8.456 L133.184,8.456 L104.448,101 L88.896,101 L68.672,37.768 C68.4159987,36.9573293 68.1493347,36.0826714 67.872,35.144 C67.5946653,34.2053286 67.3280013,33.202672 67.072,32.136 C66.8159987,33.202672 66.5493347,34.2053286 66.272,35.144 C65.9946653,36.0826714 65.7280013,36.9573293 65.472,37.768 L45.056,101 L29.504,101 L0.768,8.456 Z M160.60937,34.312 C165.516061,34.312 169.964017,35.1013254 173.95337,36.68 C177.942723,38.2586746 181.345356,40.4986522 184.16137,43.4 C186.977384,46.3013478 189.153362,49.8426458 190.68937,54.024 C192.225378,58.2053542 192.99337,62.8773075 192.99337,68.04 C192.99337,73.2453594 192.225378,77.9386458 190.68937,82.12 C189.153362,86.3013542 186.977384,89.8639853 184.16137,92.808 C181.345356,95.7520147 177.942723,98.0133254 173.95337,99.592 C169.964017,101.170675 165.516061,101.96 160.60937,101.96 C155.702679,101.96 151.244057,101.170675 147.23337,99.592 C143.222683,98.0133254 139.798718,95.7520147 136.96137,92.808 C134.124022,89.8639853 131.926711,86.3013542 130.36937,82.12 C128.812029,77.9386458 128.03337,73.2453594 128.03337,68.04 C128.03337,62.8773075 128.812029,58.2053542 130.36937,54.024 C131.926711,49.8426458 134.124022,46.3013478 136.96137,43.4 C139.798718,40.4986522 143.222683,38.2586746 147.23337,36.68 C151.244057,35.1013254 155.702679,34.312 160.60937,34.312 Z M160.60937,89.8 C166.070731,89.8 170.113357,87.9653517 172.73737,84.296 C175.361383,80.6266483 176.67337,75.2507021 176.67337,68.168 C176.67337,61.0852979 175.361383,55.6880186 172.73737,51.976 C170.113357,48.2639814 166.070731,46.408 160.60937,46.408 C155.062676,46.408 150.966717,48.274648 148.32137,52.008 C145.676023,55.741352 144.35337,61.1279648 144.35337,68.168 C144.35337,75.2080352 145.676023,80.5733149 148.32137,84.264 C150.966717,87.9546851 155.062676,89.8 160.60937,89.8 Z M198.14674,101 L198.14674,35.336 L207.42674,35.336 C209.048081,35.336 210.178737,35.6346637 210.81874,36.232 C211.458743,36.8293363 211.885406,37.8533261 212.09874,39.304 L213.05874,47.24 C215.405418,43.1866464 218.157391,39.9866784 221.31474,37.64 C224.472089,35.2933216 228.013387,34.12 231.93874,34.12 C235.181423,34.12 237.869396,34.8666592 240.00274,36.36 L237.95474,48.2 C237.826739,48.9680038 237.549409,49.5119984 237.12274,49.832 C236.696071,50.1520016 236.120077,50.312 235.39474,50.312 C234.754737,50.312 233.880079,50.1626682 232.77074,49.864 C231.661401,49.5653318 230.189416,49.416 228.35474,49.416 C225.06939,49.416 222.253418,50.3226576 219.90674,52.136 C217.560062,53.9493424 215.576081,56.6053158 213.95474,60.104 L213.95474,101 L198.14674,101 Z M259.23611,5.896 L259.23611,60.36 L262.18011,60.36 C263.246782,60.36 264.078774,60.2106682 264.67611,59.912 C265.273446,59.6133318 265.91344,59.0586707 266.59611,58.248 L282.91611,38.088 C283.641447,37.2346624 284.409439,36.5626691 285.22011,36.072 C286.030781,35.5813309 287.097437,35.336 288.42011,35.336 L302.88411,35.336 L282.46811,59.72 C281.742773,60.6160045 280.996114,61.4373296 280.22811,62.184 C279.460106,62.9306704 278.628114,63.5813306 277.73211,64.136 C278.628114,64.7760032 279.41744,65.5226624 280.10011,66.376 C280.78278,67.2293376 281.46544,68.1466618 282.14811,69.128 L304.03611,101 L289.76411,101 C288.52677,101 287.481448,100.786669 286.62811,100.36 C285.774772,99.9333312 285.00678,99.2080051 284.32411,98.184 L267.62011,73.288 C266.980107,72.3066618 266.340113,71.6666682 265.70011,71.368 C265.060107,71.0693318 264.100116,70.92 262.82011,70.92 L259.23611,70.92 L259.23611,101 L243.42811,101 L243.42811,5.896 L259.23611,5.896 Z M306.82148,101 L306.82148,5.896 L322.62948,5.896 L322.62948,43.4 C325.23216,40.6266528 328.17613,38.4186749 331.46148,36.776 C334.74683,35.1333251 338.586791,34.312 342.98148,34.312 C346.565498,34.312 349.840132,35.0479926 352.80548,36.52 C355.770828,37.9920074 358.330803,40.1359859 360.48548,42.952 C362.640157,45.7680141 364.304141,49.2453126 365.47748,53.384 C366.650819,57.5226874 367.23748,62.2799731 367.23748,67.656 C367.23748,72.5626912 366.576153,77.1066458 365.25348,81.288 C363.930807,85.4693542 362.042826,89.0959846 359.58948,92.168 C357.136134,95.2400154 354.170831,97.6399914 350.69348,99.368 C347.216129,101.096009 343.322835,101.96 339.01348,101.96 C337.008137,101.96 335.173488,101.757335 333.50948,101.352 C331.845472,100.946665 330.33082,100.381337 328.96548,99.656 C327.60014,98.930663 326.330819,98.0453386 325.15748,97 C323.984141,95.9546614 322.864152,94.7920064 321.79748,93.512 L321.09348,97.928 C320.837479,99.0373389 320.40015,99.8266643 319.78148,100.296 C319.16281,100.765336 318.320152,101 317.25348,101 L306.82148,101 Z M337.54148,46.6 C334.25613,46.6 331.450825,47.2933264 329.12548,48.68 C326.800135,50.0666736 324.634823,52.0186541 322.62948,54.536 L322.62948,83.976 C324.421489,86.1946778 326.373469,87.741329 328.48548,88.616 C330.597491,89.490671 332.890801,89.928 335.36548,89.928 C337.754825,89.928 339.90947,89.4800045 341.82948,88.584 C343.74949,87.6879955 345.381473,86.3226758 346.72548,84.488 C348.069487,82.6533242 349.104143,80.3386806 349.82948,77.544 C350.554817,74.7493194 350.91748,71.4533523 350.91748,67.656 C350.91748,63.8159808 350.60815,60.56268 349.98948,57.896 C349.37081,55.22932 348.485486,53.0640083 347.33348,51.4 C346.181474,49.7359917 344.784155,48.5200038 343.14148,47.752 C341.498805,46.9839962 339.632157,46.6 337.54148,46.6 Z M399.52685,34.312 C403.665537,34.312 407.473499,34.9733267 410.95085,36.296 C414.428201,37.6186733 417.425504,39.5493206 419.94285,42.088 C422.460196,44.6266794 424.422843,47.7413149 425.83085,51.432 C427.238857,55.1226851 427.94285,59.3359763 427.94285,64.072 C427.94285,65.2666726 427.889517,66.2586627 427.78285,67.048 C427.676183,67.8373373 427.484185,68.4559978 427.20685,68.904 C426.929515,69.3520022 426.556186,69.671999 426.08685,69.864 C425.617514,70.056001 425.020187,70.152 424.29485,70.152 L383.71885,70.152 C384.188186,76.893367 386.001501,81.8426509 389.15885,85 C392.316199,88.1573491 396.497491,89.736 401.70285,89.736 C404.262863,89.736 406.470841,89.4373363 408.32685,88.84 C410.182859,88.2426637 411.804176,87.581337 413.19085,86.856 C414.577524,86.130663 415.793511,85.4693363 416.83885,84.872 C417.884189,84.2746637 418.897512,83.976 419.87885,83.976 C420.518853,83.976 421.073514,84.1039987 421.54285,84.36 C422.012186,84.6160013 422.417515,84.9786643 422.75885,85.448 L427.36685,91.208 C425.617508,93.2560102 423.654861,94.9733264 421.47885,96.36 C419.302839,97.7466736 417.030862,98.8559958 414.66285,99.688 C412.294838,100.520004 409.884196,101.106665 407.43085,101.448 C404.977504,101.789335 402.598862,101.96 400.29485,101.96 C395.729494,101.96 391.484203,101.202674 387.55885,99.688 C383.633497,98.1733258 380.220198,95.9333482 377.31885,92.968 C374.417502,90.0026518 372.134858,86.3333552 370.47085,81.96 C368.806842,77.5866448 367.97485,72.5200288 367.97485,66.76 C367.97485,62.2799776 368.700176,58.0666864 370.15085,54.12 C371.601524,50.1733136 373.681503,46.7386813 376.39085,43.816 C379.100197,40.8933187 382.40683,38.5786752 386.31085,36.872 C390.21487,35.1653248 394.620159,34.312 399.52685,34.312 Z M399.84685,45.64 C395.238827,45.64 391.63353,46.9413203 389.03085,49.544 C386.42817,52.1466797 384.764187,55.8373094 384.03885,60.616 L413.73485,60.616 C413.73485,58.5679898 413.457519,56.6373424 412.90285,54.824 C412.348181,53.0106576 411.494856,51.4213402 410.34285,50.056 C409.190844,48.6906598 407.740192,47.6133373 405.99085,46.824 C404.241508,46.0346627 402.193528,45.64 399.84685,45.64 Z M433.60822,101 L433.60822,35.336 L443.27222,35.336 C445.32023,35.336 446.664217,36.2959904 447.30422,38.216 L448.39222,43.4 C449.714893,42.0346598 451.112213,40.7973389 452.58422,39.688 C454.056227,38.5786611 455.613545,37.6186707 457.25622,36.808 C458.898895,35.9973293 460.658877,35.3786688 462.53622,34.952 C464.413563,34.5253312 466.461542,34.312 468.68022,34.312 C472.264238,34.312 475.442873,34.9199939 478.21622,36.136 C480.989567,37.3520061 483.304211,39.0586557 485.16022,41.256 C487.016229,43.4533443 488.424215,46.0773181 489.38422,49.128 C490.344225,52.1786819 490.82422,55.5386483 490.82422,59.208 L490.82422,101 L475.01622,101 L475.01622,59.208 C475.01622,55.1973133 474.088229,52.0933443 472.23222,49.896 C470.376211,47.6986557 467.592239,46.6 463.88022,46.6 C461.14954,46.6 458.589565,47.2186605 456.20022,48.456 C453.810875,49.6933395 451.549564,51.378656 449.41622,53.512 L449.41622,101 L433.60822,101 Z M545.32159,49.224 C544.852254,49.8213363 544.393592,50.290665 543.94559,50.632 C543.497588,50.973335 542.846928,51.144 541.99359,51.144 C541.182919,51.144 540.393594,50.8986691 539.62559,50.408 C538.857586,49.9173309 537.940262,49.3626698 536.87359,48.744 C535.806918,48.1253302 534.537597,47.5706691 533.06559,47.08 C531.593583,46.5893309 529.769601,46.344 527.59359,46.344 C524.820243,46.344 522.388267,46.8453283 520.29759,47.848 C518.206913,48.8506717 516.468264,50.2906573 515.08159,52.168 C513.694916,54.0453427 512.66026,56.31732 511.97759,58.984 C511.29492,61.65068 510.95359,64.6693165 510.95359,68.04 C510.95359,71.5386842 511.32692,74.6533197 512.07359,77.384 C512.82026,80.1146803 513.897583,82.4079907 515.30559,84.264 C516.713597,86.1200093 518.420247,87.5279952 520.42559,88.488 C522.430933,89.4480048 524.692244,89.928 527.20959,89.928 C529.726936,89.928 531.764249,89.6186698 533.32159,89 C534.878931,88.3813302 536.190918,87.6986704 537.25759,86.952 C538.324262,86.2053296 539.252253,85.5226698 540.04159,84.904 C540.830927,84.2853302 541.716252,83.976 542.69759,83.976 C543.977596,83.976 544.937587,84.4666618 545.57759,85.448 L550.12159,91.208 C548.372248,93.2560102 546.4736,94.9733264 544.42559,96.36 C542.37758,97.7466736 540.254934,98.8559958 538.05759,99.688 C535.860246,100.520004 533.588268,101.106665 531.24159,101.448 C528.894912,101.789335 526.569602,101.96 524.26559,101.96 C520.212236,101.96 516.393608,101.202674 512.80959,99.688 C509.225572,98.1733258 506.10027,95.9653478 503.43359,93.064 C500.76691,90.1626522 498.654931,86.6106877 497.09759,82.408 C495.540249,78.2053123 494.76159,73.4160269 494.76159,68.04 C494.76159,63.2186426 495.454916,58.7493539 496.84159,54.632 C498.228264,50.5146461 500.265577,46.952015 502.95359,43.944 C505.641603,40.935985 508.96957,38.5786752 512.93759,36.872 C516.90561,35.1653248 521.470898,34.312 526.63359,34.312 C531.540281,34.312 535.838905,35.1013254 539.52959,36.68 C543.220275,38.2586746 546.537575,40.5199853 549.48159,43.464 L545.32159,49.224 Z M553.03496,101 L553.03496,5.896 L568.84296,5.896 L568.84296,42.44 C571.402973,40.0079878 574.218945,38.0453408 577.29096,36.552 C580.362975,35.0586592 583.968273,34.312 588.10696,34.312 C591.690978,34.312 594.869613,34.9199939 597.64296,36.136 C600.416307,37.3520061 602.730951,39.0586557 604.58696,41.256 C606.442969,43.4533443 607.850955,46.0773181 608.81096,49.128 C609.770965,52.1786819 610.25096,55.5386483 610.25096,59.208 L610.25096,101 L594.44296,101 L594.44296,59.208 C594.44296,55.1973133 593.514969,52.0933443 591.65896,49.896 C589.802951,47.6986557 587.018979,46.6 583.30696,46.6 C580.57628,46.6 578.016305,47.2186605 575.62696,48.456 C573.237615,49.6933395 570.976304,51.378656 568.84296,53.512 L568.84296,101 L553.03496,101 Z" id="Workbench"></path>
            </g>
        </g>
    </g>
</svg>