<svg id="Layer_1" data-name="Layer 1" xmlns="http://www.w3.org/2000/svg" viewBox="0 0 215.5 33.34"><defs><style>.cls-1{fill:#fff;}</style></defs><title>workbench-logo</title><path class="cls-1" d="M456.86,311.29h5a2.24,2.24,0,0,1,1.3.37,1.78,1.78,0,0,1,.7,1l5.46,19.21c.13.47.26,1,.37,1.54s.21,1.15.32,1.77q.18-.93.39-1.77c.14-.55.29-1.07.45-1.54l6.31-19.21a2.09,2.09,0,0,1,.7-.93,1.92,1.92,0,0,1,1.28-.43h1.75a2.19,2.19,0,0,1,1.29.37,1.85,1.85,0,0,1,.71,1l6.26,19.21A25.52,25.52,0,0,1,490,335c.1-.57.21-1.13.32-1.66s.22-1,.34-1.49l5.47-19.21a1.78,1.78,0,0,1,.69-1,2.1,2.1,0,0,1,1.28-.4h4.69l-10,32.12h-5.4l-7-21.94c-.09-.29-.18-.59-.27-.92s-.19-.67-.28-1c-.09.37-.18.72-.28,1l-.28.92-7.08,21.94h-5.4Z" transform="translate(-456.86 -310.4)"/><path class="cls-1" d="M512.83,320.27a12.47,12.47,0,0,1,4.63.82,10,10,0,0,1,3.54,2.33,10.44,10.44,0,0,1,2.27,3.69,15.44,15.44,0,0,1,0,9.75,10.71,10.71,0,0,1-2.27,3.71,9.93,9.93,0,0,1-3.54,2.35,13.54,13.54,0,0,1-9.28,0,9.93,9.93,0,0,1-3.56-2.35,10.76,10.76,0,0,1-2.29-3.71,15.08,15.08,0,0,1,0-9.75,10.48,10.48,0,0,1,2.29-3.69,10,10,0,0,1,3.56-2.33A12.58,12.58,0,0,1,512.83,320.27Zm0,19.25a4.83,4.83,0,0,0,4.21-1.91,12.23,12.23,0,0,0,0-11.21,5.59,5.59,0,0,0-8.48,0,12.11,12.11,0,0,0,0,11.19A4.9,4.9,0,0,0,512.83,339.52Z" transform="translate(-456.86 -310.4)"/><path class="cls-1" d="M526.35,343.41V320.62h3.22a1.78,1.78,0,0,1,1.18.31,1.81,1.81,0,0,1,.44,1.07l.34,2.75a11,11,0,0,1,2.86-3.33,6.08,6.08,0,0,1,3.69-1.22,4.77,4.77,0,0,1,2.8.78l-.71,4.11a.86.86,0,0,1-.29.56,1,1,0,0,1-.6.17,3.47,3.47,0,0,1-.91-.16,6.39,6.39,0,0,0-1.54-.15,4.65,4.65,0,0,0-2.93.94,7.26,7.26,0,0,0-2.06,2.77v14.19Z" transform="translate(-456.86 -310.4)"/><path class="cls-1" d="M548.05,310.4v18.91h1a2,2,0,0,0,.87-.16,2.11,2.11,0,0,0,.66-.58l5.67-7a3.22,3.22,0,0,1,.8-.7,2.12,2.12,0,0,1,1.11-.26h5l-7.09,8.46a9.29,9.29,0,0,1-.78.86,5.15,5.15,0,0,1-.86.68,4.28,4.28,0,0,1,.82.77c.24.3.47.62.71,1l7.6,11.06h-5a2.47,2.47,0,0,1-1.08-.22,2.05,2.05,0,0,1-.8-.76l-5.8-8.64a1.77,1.77,0,0,0-.67-.67,2.52,2.52,0,0,0-1-.15h-1.24v10.44h-5.49v-33Z" transform="translate(-456.86 -310.4)"/><path class="cls-1" d="M565.06,343.41v-33h5.49v13a10.8,10.8,0,0,1,3.06-2.3,8.86,8.86,0,0,1,4-.85A7.59,7.59,0,0,1,581,321a7.67,7.67,0,0,1,2.67,2.23,11,11,0,0,1,1.73,3.62,18.54,18.54,0,0,1,.61,5,15.58,15.58,0,0,1-.69,4.73,11.36,11.36,0,0,1-2,3.77,8.84,8.84,0,0,1-7.14,3.4,8.16,8.16,0,0,1-1.91-.21,6.81,6.81,0,0,1-1.57-.59,6.37,6.37,0,0,1-1.32-.92,11.21,11.21,0,0,1-1.17-1.21l-.24,1.53a1.22,1.22,0,0,1-1.34,1.07Zm10.66-18.88a5.62,5.62,0,0,0-2.92.72,8.48,8.48,0,0,0-2.25,2V337.5a5.19,5.19,0,0,0,2,1.61,6.24,6.24,0,0,0,2.39.46,5.25,5.25,0,0,0,2.24-.47,4.44,4.44,0,0,0,1.7-1.42,7,7,0,0,0,1.08-2.41,13.88,13.88,0,0,0,.38-3.43,14.89,14.89,0,0,0-.33-3.39,6.33,6.33,0,0,0-.92-2.25,3.65,3.65,0,0,0-1.45-1.27A4.5,4.5,0,0,0,575.72,324.53Z" transform="translate(-456.86 -310.4)"/><path class="cls-1" d="M597.73,320.27a11.29,11.29,0,0,1,4,.68,8.82,8.82,0,0,1,3.12,2,9.37,9.37,0,0,1,2,3.25,12.19,12.19,0,0,1,.73,4.38,7.67,7.67,0,0,1-.05,1,1.86,1.86,0,0,1-.2.64.78.78,0,0,1-.39.33,1.58,1.58,0,0,1-.62.1H592.25a7.89,7.89,0,0,0,1.88,5.16,5.92,5.92,0,0,0,4.36,1.64,7.49,7.49,0,0,0,2.3-.31,11.23,11.23,0,0,0,1.68-.69c.49-.25.91-.48,1.27-.69a2.08,2.08,0,0,1,1.06-.31,1.14,1.14,0,0,1,.57.13,1.18,1.18,0,0,1,.42.38l1.6,2a8.87,8.87,0,0,1-2,1.79A11.44,11.44,0,0,1,603,343a13.12,13.12,0,0,1-2.51.61,17.88,17.88,0,0,1-2.48.18,12.05,12.05,0,0,1-4.42-.79,9.75,9.75,0,0,1-3.55-2.33,10.93,10.93,0,0,1-2.38-3.82,14.74,14.74,0,0,1-.87-5.27,12.7,12.7,0,0,1,.76-4.39,10.55,10.55,0,0,1,2.16-3.58,10.34,10.34,0,0,1,3.45-2.41A11.34,11.34,0,0,1,597.73,320.27Zm.11,3.93a5.07,5.07,0,0,0-3.75,1.35,6.73,6.73,0,0,0-1.73,3.84h10.3a6.6,6.6,0,0,0-.29-2,4.52,4.52,0,0,0-.88-1.65,4.26,4.26,0,0,0-1.51-1.12A5.08,5.08,0,0,0,597.84,324.2Z" transform="translate(-456.86 -310.4)"/><path class="cls-1" d="M610.06,343.41V320.62h3.35a1.34,1.34,0,0,1,1.4,1l.38,1.8a13.52,13.52,0,0,1,1.45-1.29,10.38,10.38,0,0,1,1.62-1,8.51,8.51,0,0,1,1.84-.64,9.48,9.48,0,0,1,2.13-.22,8.21,8.21,0,0,1,3.31.63,6.51,6.51,0,0,1,2.41,1.78,7.77,7.77,0,0,1,1.46,2.73,11.39,11.39,0,0,1,.5,3.5v14.5h-5.48v-14.5a4.86,4.86,0,0,0-1-3.24,3.58,3.58,0,0,0-2.9-1.14,5.83,5.83,0,0,0-2.66.64,9.61,9.61,0,0,0-2.36,1.76v16.48Z" transform="translate(-456.86 -310.4)"/><path class="cls-1" d="M649.32,325.44a2.78,2.78,0,0,1-.47.49,1.1,1.1,0,0,1-.68.18,1.5,1.5,0,0,1-.82-.26l-1-.58a7.46,7.46,0,0,0-1.32-.57,6.05,6.05,0,0,0-1.9-.26,5.92,5.92,0,0,0-2.53.52,4.87,4.87,0,0,0-1.81,1.5,6.81,6.81,0,0,0-1.08,2.37,13,13,0,0,0-.35,3.14,12.24,12.24,0,0,0,.39,3.24,6.88,6.88,0,0,0,1.12,2.39,4.93,4.93,0,0,0,1.78,1.47,5.4,5.4,0,0,0,2.35.5,5.71,5.71,0,0,0,2.12-.33,6.47,6.47,0,0,0,1.37-.71c.37-.26.69-.49,1-.71a1.49,1.49,0,0,1,.92-.32,1.11,1.11,0,0,1,1,.51l1.58,2a10,10,0,0,1-2,1.79A10.58,10.58,0,0,1,646.8,343a11.22,11.22,0,0,1-2.36.61,16.63,16.63,0,0,1-2.42.18,10.06,10.06,0,0,1-4-.79,9.14,9.14,0,0,1-3.25-2.3,10.88,10.88,0,0,1-2.2-3.69,14.31,14.31,0,0,1-.81-5,14.53,14.53,0,0,1,.72-4.65,10.52,10.52,0,0,1,2.12-3.71,9.73,9.73,0,0,1,3.47-2.46,11.94,11.94,0,0,1,4.75-.88,11.25,11.25,0,0,1,4.47.82,10.89,10.89,0,0,1,3.46,2.35Z" transform="translate(-456.86 -310.4)"/><path class="cls-1" d="M652.5,343.41v-33H658v12.69a11.31,11.31,0,0,1,2.93-2,8.43,8.43,0,0,1,3.75-.77,8.21,8.21,0,0,1,3.31.63,6.43,6.43,0,0,1,2.41,1.78,8,8,0,0,1,1.47,2.73,11.7,11.7,0,0,1,.5,3.5v14.5h-5.49v-14.5a4.86,4.86,0,0,0-1-3.24,3.57,3.57,0,0,0-2.89-1.14,5.84,5.84,0,0,0-2.67.64,9.56,9.56,0,0,0-2.35,1.76v16.48Z" transform="translate(-456.86 -310.4)"/></svg>