<svg xmlns="http://www.w3.org/2000/svg" viewBox="0 0 739 105"><defs/><g fill="none" fill-rule="evenodd"><path fill="#FFF" d="M114.8 4.5h14.4c1.5 0 2.8.3 3.8 1a5 5 0 012 2.9l15.7 55.3a59.8 59.8 0 012 9.6 87.1 87.1 0 012.5-9.6l18.1-55.3a6 6 0 015.7-4h5c1.6 0 2.8.4 3.8 1.1 1 .7 1.7 1.7 2 2.9l18 55.3c1 2.8 1.8 5.8 2.5 9.1a176 176 0 012-9L228 8.3c.3-1.1 1-2 2-2.8a6 6 0 013.7-1.1h13.5L218.4 97H203l-20.2-63.2A148 148 0 01181 28a60.3 60.3 0 01-1.6 5.7L159 97h-15.6L114.8 4.5zM275 30.3c5 0 9.4.8 13.4 2.4A28.8 28.8 0 01305 50c1.5 4.2 2.3 8.9 2.3 14 0 5.2-.8 10-2.3 14.1a28.4 28.4 0 01-16.7 17.5A36 36 0 01275 98c-4.9 0-9.4-.8-13.4-2.4A28.6 28.6 0 01244.8 78a40.1 40.1 0 01-2.4-14c0-5.2.8-9.9 2.4-14a29 29 0 0116.9-17.3c4-1.7 8.4-2.5 13.3-2.5zm0 55.5c5.5 0 9.5-1.8 12.1-5.5 2.7-3.7 4-9 4-16.1a28 28 0 00-4-16.2c-2.6-3.7-6.6-5.6-12-5.6-5.6 0-9.7 1.9-12.4 5.6-2.6 3.7-4 9.1-4 16.2 0 7 1.4 12.4 4 16 2.7 3.8 6.8 5.6 12.3 5.6zM313 97V31.3h9.2c1.6 0 2.8.3 3.4 1 .7.5 1 1.6 1.3 3l1 8c2.3-4.1 5-7.3 8.2-9.7 3.2-2.3 6.7-3.5 10.6-3.5 3.3 0 6 .8 8.1 2.3l-2 11.8c-.2.8-.5 1.3-.9 1.6-.4.4-1 .5-1.7.5-.6 0-1.5-.1-2.6-.4-1.1-.3-2.6-.5-4.4-.5-3.3 0-6.1 1-8.5 2.7a21 21 0 00-6 8V97H313zm61.4-95.1v54.5h3c1 0 1.9-.2 2.5-.5.6-.3 1.2-.8 1.9-1.7L398 34.1c.7-.9 1.5-1.5 2.3-2 .8-.5 1.9-.8 3.2-.8h14.5l-20.4 24.4a28 28 0 01-2.3 2.5c-.7.7-1.6 1.4-2.5 2 1 .6 1.7 1.3 2.4 2.2.7.8 1.4 1.7 2 2.7l22 31.9H405a7 7 0 01-3.2-.6 6.1 6.1 0 01-2.3-2.2l-16.7-25a5 5 0 00-1.9-1.8c-.6-.3-1.6-.5-2.9-.5h-3.6V97h-15.8V1.9h15.8zm48 95.1V1.9h15.8v37.5c2.6-2.8 5.6-5 8.9-6.6a25.5 25.5 0 0121.3-.3c3 1.5 5.5 3.6 7.7 6.5 2.1 2.8 3.8 6.2 5 10.4a52.5 52.5 0 01-.3 27.9 33.4 33.4 0 01-5.6 10.9 26.2 26.2 0 01-20.6 9.8 23.3 23.3 0 01-10-2.3c-1.4-.8-2.7-1.7-3.8-2.7-1.2-1-2.3-2.2-3.4-3.5l-.7 4.4c-.3 1.1-.7 2-1.3 2.4a4 4 0 01-2.6.7h-10.4zm30.7-54.4c-3.2 0-6 .7-8.4 2a24.3 24.3 0 00-6.5 6V80a15 15 0 0012.8 6c2.3 0 4.5-.5 6.4-1.4 2-1 3.6-2.3 5-4.1 1.3-1.8 2.3-4.2 3-7a43.9 43.9 0 00.2-19.6c-.6-2.7-1.5-4.8-2.7-6.5a10.5 10.5 0 00-4.2-3.6 13 13 0 00-5.6-1.2zm62.4-12.3c4.2 0 8 .7 11.4 2a25 25 0 0115 15.1 35.3 35.3 0 011.9 15.6c-.1.8-.3 1.5-.6 1.9-.3.5-.7.8-1.1 1-.5.2-1 .3-1.8.3h-40.6c.5 6.7 2.3 11.6 5.5 14.8a17 17 0 0012.5 4.7c2.6 0 4.8-.3 6.6-.9a31 31 0 004.9-2 113 113 0 003.6-2c1-.5 2-.8 3-.8.7 0 1.3.1 1.7.4.5.2 1 .6 1.3 1l4.6 5.8c-1.8 2-3.8 3.8-6 5.2a33 33 0 01-14 5c-2.4.4-4.8.6-7.1.6a35 35 0 01-12.7-2.3c-4-1.5-7.4-3.8-10.3-6.7-2.9-3-5.2-6.7-6.8-11A42.6 42.6 0 01486 50 29.4 29.4 0 01502.3 33c4-1.7 8.3-2.6 13.2-2.6zm.3 11.3c-4.6 0-8.2 1.3-10.8 4a19.3 19.3 0 00-5 11h29.7c0-2-.2-4-.8-5.8-.6-1.8-1.4-3.4-2.6-4.7a12.1 12.1 0 00-4.3-3.3c-1.8-.8-3.8-1.2-6.2-1.2zM550 97V31.3h9.7c2 0 3.4 1 4 3l1 5.1a36 36 0 019-6.6 23.8 23.8 0 0111.4-2.5c3.6 0 6.7.6 9.5 1.8 2.8 1.3 5.1 3 7 5.2 1.8 2.2 3.2 4.8 4.2 7.8s1.4 6.4 1.4 10.1V97h-15.8V55.2c0-4-1-7.1-2.8-9.3-1.8-2.2-4.6-3.3-8.3-3.3-2.8 0-5.3.6-7.7 1.9-2.4 1.2-4.7 2.9-6.8 5V97H550zm112.1-51.8l-1.4 1.4c-.4.4-1 .5-2 .5-.7 0-1.5-.2-2.3-.7l-2.7-1.7a17.5 17.5 0 00-9.3-2.4c-2.8 0-5.2.5-7.3 1.5-2.1 1-3.8 2.5-5.2 4.4a19.5 19.5 0 00-3.1 6.8c-.7 2.7-1 5.7-1 9 0 3.5.3 6.7 1 9.4a20 20 0 003.3 6.9 14 14 0 005.1 4.2c2 1 4.3 1.4 6.8 1.4a16.8 16.8 0 0010-3l2.8-2c.8-.6 1.7-1 2.7-1 1.3 0 2.2.6 2.9 1.5l4.5 5.8a28.6 28.6 0 01-12 8.5A48.4 48.4 0 01641 98c-4.1 0-8-.8-11.5-2.3a26.7 26.7 0 01-9.4-6.6 32 32 0 01-6.3-10.7c-1.6-4.2-2.3-9-2.3-14.4 0-4.8.6-9.3 2-13.4a28 28 0 0116.1-17.8c4-1.6 8.6-2.5 13.7-2.5 5 0 9.2.8 13 2.4 3.6 1.6 7 3.8 9.9 6.8l-4.2 5.7zm8.1 51.8V1.9H686v36.5c2.6-2.4 5.4-4.4 8.5-5.8 3-1.5 6.7-2.3 10.8-2.3 3.6 0 6.8.6 9.5 1.8 2.8 1.3 5.1 3 7 5.2 1.8 2.2 3.2 4.8 4.2 7.8s1.4 6.4 1.4 10.1V97h-15.8V55.2c0-4-.9-7.1-2.8-9.3-1.8-2.2-4.6-3.3-8.3-3.3-2.7 0-5.3.6-7.7 1.9-2.4 1.2-4.6 2.9-6.8 5V97h-15.8z"/><path fill="#3A3A3A" d="M3.2 0C1.2 0 0 1.4 0 3.4v96.2c0 2 1.3 3.4 3.2 3.4h96.6c2 0 3.2-1.4 3.2-3.4V3.4c0-2-1.3-3.4-3.2-3.4H3.2z"/><path fill="#FBAA6D" d="M7.1 81.1h13.7v14.6H7.1z"/><path fill="#E57622" d="M24.2 81.1h34.1v14.6H24.2z"/><path fill="#1DCBE0" d="M61.7 81.1h34.1v14.6H61.7z"/><path fill="#BBDEE2" d="M61.7 62.8h34.1v14.6H61.7z"/><path fill="#1DCBE0" d="M61.7 44.6h34.1v14.6H61.7zM61.7 26.3h34.1v14.6H61.7zM7.1 26.3h13.7v14.6H7.1z"/><path fill="#BBDEE2" d="M7.1 63.1h13.7v14.6H7.1z"/><path fill="#E57622" d="M7.1 44.6h13.7v14.6H7.1z"/><path fill="#BBDEE2" d="M24.2 8h34.1v14.7H24.2z"/><path fill="#E24F4A" d="M24.2 62.8h34.1v14.6H24.2z"/><path fill="#FBAA6D" d="M24.2 44.6h34.1v14.6H24.2zM24.2 26.3h34.1v14.6H24.2z"/><path fill="#E24F4A" d="M61.7 8h34.1v14.7H61.7zM7.1 8h13.7v14.7H7.1z"/></g></svg>