<svg width="759" height="105" viewBox="0 0 759 105" fill="none" xmlns="http://www.w3.org/2000/svg">
<path fill-rule="evenodd" clip-rule="evenodd" d="M144.768 4.456H159.232C160.725 4.456 161.973 4.80799 162.976 5.512C163.979 6.216 164.651 7.16532 164.992 8.36L180.736 63.72C181.12 65.0853 181.472 66.568 181.792 68.168C182.112 69.768 182.421 71.464 182.72 73.256C183.061 71.464 183.435 69.768 183.84 68.168C184.245 66.568 184.683 65.0853 185.152 63.72L203.328 8.36C203.669 7.37866 204.341 6.48267 205.344 5.672C206.347 4.86133 207.573 4.456 209.024 4.456H214.08C215.573 4.456 216.811 4.80799 217.792 5.512C218.773 6.216 219.456 7.16532 219.84 8.36L237.888 63.72C238.827 66.4507 239.637 69.48 240.32 72.808C240.619 71.144 240.928 69.544 241.248 68.008C241.568 66.472 241.899 65.0427 242.24 63.72L257.984 8.36C258.283 7.29332 258.944 6.376 259.968 5.608C260.992 4.83999 262.229 4.456 263.68 4.456H277.184L248.448 97H232.896L212.672 33.768C212.416 32.9573 212.149 32.0827 211.872 31.144C211.595 30.2053 211.328 29.2027 211.072 28.136C210.816 29.2027 210.549 30.2053 210.272 31.144C209.995 32.0827 209.728 32.9573 209.472 33.768L189.056 97H173.504L144.768 4.456ZM305.008 30.312C309.915 30.312 314.363 31.1013 318.352 32.68C322.341 34.2587 325.744 36.4986 328.56 39.4C331.376 42.3013 333.552 45.8426 335.088 50.024C336.624 54.2053 337.392 58.8773 337.392 64.04C337.392 69.2454 336.624 73.9386 335.088 78.12C333.552 82.3013 331.376 85.864 328.56 88.808C325.744 91.752 322.341 94.0133 318.352 95.592C314.363 97.1707 309.915 97.96 305.008 97.96C300.101 97.96 295.643 97.1707 291.632 95.592C287.621 94.0133 284.197 91.752 281.36 88.808C278.523 85.864 276.325 82.3013 274.768 78.12C273.211 73.9386 272.432 69.2454 272.432 64.04C272.432 58.8773 273.211 54.2053 274.768 50.024C276.325 45.8426 278.523 42.3013 281.36 39.4C284.197 36.4986 287.621 34.2587 291.632 32.68C295.643 31.1013 300.101 30.312 305.008 30.312ZM305.008 85.8C310.469 85.8 314.512 83.9653 317.136 80.296C319.76 76.6266 321.072 71.2507 321.072 64.168C321.072 57.0853 319.76 51.688 317.136 47.976C314.512 44.264 310.469 42.408 305.008 42.408C299.461 42.408 295.365 44.2746 292.72 48.008C290.075 51.7413 288.752 57.128 288.752 64.168C288.752 71.208 290.075 76.5733 292.72 80.264C295.365 83.9547 299.461 85.8 305.008 85.8ZM342.944 97V31.336H352.224C353.845 31.336 354.976 31.6347 355.616 32.232C356.256 32.8293 356.683 33.8533 356.896 35.304L357.856 43.24C360.203 39.1866 362.955 35.9867 366.112 33.64C369.269 31.2933 372.811 30.12 376.736 30.12C379.979 30.12 382.667 30.8667 384.8 32.36L382.752 44.2C382.624 44.968 382.347 45.512 381.92 45.832C381.493 46.152 380.917 46.312 380.192 46.312C379.552 46.312 378.677 46.1627 377.568 45.864C376.459 45.5653 374.987 45.416 373.152 45.416C369.867 45.416 367.051 46.3227 364.704 48.136C362.357 49.9493 360.373 52.6053 358.752 56.104V97H342.944ZM404.432 1.896V56.36H407.376C408.443 56.36 409.275 56.2107 409.872 55.912C410.469 55.6133 411.109 55.0587 411.792 54.248L428.112 34.088C428.837 33.2347 429.605 32.5627 430.416 32.072C431.227 31.5813 432.293 31.336 433.616 31.336H448.08L427.664 55.72C426.939 56.616 426.192 57.4373 425.424 58.184C424.656 58.9307 423.824 59.5813 422.928 60.136C423.824 60.776 424.613 61.5227 425.296 62.376C425.979 63.2293 426.661 64.1467 427.344 65.128L449.232 97H434.96C433.723 97 432.677 96.7867 431.824 96.36C430.971 95.9333 430.203 95.208 429.52 94.184L412.816 69.288C412.176 68.3067 411.536 67.6667 410.896 67.368C410.256 67.0693 409.296 66.92 408.016 66.92H404.432V97H388.624V1.896H404.432ZM452.416 97V1.896H468.224V39.4C470.827 36.6267 473.771 34.4187 477.056 32.776C480.341 31.1333 484.181 30.312 488.576 30.312C492.16 30.312 495.435 31.048 498.4 32.52C501.365 33.992 503.925 36.136 506.08 38.952C508.235 41.768 509.899 45.2453 511.072 49.384C512.245 53.5227 512.832 58.28 512.832 63.656C512.832 68.5627 512.171 73.1066 510.848 77.288C509.525 81.4693 507.637 85.096 505.184 88.168C502.731 91.24 499.765 93.64 496.288 95.368C492.811 97.096 488.917 97.96 484.608 97.96C482.603 97.96 480.768 97.7573 479.104 97.352C477.44 96.9467 475.925 96.3813 474.56 95.656C473.195 94.9307 471.925 94.0453 470.752 93C469.579 91.9547 468.459 90.792 467.392 89.512L466.688 93.928C466.432 95.0373 465.995 95.8267 465.376 96.296C464.757 96.7653 463.915 97 462.848 97H452.416ZM483.136 42.6C479.851 42.6 477.045 43.2933 474.72 44.68C472.395 46.0667 470.229 48.0187 468.224 50.536V79.976C470.016 82.1947 471.968 83.7413 474.08 84.616C476.192 85.4907 478.485 85.928 480.96 85.928C483.349 85.928 485.504 85.48 487.424 84.584C489.344 83.688 490.976 82.3227 492.32 80.488C493.664 78.6533 494.699 76.3387 495.424 73.544C496.149 70.7493 496.512 67.4533 496.512 63.656C496.512 59.816 496.203 56.5627 495.584 53.896C494.965 51.2293 494.08 49.064 492.928 47.4C491.776 45.736 490.379 44.52 488.736 43.752C487.093 42.984 485.227 42.6 483.136 42.6ZM545.52 30.312C549.659 30.312 553.467 30.9733 556.944 32.296C560.421 33.6187 563.419 35.5493 565.936 38.088C568.453 40.6267 570.416 43.7413 571.824 47.432C573.232 51.1227 573.936 55.336 573.936 60.072C573.936 61.2667 573.883 62.2587 573.776 63.048C573.669 63.8373 573.477 64.456 573.2 64.904C572.923 65.352 572.549 65.672 572.08 65.864C571.611 66.056 571.013 66.152 570.288 66.152H529.712C530.181 72.8934 531.995 77.8426 535.152 81C538.309 84.1573 542.491 85.736 547.696 85.736C550.256 85.736 552.464 85.4373 554.32 84.84C556.176 84.2427 557.797 83.5813 559.184 82.856C560.571 82.1307 561.787 81.4693 562.832 80.872C563.877 80.2747 564.891 79.976 565.872 79.976C566.512 79.976 567.067 80.104 567.536 80.36C568.005 80.616 568.411 80.9787 568.752 81.448L573.36 87.208C571.611 89.256 569.648 90.9733 567.472 92.36C565.296 93.7467 563.024 94.856 560.656 95.688C558.288 96.52 555.877 97.1067 553.424 97.448C550.971 97.7893 548.592 97.96 546.288 97.96C541.723 97.96 537.477 97.2027 533.552 95.688C529.627 94.1733 526.213 91.9333 523.312 88.968C520.411 86.0026 518.128 82.3334 516.464 77.96C514.8 73.5866 513.968 68.52 513.968 62.76C513.968 58.28 514.693 54.0667 516.144 50.12C517.595 46.1733 519.675 42.7387 522.384 39.816C525.093 36.8933 528.4 34.5787 532.304 32.872C536.208 31.1653 540.613 30.312 545.52 30.312ZM545.84 41.64C541.232 41.64 537.627 42.9413 535.024 45.544C532.421 48.1467 530.757 51.8373 530.032 56.616H559.728C559.728 54.568 559.451 52.6373 558.896 50.824C558.341 49.0107 557.488 47.4213 556.336 46.056C555.184 44.6907 553.733 43.6133 551.984 42.824C550.235 42.0347 548.187 41.64 545.84 41.64ZM580 97V31.336H589.664C591.712 31.336 593.056 32.296 593.696 34.216L594.784 39.4C596.107 38.0347 597.504 36.7973 598.976 35.688C600.448 34.5787 602.005 33.6187 603.648 32.808C605.291 31.9973 607.051 31.3787 608.928 30.952C610.805 30.5253 612.853 30.312 615.072 30.312C618.656 30.312 621.835 30.92 624.608 32.136C627.381 33.352 629.696 35.0587 631.552 37.256C633.408 39.4533 634.816 42.0773 635.776 45.128C636.736 48.1787 637.216 51.5386 637.216 55.208V97H621.408V55.208C621.408 51.1973 620.48 48.0933 618.624 45.896C616.768 43.6987 613.984 42.6 610.272 42.6C607.541 42.6 604.981 43.2187 602.592 44.456C600.203 45.6933 597.941 47.3787 595.808 49.512V97H580ZM692.112 45.224C691.643 45.8213 691.184 46.2907 690.736 46.632C690.288 46.9733 689.637 47.144 688.784 47.144C687.973 47.144 687.184 46.8987 686.416 46.408C685.648 45.9173 684.731 45.3627 683.664 44.744C682.597 44.1253 681.328 43.5707 679.856 43.08C678.384 42.5893 676.56 42.344 674.384 42.344C671.611 42.344 669.179 42.8453 667.088 43.848C664.997 44.8507 663.259 46.2907 661.872 48.168C660.485 50.0453 659.451 52.3173 658.768 54.984C658.085 57.6507 657.744 60.6693 657.744 64.04C657.744 67.5387 658.117 70.6533 658.864 73.384C659.611 76.1147 660.688 78.408 662.096 80.264C663.504 82.12 665.211 83.528 667.216 84.488C669.221 85.448 671.483 85.928 674 85.928C676.517 85.928 678.555 85.6187 680.112 85C681.669 84.3813 682.981 83.6987 684.048 82.952C685.115 82.2053 686.043 81.5227 686.832 80.904C687.621 80.2853 688.507 79.976 689.488 79.976C690.768 79.976 691.728 80.4667 692.368 81.448L696.912 87.208C695.163 89.256 693.264 90.9733 691.216 92.36C689.168 93.7467 687.045 94.856 684.848 95.688C682.651 96.52 680.379 97.1067 678.032 97.448C675.685 97.7893 673.36 97.96 671.056 97.96C667.003 97.96 663.184 97.2027 659.6 95.688C656.016 94.1733 652.891 91.9653 650.224 89.064C647.557 86.1627 645.445 82.6107 643.888 78.408C642.331 74.2053 641.552 69.416 641.552 64.04C641.552 59.2186 642.245 54.7494 643.632 50.632C645.019 46.5146 647.056 42.952 649.744 39.944C652.432 36.936 655.76 34.5787 659.728 32.872C663.696 31.1653 668.261 30.312 673.424 30.312C678.331 30.312 682.629 31.1013 686.32 32.68C690.011 34.2587 693.328 36.52 696.272 39.464L692.112 45.224ZM700.224 97V1.896H716.032V38.44C718.592 36.008 721.408 34.0453 724.48 32.552C727.552 31.0587 731.157 30.312 735.296 30.312C738.88 30.312 742.059 30.92 744.832 32.136C747.605 33.352 749.92 35.0587 751.776 37.256C753.632 39.4533 755.04 42.0773 756 45.128C756.96 48.1787 757.44 51.5386 757.44 55.208V97H741.632V55.208C741.632 51.1973 740.704 48.0933 738.848 45.896C736.992 43.6987 734.208 42.6 730.496 42.6C727.765 42.6 725.205 43.2187 722.816 44.456C720.427 45.6933 718.165 47.3787 716.032 49.512V97H700.224Z" fill="white"/>
<path fill-rule="evenodd" clip-rule="evenodd" d="M3.21909 0C1.28819 0 0 1.37261 0 3.43372V99.5663C0 101.627 1.28819 103 3.21909 103H99.7809C101.712 103 103 101.627 103 99.5663V3.43372C103 1.37261 101.712 0 99.7809 0H3.21909Z" fill="#3A3A3A"/>
<path fill-rule="evenodd" clip-rule="evenodd" d="M7.1153 81.0977H20.7662V95.7086H7.1153V81.0977Z" fill="#FBAA6D"/>
<path fill-rule="evenodd" clip-rule="evenodd" d="M24.1762 81.0977H58.3042V95.7086H24.1762V81.0977Z" fill="#E57622"/>
<path fill-rule="evenodd" clip-rule="evenodd" d="M61.719 81.0977H95.847V95.7086H61.719V81.0977Z" fill="#1DCBE0"/>
<path fill-rule="evenodd" clip-rule="evenodd" d="M61.719 62.8336H95.847V77.4446H61.719V62.8336Z" fill="#BBDEE2"/>
<path fill-rule="evenodd" clip-rule="evenodd" d="M61.719 44.5696H95.847V59.1821H61.719V44.5696Z" fill="#1DCBE0"/>
<path fill-rule="evenodd" clip-rule="evenodd" d="M61.719 26.3071H95.847V40.918H61.719V26.3071Z" fill="#1DCBE0"/>
<path fill-rule="evenodd" clip-rule="evenodd" d="M7.1153 26.3071H20.7662V40.918H7.1153V26.3071Z" fill="#1DCBE0"/>
<path fill-rule="evenodd" clip-rule="evenodd" d="M7.1153 63.1333H20.7662V77.7442H7.1153V63.1333Z" fill="#BBDEE2"/>
<path fill-rule="evenodd" clip-rule="evenodd" d="M7.1153 44.5696H20.7662V59.1821H7.1153V44.5696Z" fill="#E57622"/>
<path fill-rule="evenodd" clip-rule="evenodd" d="M24.1762 8.04308H58.3042V22.654H24.1762V8.04308Z" fill="#BBDEE2"/>
<path fill-rule="evenodd" clip-rule="evenodd" d="M24.1762 62.8336H58.3042V77.4446H24.1762V62.8336Z" fill="#E24F4A"/>
<path fill-rule="evenodd" clip-rule="evenodd" d="M24.1762 44.5696H58.3042V59.1821H24.1762V44.5696Z" fill="#FBAA6D"/>
<path fill-rule="evenodd" clip-rule="evenodd" d="M24.1762 26.3071H58.3042V40.918H24.1762V26.3071Z" fill="#FBAA6D"/>
<path fill-rule="evenodd" clip-rule="evenodd" d="M61.719 8.04308H95.847V22.654H61.719V8.04308Z" fill="#E24F4A"/>
<path fill-rule="evenodd" clip-rule="evenodd" d="M7.1153 8.04308H20.7662V22.654H7.1153V8.04308Z" fill="#E24F4A"/>
</svg>
