<?xml version="1.0" encoding="UTF-8"?>
<svg width="739px" height="105px" viewBox="0 0 739 105" version="1.1" xmlns="http://www.w3.org/2000/svg" xmlns:xlink="http://www.w3.org/1999/xlink">
    <!-- Generator: Sketch 52.4 (67378) - http://www.bohemiancoding.com/sketch -->
    <title>Workbench logo white</title>
    <desc>Created with Sketch.</desc>
    <g id="Workbench-logo-white" stroke="none" stroke-width="1" fill="none" fill-rule="evenodd">
        <path d="M114.768,4.456 L129.232,4.456 C130.725341,4.456 131.973328,4.80799648 132.976,5.512 C133.978672,6.21600352 134.650665,7.16532736 134.992,8.36 L150.736,63.72 C151.120002,65.0853402 151.471998,66.567992 151.792,68.168 C152.112002,69.768008 152.421332,71.463991 152.72,73.256 C153.061335,71.463991 153.434665,69.768008 153.84,68.168 C154.245335,66.567992 154.682664,65.0853402 155.152,63.72 L173.328,8.36 C173.669335,7.37866176 174.341328,6.48267072 175.344,5.672 C176.346672,4.86132928 177.573326,4.456 179.024,4.456 L184.08,4.456 C185.573341,4.456 186.810662,4.80799648 187.792,5.512 C188.773338,6.21600352 189.455998,7.16532736 189.84,8.36 L207.888,63.72 C208.826671,66.4506803 209.63733,69.4799834 210.32,72.808 C210.618668,71.1439917 210.927998,69.5440077 211.248,68.008 C211.568002,66.4719923 211.898665,65.0426733 212.24,63.72 L227.984,8.36 C228.282668,7.293328 228.943995,6.37600384 229.968,5.608 C230.992005,4.83999616 232.229326,4.456 233.68,4.456 L247.184,4.456 L218.448,97 L202.896,97 L182.672,33.768 C182.415999,32.9573293 182.149335,32.0826714 181.872,31.144 C181.594665,30.2053286 181.328001,29.202672 181.072,28.136 C180.815999,29.202672 180.549335,30.2053286 180.272,31.144 C179.994665,32.0826714 179.728001,32.9573293 179.472,33.768 L159.056,97 L143.504,97 L114.768,4.456 Z M275.008,30.312 C279.914691,30.312 284.362647,31.1013254 288.352,32.68 C292.341353,34.2586746 295.743986,36.4986522 298.56,39.4 C301.376014,42.3013478 303.551992,45.8426458 305.088,50.024 C306.624007,54.2053542 307.392,58.8773075 307.392,64.04 C307.392,69.2453594 306.624007,73.9386458 305.088,78.12 C303.551992,82.3013542 301.376014,85.8639853 298.56,88.808 C295.743986,91.7520147 292.341353,94.0133254 288.352,95.592 C284.362647,97.1706746 279.914691,97.96 275.008,97.96 C270.101309,97.96 265.642687,97.1706746 261.632,95.592 C257.621313,94.0133254 254.197347,91.7520147 251.36,88.808 C248.522652,85.8639853 246.325341,82.3013542 244.768,78.12 C243.210659,73.9386458 242.432,69.2453594 242.432,64.04 C242.432,58.8773075 243.210659,54.2053542 244.768,50.024 C246.325341,45.8426458 248.522652,42.3013478 251.36,39.4 C254.197347,36.4986522 257.621313,34.2586746 261.632,32.68 C265.642687,31.1013254 270.101309,30.312 275.008,30.312 Z M275.008,85.8 C280.46936,85.8 284.511987,83.9653517 287.136,80.296 C289.760013,76.6266483 291.072,71.2507021 291.072,64.168 C291.072,57.0852979 289.760013,51.6880186 287.136,47.976 C284.511987,44.2639814 280.46936,42.408 275.008,42.408 C269.461305,42.408 265.365346,44.274648 262.72,48.008 C260.074653,51.741352 258.752,57.1279648 258.752,64.168 C258.752,71.2080352 260.074653,76.5733149 262.72,80.264 C265.365346,83.9546851 269.461305,85.8 275.008,85.8 Z M312.944,97 L312.944,31.336 L322.224,31.336 C323.845341,31.336 324.975996,31.6346637 325.616,32.232 C326.256003,32.8293363 326.682665,33.8533261 326.896,35.304 L327.856,43.24 C330.202678,39.1866464 332.95465,35.9866784 336.112,33.64 C339.269349,31.2933216 342.810647,30.12 346.736,30.12 C349.978682,30.12 352.666656,30.8666592 354.8,32.36 L352.752,44.2 C352.623999,44.9680038 352.346668,45.5119984 351.92,45.832 C351.493331,46.1520016 350.917337,46.312 350.192,46.312 C349.551996,46.312 348.677338,46.1626682 347.568,45.864 C346.458661,45.5653318 344.986675,45.416 343.152,45.416 C339.86665,45.416 337.050678,46.3226576 334.704,48.136 C332.357321,49.9493424 330.373341,52.6053158 328.752,56.104 L328.752,97 L312.944,97 Z M374.431999,1.896 L374.431999,56.36 L377.375999,56.36 C378.442671,56.36 379.274663,56.2106682 379.871999,55.912 C380.469336,55.6133318 381.109329,55.0586707 381.791999,54.248 L398.111999,34.088 C398.837336,33.2346624 399.605329,32.5626691 400.415999,32.072 C401.22667,31.5813309 402.293326,31.336 403.615999,31.336 L418.079999,31.336 L397.663999,55.72 C396.938662,56.6160045 396.192003,57.4373296 395.423999,58.184 C394.655996,58.9306704 393.824004,59.5813306 392.927999,60.136 C393.824004,60.7760032 394.613329,61.5226624 395.295999,62.376 C395.97867,63.2293376 396.661329,64.1466618 397.343999,65.128 L419.231999,97 L404.959999,97 C403.72266,97 402.677337,96.7866688 401.823999,96.36 C400.970662,95.9333312 400.20267,95.2080051 399.519999,94.184 L382.815999,69.288 C382.175996,68.3066618 381.536003,67.6666682 380.895999,67.368 C380.255996,67.0693318 379.296006,66.92 378.015999,66.92 L374.431999,66.92 L374.431999,97 L358.623999,97 L358.623999,1.896 L374.431999,1.896 Z M422.415999,97 L422.415999,1.896 L438.223999,1.896 L438.223999,39.4 C440.826679,36.6266528 443.770649,34.4186749 447.055999,32.776 C450.341349,31.1333251 454.181311,30.312 458.575999,30.312 C462.160017,30.312 465.434651,31.0479926 468.399999,32.52 C471.365347,33.9920074 473.925322,36.1359859 476.079999,38.952 C478.234677,41.7680141 479.89866,45.2453126 481.071999,49.384 C482.245338,53.5226874 482.831999,58.2799731 482.831999,63.656 C482.831999,68.5626912 482.170673,73.1066458 480.847999,77.288 C479.525326,81.4693542 477.637345,85.0959846 475.183999,88.168 C472.730654,91.2400154 469.76535,93.6399914 466.287999,95.368 C462.810649,97.0960086 458.917354,97.96 454.607999,97.96 C452.602656,97.96 450.768008,97.7573354 449.103999,97.352 C447.439991,96.9466646 445.925339,96.381337 444.559999,95.656 C443.194659,94.930663 441.925338,94.0453386 440.751999,93 C439.57866,91.9546614 438.458671,90.7920064 437.391999,89.512 L436.687999,93.928 C436.431998,95.0373389 435.994669,95.8266643 435.375999,96.296 C434.757329,96.7653357 433.914671,97 432.847999,97 L422.415999,97 Z M453.135999,42.6 C449.850649,42.6 447.045344,43.2933264 444.719999,44.68 C442.394654,46.0666736 440.229343,48.0186541 438.223999,50.536 L438.223999,79.976 C440.016008,82.1946778 441.967989,83.741329 444.079999,84.616 C446.19201,85.490671 448.48532,85.928 450.959999,85.928 C453.349345,85.928 455.50399,85.4800045 457.423999,84.584 C459.344009,83.6879955 460.975993,82.3226758 462.319999,80.488 C463.664006,78.6533242 464.698662,76.3386806 465.423999,73.544 C466.149336,70.7493194 466.511999,67.4533523 466.511999,63.656 C466.511999,59.8159808 466.202669,56.56268 465.583999,53.896 C464.965329,51.22932 464.080005,49.0640083 462.927999,47.4 C461.775993,45.7359917 460.378674,44.5200038 458.735999,43.752 C457.093324,42.9839962 455.226676,42.6 453.135999,42.6 Z M515.519999,30.312 C519.658686,30.312 523.466648,30.9733267 526.943999,32.296 C530.42135,33.6186733 533.418653,35.5493206 535.935999,38.088 C538.453345,40.6266794 540.415992,43.7413149 541.823999,47.432 C543.232006,51.1226851 543.935999,55.3359763 543.935999,60.072 C543.935999,61.2666726 543.882666,62.2586627 543.775999,63.048 C543.669332,63.8373373 543.477334,64.4559978 543.199999,64.904 C542.922664,65.3520022 542.549335,65.671999 542.079999,65.864 C541.610663,66.056001 541.013336,66.152 540.287999,66.152 L499.711999,66.152 C500.181335,72.893367 501.99465,77.8426509 505.151999,81 C508.309348,84.1573491 512.49064,85.736 517.695999,85.736 C520.256012,85.736 522.46399,85.4373363 524.319999,84.84 C526.176008,84.2426637 527.797325,83.581337 529.183999,82.856 C530.570673,82.130663 531.78666,81.4693363 532.831999,80.872 C533.877338,80.2746637 534.890661,79.976 535.871999,79.976 C536.512002,79.976 537.066663,80.1039987 537.535999,80.36 C538.005335,80.6160013 538.410664,80.9786643 538.751999,81.448 L543.359999,87.208 C541.610657,89.2560102 539.64801,90.9733264 537.471999,92.36 C535.295988,93.7466736 533.024011,94.8559958 530.655999,95.688 C528.287987,96.5200042 525.877345,97.106665 523.423999,97.448 C520.970653,97.789335 518.592011,97.96 516.287999,97.96 C511.722643,97.96 507.477352,97.2026742 503.551999,95.688 C499.626646,94.1733258 496.213347,91.9333482 493.311999,88.968 C490.410651,86.0026518 488.128007,82.3333552 486.463999,77.96 C484.799991,73.5866448 483.967999,68.5200288 483.967999,62.76 C483.967999,58.2799776 484.693325,54.0666864 486.143999,50.12 C487.594673,46.1733136 489.674652,42.7386813 492.383999,39.816 C495.093346,36.8933187 498.39998,34.5786752 502.303999,32.872 C506.208019,31.1653248 510.613308,30.312 515.519999,30.312 Z M515.839999,41.64 C511.231976,41.64 507.626679,42.9413203 505.023999,45.544 C502.421319,48.1466797 500.757336,51.8373094 500.031999,56.616 L529.727999,56.616 C529.727999,54.5679898 529.450668,52.6373424 528.895999,50.824 C528.34133,49.0106576 527.488005,47.4213402 526.335999,46.056 C525.183993,44.6906598 523.733341,43.6133373 521.983999,42.824 C520.234657,42.0346627 518.186677,41.64 515.839999,41.64 Z M549.999999,97 L549.999999,31.336 L559.663999,31.336 C561.712009,31.336 563.055996,32.2959904 563.695999,34.216 L564.783999,39.4 C566.106672,38.0346598 567.503991,36.7973389 568.975999,35.688 C570.448006,34.5786611 572.005324,33.6186707 573.647999,32.808 C575.290674,31.9973293 577.050656,31.3786688 578.927999,30.952 C580.805342,30.5253312 582.853321,30.312 585.071999,30.312 C588.656017,30.312 591.834652,30.9199939 594.607999,32.136 C597.381346,33.3520061 599.69599,35.0586557 601.551999,37.256 C603.408008,39.4533443 604.815994,42.0773181 605.775999,45.128 C606.736004,48.1786819 607.215999,51.5386483 607.215999,55.208 L607.215999,97 L591.407999,97 L591.407999,55.208 C591.407999,51.1973133 590.480008,48.0933443 588.623999,45.896 C586.76799,43.6986557 583.984017,42.6 580.271999,42.6 C577.541319,42.6 574.981344,43.2186605 572.591999,44.456 C570.202654,45.6933395 567.941343,47.378656 565.807999,49.512 L565.807999,97 L549.999999,97 Z M662.111999,45.224 C661.642663,45.8213363 661.184001,46.290665 660.735999,46.632 C660.287996,46.973335 659.637336,47.144 658.783999,47.144 C657.973328,47.144 657.184003,46.8986691 656.415999,46.408 C655.647995,45.9173309 654.730671,45.3626698 653.663999,44.744 C652.597327,44.1253302 651.328006,43.5706691 649.855999,43.08 C648.383991,42.5893309 646.56001,42.344 644.383999,42.344 C641.610651,42.344 639.178676,42.8453283 637.087999,43.848 C634.997322,44.8506717 633.258672,46.2906573 631.871999,48.168 C630.485325,50.0453427 629.450669,52.31732 628.767999,54.984 C628.085329,57.65068 627.743999,60.6693165 627.743999,64.04 C627.743999,67.5386842 628.117328,70.6533197 628.863999,73.384 C629.610669,76.1146803 630.687992,78.4079907 632.095999,80.264 C633.504006,82.1200093 635.210655,83.5279952 637.215999,84.488 C639.221342,85.4480048 641.482653,85.928 643.999999,85.928 C646.517345,85.928 648.554658,85.6186698 650.111999,85 C651.66934,84.3813302 652.981327,83.6986704 654.047999,82.952 C655.114671,82.2053296 656.042661,81.5226698 656.831999,80.904 C657.621336,80.2853302 658.50666,79.976 659.487999,79.976 C660.768005,79.976 661.727995,80.4666618 662.367999,81.448 L666.911999,87.208 C665.162657,89.2560102 663.264009,90.9733264 661.215999,92.36 C659.167988,93.7466736 657.045343,94.8559958 654.847999,95.688 C652.650654,96.5200042 650.378677,97.106665 648.031999,97.448 C645.68532,97.789335 643.36001,97.96 641.055999,97.96 C637.002645,97.96 633.184017,97.2026742 629.599999,95.688 C626.015981,94.1733258 622.890679,91.9653478 620.223999,89.064 C617.557319,86.1626522 615.44534,82.6106877 613.887999,78.408 C612.330658,74.2053123 611.551999,69.4160269 611.551999,64.04 C611.551999,59.2186426 612.245325,54.7493539 613.631999,50.632 C615.018672,46.5146461 617.055985,42.952015 619.743999,39.944 C622.432012,36.935985 625.759979,34.5786752 629.727999,32.872 C633.696019,31.1653248 638.261306,30.312 643.423999,30.312 C648.33069,30.312 652.629314,31.1013254 656.319999,32.68 C660.010684,34.2586746 663.327984,36.5199853 666.271999,39.464 L662.111999,45.224 Z M670.223998,97 L670.223998,1.896 L686.031998,1.896 L686.031998,38.44 C688.592011,36.0079878 691.407983,34.0453408 694.479998,32.552 C697.552014,31.0586592 701.157311,30.312 705.295998,30.312 C708.880016,30.312 712.058651,30.9199939 714.831998,32.136 C717.605346,33.3520061 719.919989,35.0586557 721.775998,37.256 C723.632008,39.4533443 725.039994,42.0773181 725.999998,45.128 C726.960003,48.1786819 727.439998,51.5386483 727.439998,55.208 L727.439998,97 L711.631998,97 L711.631998,55.208 C711.631998,51.1973133 710.704008,48.0933443 708.847998,45.896 C706.991989,43.6986557 704.208017,42.6 700.495998,42.6 C697.765318,42.6 695.205344,43.2186605 692.815998,44.456 C690.426653,45.6933395 688.165342,47.378656 686.031998,49.512 L686.031998,97 L670.223998,97 Z" id="Workbench" fill="#FFFFFF"></path>
        <g id="Tables-logo">
            <g id="Path">
                <path d="M3.21909333,0 C1.28818667,0 0,1.37261065 0,3.43372397 L0,99.566276 C0,101.627389 1.28818667,103 3.21909333,103 L99.7809067,103 C101.711813,103 103,101.627389 103,99.566276 L103,3.43372397 C103,1.37261065 101.711813,0 99.7809067,0 L3.21909333,0 Z" fill="#3A3A3A"></path>
                <polygon fill="#FBAA6D" points="7.11442351 81.097694 20.7653361 81.097694 20.7653361 95.7086184 7.11442351 95.7086184"></polygon>
                <polygon fill="#E57622" points="24.1784282 81.097694 58.3064376 81.097694 58.3064376 95.7086184 24.1784282 95.7086184"></polygon>
                <polygon fill="#1DCBE0" points="61.7180737 81.097694 95.8460831 81.097694 95.8460831 95.7086184 61.7180737 95.7086184"></polygon>
                <polygon fill="#BBDEE2" points="61.7180737 62.8336488 95.8460831 62.8336488 95.8460831 77.4445733 61.7180737 77.4445733"></polygon>
                <polygon fill="#1DCBE0" points="61.7180737 44.5696036 95.8460831 44.5696036 95.8460831 59.1820866 61.7180737 59.1820866"></polygon>
                <polygon fill="#1DCBE0" points="61.7180737 26.307117 95.8460831 26.307117 95.8460831 40.9180414 61.7180737 40.9180414"></polygon>
                <polygon fill="#1DCBE0" points="7.11442351 26.307117 20.7653361 26.307117 20.7653361 40.9180414 7.11442351 40.9180414"></polygon>
                <polygon fill="#BBDEE2" points="7.11442351 63.1333221 20.7653361 63.1333221 20.7653361 77.7442466 7.11442351 77.7442466"></polygon>
                <polygon fill="#E57622" points="7.11442351 44.5696036 20.7653361 44.5696036 20.7653361 59.1820866 7.11442351 59.1820866"></polygon>
                <polygon fill="#BBDEE2" points="24.1784282 8.04307177 58.3064376 8.04307177 58.3064376 22.6539962 24.1784282 22.6539962"></polygon>
                <polygon fill="#E24F4A" points="24.1784282 62.8336488 58.3064376 62.8336488 58.3064376 77.4445733 24.1784282 77.4445733"></polygon>
                <polygon fill="#FBAA6D" points="24.1784282 44.5696036 58.3064376 44.5696036 58.3064376 59.1820866 24.1784282 59.1820866"></polygon>
                <polygon fill="#FBAA6D" points="24.1784282 26.307117 58.3064376 26.307117 58.3064376 40.9180414 24.1784282 40.9180414"></polygon>
                <polygon fill="#E24F4A" points="61.7180737 8.04307177 95.8460831 8.04307177 95.8460831 22.6539962 61.7180737 22.6539962"></polygon>
                <polygon fill="#E24F4A" points="7.11442351 8.04307177 20.7653361 8.04307177 20.7653361 22.6539962 7.11442351 22.6539962"></polygon>
            </g>
        </g>
    </g>
</svg>