<svg xmlns="http://www.w3.org/2000/svg" width="1600" height="218"><path d="M305.8 9.4h30.6c3.1 0 5.7.8 7.9 2.2 2.1 1.5 3.5 3.5 4.2 6.1l33.3 116.9a324.1 324.1 0 0 1 4.2 20.2 179.5 179.5 0 0 1 5.1-20.2l38.4-116.9a12.8 12.8 0 0 1 12-8.3h10.7c3.2 0 5.8.8 7.9 2.2 2 1.5 3.5 3.5 4.3 6.1l38.1 116.9c2 5.8 3.7 12.2 5.1 19.2a401.1 401.1 0 0 1 4.1-19.2L545 17.7c.6-2.3 2-4.2 4.1-5.9a13 13 0 0 1 7.9-2.4h28.5l-60.7 195.5H492L449.2 71.3a363.6 363.6 0 0 1-3.3-11.9 122.1 122.1 0 0 1-3.4 11.9l-43.1 133.6h-32.9zM644.3 64c10.4 0 19.8 1.7 28.2 5A60.8 60.8 0 0 1 694 83.2c6 6.2 10.6 13.6 13.8 22.5a84 84 0 0 1 4.9 29.6c0 11-1.6 20.9-4.9 29.7a63 63 0 0 1-13.8 22.6 59.9 59.9 0 0 1-21.5 14.3c-8.4 3.4-17.8 5-28.2 5a75.4 75.4 0 0 1-28.3-5 60.4 60.4 0 0 1-21.7-14.3 64.5 64.5 0 0 1-13.9-22.6 84.1 84.1 0 0 1-4.9-29.7 84 84 0 0 1 4.9-29.6 63.4 63.4 0 0 1 13.9-22.5A61.3 61.3 0 0 1 616 69c8.5-3.3 17.9-5 28.3-5zm0 117.2c11.5 0 20.1-3.8 25.6-11.6 5.6-7.7 8.3-19.1 8.3-34.1 0-14.9-2.7-26.3-8.3-34.2-5.5-7.8-14.1-11.7-25.6-11.7-11.7 0-20.4 3.9-26 11.8a58.6 58.6 0 0 0-8.4 34.1c0 14.9 2.8 26.2 8.4 34 5.6 7.8 14.3 11.7 26 11.7zm80.1 23.7V66.2H744c3.5 0 5.8.6 7.2 1.9 1.3 1.2 2.2 3.4 2.7 6.5l2 16.7a66 66 0 0 1 17.5-20.2 36.7 36.7 0 0 1 22.4-7.5c6.9 0 12.5 1.6 17 4.8l-4.3 25c-.3 1.6-.8 2.7-1.7 3.4a6 6 0 0 1-3.7 1c-1.3 0-3.2-.3-5.5-.9a39 39 0 0 0-9.4-1c-6.9 0-12.9 2-17.8 5.8-5 3.8-9.2 9.4-12.6 16.8v86.4zM854.3 4v115.1h6.2c2.3 0 4-.4 5.3-1 1.3-.6 2.6-1.8 4.1-3.5L904.3 72a24 24 0 0 1 4.9-4.3c1.7-1 4-1.5 6.8-1.5h30.5l-43.1 51.5a59.1 59.1 0 0 1-4.7 5.2 30.8 30.8 0 0 1-5.3 4.1c1.9 1.4 3.5 3 5 4.8 1.4 1.8 2.9 3.7 4.3 5.8l46.2 67.3h-30.1c-2.6 0-4.8-.5-6.6-1.4-1.8-.9-3.4-2.4-4.9-4.6L872 146.4a10.4 10.4 0 0 0-4-4.1 16 16 0 0 0-6.1-.9h-7.6v63.5h-33.4V4zm101.4 200.9V4h33.4v79.2a65.8 65.8 0 0 1 18.6-14 53.8 53.8 0 0 1 45.1-.5 46.2 46.2 0 0 1 16.2 13.6 64.4 64.4 0 0 1 10.6 22 110.7 110.7 0 0 1-.5 59 69.3 69.3 0 0 1-12 22.9 55.3 55.3 0 0 1-18.8 15.2 54.7 54.7 0 0 1-45.9.6 40.9 40.9 0 0 1-8-5.6 69.1 69.1 0 0 1-7.1-7.3l-1.5 9.3c-.5 2.3-1.4 4-2.8 5a8.6 8.6 0 0 1-5.3 1.5zM1020.6 90c-7 0-12.9 1.4-17.8 4.4-4.9 2.9-9.5 7-13.7 12.3v62.2a31.7 31.7 0 0 0 26.9 12.6c5 0 9.6-.9 13.6-2.8a27 27 0 0 0 10.4-8.7c2.8-3.9 5-8.8 6.5-14.7a84.7 84.7 0 0 0 2.3-20.8c0-8.2-.6-15-1.9-20.7a40.4 40.4 0 0 0-5.7-13.7 22.2 22.2 0 0 0-8.8-7.7 27.6 27.6 0 0 0-11.8-2.4zm131.7-26c8.8 0 16.8 1.4 24.2 4.2a52.8 52.8 0 0 1 19 12.2 57 57 0 0 1 12.4 19.8 74.6 74.6 0 0 1 4.1 33 9.9 9.9 0 0 1-1.2 3.9 4.9 4.9 0 0 1-2.4 2c-.9.4-2.2.6-3.7.6H1119c.9 14.3 4.8 24.7 11.4 31.4 6.7 6.7 15.5 10 26.5 10a46 46 0 0 0 24.3-6.1l7.7-4.2c2.2-1.2 4.4-1.9 6.4-1.9 1.4 0 2.6.3 3.5.8 1 .6 1.9 1.3 2.6 2.3l9.7 12.2a55.6 55.6 0 0 1-12.4 10.9 69.8 69.8 0 0 1-14.4 7 78.7 78.7 0 0 1-15.3 3.7c-5.1.8-10.2 1.1-15 1.1-9.7 0-18.6-1.6-26.9-4.8a60.2 60.2 0 0 1-21.7-14.2 66.6 66.6 0 0 1-14.4-23.2 90 90 0 0 1-.7-58.8 64.2 64.2 0 0 1 13.2-21.8 62.1 62.1 0 0 1 20.9-14.7 69.4 69.4 0 0 1 27.9-5.4zm.7 24c-9.7 0-17.3 2.7-22.8 8.2-5.5 5.5-9 13.3-10.6 23.4h62.8c0-4.3-.6-8.4-1.8-12.3a28.2 28.2 0 0 0-5.4-10 25.6 25.6 0 0 0-9.2-6.8c-3.7-1.7-8-2.5-13-2.5zm72.2 116.9V66.2h20.4c4.3 0 7.2 2 8.5 6.1l2.3 10.9a76.6 76.6 0 0 1 18.7-13.9 50.4 50.4 0 0 1 24.2-5.3 49 49 0 0 1 20.1 3.9 39.8 39.8 0 0 1 14.7 10.8 47.5 47.5 0 0 1 8.9 16.6 70.7 70.7 0 0 1 3 21.3v88.3h-33.4v-88.3c0-8.5-1.9-15-5.8-19.7-4-4.6-9.8-6.9-17.7-6.9-5.7 0-11.1 1.3-16.2 3.9a58.1 58.1 0 0 0-14.3 10.7v100.3zM1462 95.5c-1 1.3-2 2.3-3 3-1 .7-2.2 1.1-4 1.1-1.7 0-3.4-.5-5-1.6l-6-3.5a43.5 43.5 0 0 0-8-3.5c-3-1-7-1.6-11.5-1.6a36 36 0 0 0-15.4 3.2 29.2 29.2 0 0 0-11 9.1c-3 4-5.1 8.8-6.5 14.4a77.3 77.3 0 0 0-2.2 19.2c0 7.4.8 13.9 2.4 19.7a39.8 39.8 0 0 0 6.8 14.5 30 30 0 0 0 25 12 35.5 35.5 0 0 0 21.4-6.3l5.8-4.3a8.9 8.9 0 0 1 5.7-2c2.7 0 4.7 1.1 6 3.1l9.6 12.2a60.4 60.4 0 0 1-12 10.9 65.1 65.1 0 0 1-13.4 7 68.3 68.3 0 0 1-14.4 3.7 93 93 0 0 1-14.8 1.1c-8.5 0-16.6-1.6-24.2-4.8a56.5 56.5 0 0 1-19.8-14 67.5 67.5 0 0 1-13.4-22.5c-3.3-8.9-4.9-19-4.9-30.3 0-10.2 1.5-19.6 4.4-28.3a64.2 64.2 0 0 1 12.9-22.6 59.2 59.2 0 0 1 21-15c8.5-3.6 18-5.4 29-5.4 10.4 0 19.5 1.7 27.3 5a66.6 66.6 0 0 1 21 14.4zm17 109.4V4h33.5v77.2a70.7 70.7 0 0 1 17.9-12.4 51 51 0 0 1 22.8-4.8c7.6 0 14.3 1.3 20.2 3.9a39.8 39.8 0 0 1 14.6 10.8 47.5 47.5 0 0 1 9 16.6 70.7 70.7 0 0 1 3 21.3v88.3h-33.4v-88.3c0-8.5-2-15-6-19.7-3.8-4.6-9.7-6.9-17.5-6.9-5.8 0-11.2 1.3-16.2 3.9a58.1 58.1 0 0 0-14.4 10.7v100.3z" fill="#fff" style="stroke-width:.0999998"/><path d="M6.8 0C2.7 0 0 2.9 0 7.3v203.4c0 4.4 2.7 7.3 6.8 7.3h204.4c4.1 0 6.8-2.9 6.8-7.3V7.3c0-4.4-2.7-7.3-6.8-7.3z" fill="#3a3a3a" style="stroke-width:.0999998"/><path d="M15.1 171.6H44v31H15.1z" fill="#fbaa6d" style="stroke-width:.0999998"/><path d="M51.2 171.6h72.2v31H51.2z" fill="#e57622" style="stroke-width:.0999998"/><path d="M130.6 171.6h72.3v31h-72.3z" fill="#1dcbe0" style="stroke-width:.0999998"/><path d="M130.6 133h72.3v30.9h-72.3z" fill="#bbdee2" style="stroke-width:.0999998"/><path d="M130.6 94.3h72.3v31h-72.3zm0-38.6h72.3v30.9h-72.3zm-115.5 0H44v30.9H15.1z" fill="#1dcbe0" style="stroke-width:.0999998"/><path d="M15.1 133.6H44v31H15.1z" fill="#bbdee2" style="stroke-width:.0999998"/><path d="M15.1 94.3H44v31H15.1z" fill="#e57622" style="stroke-width:.0999998"/><path d="M51.2 17h72.2v31H51.2z" fill="#bbdee2" style="stroke-width:.0999998"/><path d="M51.2 133h72.2v30.9H51.2z" fill="#e24f4a" style="stroke-width:.0999998"/><path d="M51.2 94.3h72.2v31H51.2zm0-38.6h72.2v30.9H51.2z" fill="#fbaa6d" style="stroke-width:.0999998"/><path d="M130.6 17h72.3v31h-72.3zM15.1 17H44v31H15.1z" fill="#e24f4a" style="stroke-width:.0999998"/></svg>