<?xml version="1.0" encoding="UTF-8"?>
<svg width="187px" height="35px" viewBox="0 0 187 35" version="1.1" xmlns="http://www.w3.org/2000/svg" xmlns:xlink="http://www.w3.org/1999/xlink">
    <!-- Generator: Sketch 53.2 (72643) - https://sketchapp.com -->
    <title>Tutorial-2</title>
    <desc>Created with Sketch.</desc>
    <defs>
        <linearGradient x1="10.0508493%" y1="50%" x2="97.0195087%" y2="50%" id="linearGradient-1">
            <stop stop-color="#C5BCBC" offset="0%"></stop>
            <stop stop-color="#719BB0" offset="100%"></stop>
        </linearGradient>
    </defs>
    <g id="Tutorial-2" stroke="none" stroke-width="1" fill="none" fill-rule="evenodd">
        <rect id="Rectangle-Copy" fill="url(#linearGradient-1)" transform="translate(93.500000, 22.500000) scale(-1, 1) translate(-93.500000, -22.500000) " x="0" y="0" width="187" height="45"></rect>
        <g id="Group-2" transform="translate(35.250000, 14.000000)" fill="#FFFFFF">
            <rect id="Rectangle-3-Copy-5" x="3.2" y="0.186666667" width="1.49333333" height="7.46666667"></rect>
            <polygon id="Rectangle-3-Copy-4" transform="translate(3.946667, 3.733333) rotate(-270.000000) translate(-3.946667, -3.733333) " points="3.2 -4.59780362e-14 4.69333333 -4.59780362e-14 4.69333333 7.46666667 3.2 7.46666667"></polygon>
        </g>
        <g id="Group-2-Copy" transform="translate(78.750000, 14.000000)" fill="#FFFFFF">
            <rect id="Rectangle-3-Copy-5" x="3.2" y="0.186666667" width="1.49333333" height="7.46666667"></rect>
            <polygon id="Rectangle-3-Copy-4" transform="translate(3.946667, 3.733333) rotate(-270.000000) translate(-3.946667, -3.733333) " points="3.2 -4.57411886e-14 4.69333333 -4.57411886e-14 4.69333333 7.46666667 3.2 7.46666667"></polygon>
        </g>
        <g id="Icon-/-Edit-/-white" transform="translate(9.000000, 10.000000)">
            <rect id="Rectangle" x="0" y="0" width="16" height="16"></rect>
            <g id="Group" stroke-width="1" fill-rule="evenodd" transform="translate(0.533333, 0.533333)" fill="#FFFFFF">
                <path d="M6.92368024,0.407843137 L2.40784314,0.407843137 C1.30327364,0.407843137 0.407843137,1.30327364 0.407843137,2.40784314 L0.407843137,12.5254902 C0.407843137,13.6300597 1.30327364,14.5254902 2.40784314,14.5254902 L12.5254902,14.5254902 C13.6300597,14.5254902 14.5254902,13.6300597 14.5254902,12.5254902 L14.5254902,8.00965309 L13.4638429,8.00965309 L13.4638429,12.4638429 C13.4638429,13.0161276 13.0161276,13.4638429 12.4638429,13.4638429 L2.4745098,13.4638429 C1.92222505,13.4638429 1.4745098,13.0161276 1.4745098,12.4638429 L1.4745098,2.4745098 C1.4745098,1.92222505 1.92222505,1.4745098 2.4745098,1.4745098 L6.92368024,1.4745098 L6.92368024,0.407843137 Z" id="Path-1121"></path>
                <path d="M7.75117039,1.52277526 L7.75117039,8.58159879 L9.9231161,8.58159879 L9.9231161,1.52277526 L7.75117039,1.52277526 Z M7.75117039,9.12458522 L9.9231161,9.12458522 L8.83714324,11.2965309 L7.75117039,9.12458522 Z M7.75117039,-0.649170437 L9.9231161,-0.649170437 L9.9231161,0.979788839 L7.75117039,0.979788839 L7.75117039,-0.649170437 Z" id="Path-1121" transform="translate(8.837143, 5.323680) rotate(-315.000000) translate(-8.837143, -5.323680) "></path>
            </g>
        </g>
        <g id="Icon-/-notepad-/-white" transform="translate(97.000000, 10.000000)" fill="#FFFFFF">
            <g id="Icon-/-notepad" transform="translate(1.226667, 0.000000)">
                <path d="M13.5384615,1.04205128 L10.2215385,1.04205128 L10.2215385,0.0164102564 L8.78564103,0.0164102564 L4.75282051,0.0184615385 L3.31692308,0.0184615385 L3.31692308,1.04410256 L0,1.04410256 L0,15.8133333 L13.5384615,15.8133333 L13.5384615,1.04205128 Z M4.1374359,0.836923077 L5.57333333,0.836923077 L7.96512821,0.838974359 L9.40102564,0.838974359 L9.40102564,2.65025641 L4.1374359,2.65025641 L4.1374359,0.836923077 Z M12.7179487,14.9907692 L0.820512821,14.9907692 L0.820512821,1.8625641 L3.31692308,1.8625641 L3.31692308,3.46871795 L10.2215385,3.46871795 L10.2215385,1.8625641 L12.7179487,1.8625641 L12.7179487,14.9907692 Z" id="Shape" fill-rule="nonzero"></path>
                <polygon id="Shape" fill-rule="nonzero" points="5.92 10.014359 4.14974359 8.01025641 3.53435897 8.55179487 5.84820513 11.1733333 10.0041026 7.49128205 9.45846154 6.87589744"></polygon>
            </g>
        </g>
        <g id="Icon-/-clean-/-white" transform="translate(53.000000, 10.000000)" fill="#FFFFFF">
            <g id="noun_1581226_cc" stroke-width="1" fill-rule="evenodd" transform="translate(5.000000, 4.000000)">
                <path d="M7.56923077,5.13846154 C7.43587109,5.13846154 7.32776171,5.03035216 7.32776171,4.89699248 C7.32643106,3.74531649 6.39314505,2.81203048 5.24146906,2.81069983 C5.10810938,2.81069983 5,2.70259045 5,2.56923077 C5,2.43587109 5.10810938,2.32776171 5.24146906,2.32776171 C6.39314505,2.32643106 7.32643106,1.39314505 7.32776171,0.241469057 C7.32776171,0.108109379 7.43587109,0 7.56923077,0 C7.70259045,0 7.81069983,0.108109379 7.81069983,0.241469057 C7.81203048,1.39314505 8.74531649,2.32643106 9.89699248,2.32776171 C10.0303522,2.32776171 10.1384615,2.43587109 10.1384615,2.56923077 C10.1384615,2.70259045 10.0303522,2.81069983 9.89699248,2.81069983 C8.74531649,2.81203048 7.81203048,3.74531649 7.81069983,4.89699248 C7.81069983,4.96103406 7.78525941,5.02245266 7.73997518,5.06773689 C7.69469094,5.11302112 7.63327235,5.13846154 7.56923077,5.13846154 L7.56923077,5.13846154 Z M6.32807981,2.56923077 C6.87474116,2.31331399 7.31466665,1.87424272 7.57164546,1.32807981 C7.82801994,1.87383741 8.26703882,2.31285629 8.81279641,2.56923077 C8.26613507,2.82514755 7.82620957,3.26421882 7.56923077,3.81038172 C7.31285629,3.26462413 6.87383741,2.82560525 6.32807981,2.56923077 Z" id="Combined-Shape" fill-rule="nonzero"></path>
                <path d="M3.50000001,11 C3.3183274,11 3.17105264,10.8527252 3.17105264,10.6710526 C3.16923993,9.1021527 1.89784731,7.83076008 0.32894737,7.82894737 C0.147274754,7.82894737 0,7.68167262 0,7.5 C0,7.31832738 0.147274754,7.17105263 0.32894737,7.17105263 C1.89784731,7.16923992 3.16923993,5.8978473 3.17105264,4.32894737 C3.17105264,4.14727475 3.3183274,4 3.50000001,4 C3.68167263,4 3.82894738,4.14727475 3.82894738,4.32894737 C3.83076009,5.8978473 5.10215272,7.16923992 6.67105266,7.17105263 C6.85272526,7.17105265 7,7.3183274 7,7.5 C7,7.6816726 6.85272526,7.82894735 6.67105266,7.82894737 C5.10215272,7.83076008 3.83076009,9.1021527 3.82894738,10.6710526 C3.82894738,10.8527252 3.68167263,11 3.50000001,11 Z M3.59500415,9 L3.40499588,9 C3.04738533,8.34354931 2.48909757,7.81609351 1.80921053,7.49671053 C2.55268271,7.14745786 3.15074735,6.54939322 3.50000001,5.80592105 C3.84925268,6.54939322 4.44731732,7.14745786 5.19078949,7.49671053 C4.51090246,7.81609351 3.9526147,8.34354931 3.59500415,9 Z" id="Combined-Shape" fill-rule="nonzero"></path>
            </g>
            <path d="M4.5,9.17307692 C4.26642092,9.17307692 4.07706767,8.98372367 4.07706767,8.75014459 C4.07473704,6.73298754 2.44008939,5.09833988 0.422932331,5.09600925 C0.189353254,5.09600925 0,4.906656 0,4.67307692 C0,4.43949785 0.189353254,4.25014459 0.422932331,4.25014459 C2.44008939,4.24781396 4.07473704,2.61316631 4.07706767,0.596009254 C4.07706767,0.362430177 4.26642092,0.173076923 4.5,0.173076923 C4.73357908,0.173076923 4.92293233,0.362430177 4.92293233,0.596009254 C4.92526296,2.61316631 6.55991061,4.24781396 8.57706767,4.25014459 C8.81064675,4.25014459 9,4.43949785 9,4.67307692 C9,4.906656 8.81064675,5.09600925 8.57706767,5.09600925 C6.55991061,5.09833988 4.92526296,6.73298754 4.92293233,8.75014459 C4.92293233,8.98372367 4.73357908,9.17307692 4.5,9.17307692 Z M2.3218985,4.67307692 C3.27779129,4.22403778 4.04673154,3.45509753 4.49577068,2.49920474 C4.94480982,3.45509753 5.71375007,4.22403778 6.66964286,4.67307692 C5.71375007,5.12211606 4.94480982,5.89105631 4.49577068,6.8469491 C4.04673154,5.89105631 3.27779129,5.12211606 2.3218985,4.67307692 Z" id="Combined-Shape" fill-rule="nonzero"></path>
        </g>
    </g>
</svg>