<!-- Generated by IcoMoon.io -->
<svg version="1.1" xmlns="http://www.w3.org/2000/svg" width="28" height="32" viewBox="0 0 28 32">
<title>census</title>
<path d="M9.632 3.448c0 1.784-1.377 3.23-3.076 3.23s-3.076-1.446-3.076-3.23c0-1.784 1.377-3.23 3.076-3.23s3.076 1.446 3.076 3.23z"></path>
<path d="M11.103 9.907c-0.446-1.498-1.783-2.481-3.254-2.481h-2.586c-1.471 0-2.809 0.983-3.254 2.481l-1.917 6.273c-0.223 0.749 0.178 1.545 0.892 1.826 0.134 0.047 0.312 0.047 0.446 0.047 0.58 0 1.115-0.375 1.293-0.983l1.248-4.026-0.268 4.634-1.739 12.545c-0.134 0.936 0.49 1.779 1.337 1.872 0.089 0 0.134 0 0.223 0 0.758 0 1.471-0.609 1.56-1.451l1.471-10.72 1.471 10.766c0.134 0.843 0.802 1.451 1.56 1.451 0.089 0 0.134 0 0.223 0 0.892-0.14 1.471-0.983 1.337-1.872l-1.694-12.545-0.268-4.681 1.248 4.026c0.223 0.749 0.981 1.17 1.739 0.936 0.713-0.234 1.115-1.030 0.892-1.826l-1.962-6.273z"></path>
<path d="M24.299 3.448c0 1.784-1.377 3.23-3.076 3.23s-3.076-1.446-3.076-3.23c0-1.784 1.377-3.23 3.076-3.23s3.076 1.446 3.076 3.23z"></path>
<path d="M25.77 9.907c-0.446-1.498-1.783-2.481-3.254-2.481h-2.586c-1.471 0-2.809 0.983-3.254 2.481l-1.917 6.273c-0.223 0.749 0.178 1.545 0.892 1.826 0.713 0.234 1.471-0.187 1.739-0.936l1.248-4.026-0.267 4.634-1.739 12.545c-0.134 0.936 0.49 1.779 1.337 1.872 0.089 0 0.134 0 0.223 0 0.758 0 1.471-0.609 1.56-1.451l1.471-10.673 1.471 10.72c0.134 0.843 0.802 1.451 1.56 1.451 0.089 0 0.134 0 0.223 0 0.892-0.14 1.471-0.983 1.337-1.872l-1.694-12.545-0.267-4.634 1.248 4.026c0.178 0.609 0.713 0.983 1.293 0.983 0.134 0 0.267 0 0.401-0.047 0.713-0.234 1.115-1.030 0.892-1.826l-1.917-6.319z"></path>
</svg>
