<!-- Generated by IcoMoon.io -->
<svg version="1.1" xmlns="http://www.w3.org/2000/svg" width="37" height="32" viewBox="0 0 37 32">
<title>clean</title>
<path fill="#686768" d="M29.625 19.536c-0.317 0-0.573-0.233-0.573-0.521-0.003-2.486-2.219-4.5-4.953-4.503-0.317 0-0.573-0.233-0.573-0.521s0.257-0.521 0.573-0.521c2.734-0.003 4.95-2.017 4.953-4.503 0-0.288 0.257-0.521 0.573-0.521s0.573 0.233 0.573 0.521c0.003 2.486 2.219 4.5 4.953 4.503 0.317 0 0.573 0.233 0.573 0.521s-0.257 0.521-0.573 0.521c-2.734 0.003-4.95 2.017-4.953 4.503 0 0.138-0.060 0.271-0.168 0.369s-0.253 0.153-0.405 0.153v0z"></path>
<path fill="#686768" d="M19.965 32.187c-0.431 0-0.781-0.318-0.781-0.71-0.004-3.386-3.023-6.13-6.747-6.134-0.431 0-0.781-0.318-0.781-0.71s0.35-0.71 0.781-0.71c3.725-0.004 6.743-2.748 6.747-6.134 0-0.392 0.35-0.71 0.781-0.71s0.781 0.318 0.781 0.71c0.004 3.386 3.023 6.13 6.747 6.134 0.431 0 0.781 0.318 0.781 0.71s-0.35 0.71-0.781 0.71c-3.725 0.004-6.743 2.748-6.747 6.134 0 0.392-0.35 0.71-0.781 0.71z"></path>
<path fill="#686768" d="M10.468 19.611c-0.555 0-1.004-0.409-1.004-0.913-0.006-4.354-3.886-7.881-8.675-7.886-0.555 0-1.004-0.409-1.004-0.913s0.45-0.913 1.004-0.913c4.789-0.005 8.67-3.533 8.675-7.886 0-0.504 0.45-0.913 1.004-0.913s1.004 0.409 1.004 0.913c0.006 4.354 3.886 7.881 8.675 7.886 0.555 0 1.004 0.409 1.004 0.913s-0.45 0.913-1.004 0.913c-4.789 0.005-8.67 3.533-8.675 7.886 0 0.504-0.45 0.913-1.004 0.913z"></path>
</svg>
