<!-- Generated by IcoMoon.io -->
<svg version="1.1" xmlns="http://www.w3.org/2000/svg" width="32" height="32" viewBox="0 0 32 32">
<title>edit</title>
<path fill="#686768" d="M14.914 1.882h-8.765c-2.356 0-4.267 1.91-4.267 4.267v19.702c0 2.356 1.91 4.267 4.267 4.267h19.702c2.356 0 4.267-1.91 4.267-4.267v-8.765h-2.123v8.775c0 1.178-0.955 2.133-2.133 2.133h-19.712c-1.178 0-2.133-0.955-2.133-2.133v-19.712c0-1.178 0.955-2.133 2.133-2.133h8.765v-2.133z"></path>
<path fill="#686768" d="M22.58 4.803l-9.983 9.983 3.072 3.072 9.983-9.983-3.072-3.072zM11.83 15.554l3.072 3.072-4.607 1.536 1.536-4.607zM25.652 1.731l3.072 3.072-2.304 2.304-3.072-3.072 2.304-2.304z"></path>
</svg>
