<!-- Generated by IcoMoon.io -->
<svg version="1.1" xmlns="http://www.w3.org/2000/svg" width="40" height="32" viewBox="0 0 40 32">
<title>meedan</title>
<path fill="#9b9797" d="M20.073 10.944l-6.334 4.579 6.334 4.578 6.334-4.578-6.334-4.579z"></path>
<path fill="#9b9797" d="M7.869 2.121c0.92 0.701 1.459 1.792 1.458 2.948v7.264l4.413 3.19 6.334-4.579-12.204-8.823z"></path>
<path fill="#9b9797" d="M7.869 28.924c0.92-0.701 1.459-1.792 1.458-2.948v-7.264l4.413-3.189 6.334 4.578-12.204 8.823z"></path>
<path fill="#9b9797" d="M7.869 2.121l-0.182-0.131c-0.612-0.413-1.333-0.633-2.071-0.631-2.049 0-3.711 1.662-3.711 3.711 0 1.243 0.612 2.342 1.55 3.016v0.003l5.872 4.245v-7.264c0-1.202-0.572-2.27-1.458-2.948z"></path>
<path fill="#9b9797" d="M9.327 25.976v-7.264l-5.872 4.248c-0.973 0.696-1.55 1.819-1.55 3.015 0 2.049 1.661 3.711 3.711 3.711 0.738 0.001 1.459-0.219 2.071-0.631l0.182-0.131c0.92-0.701 1.459-1.792 1.458-2.948z"></path>
<path fill="#9b9797" d="M3.455 8.085c-0.973-0.696-1.55-1.819-1.55-3.016v20.901c0-1.243 0.612-2.342 1.55-3.016l5.872-4.248v-6.374l-5.872-4.248z"></path>
<path fill="#9b9797" d="M32.277 2.121c-0.92 0.701-1.459 1.792-1.458 2.948v7.264l-4.413 3.19-6.334-4.579 12.204-8.823z"></path>
<path fill="#9b9797" d="M32.277 28.924c-0.92-0.701-1.459-1.792-1.458-2.948v-7.264l-4.413-3.189-6.334 4.578 12.204 8.823z"></path>
<path fill="#9b9797" d="M30.82 5.069v7.264l5.872-4.248c0.973-0.696 1.55-1.819 1.55-3.015 0-2.049-1.661-3.711-3.711-3.711-0.738-0.001-1.459 0.219-2.071 0.631l-0.182 0.131c-0.92 0.701-1.459 1.792-1.458 2.948z"></path>
<path fill="#9b9797" d="M32.277 28.924l0.182 0.131c0.612 0.412 1.333 0.632 2.071 0.631 2.049 0 3.711-1.662 3.711-3.711 0-1.243-0.612-2.342-1.55-3.015v-0.003l-5.872-4.245v7.264c0 1.202 0.572 2.27 1.458 2.948z"></path>
<path fill="#9b9797" d="M36.691 8.085c0.973-0.696 1.55-1.819 1.55-3.016v20.901c0-1.243-0.612-2.342-1.55-3.016l-5.872-4.248v-6.374l5.872-4.248z"></path>
</svg>
