<!-- Generated by IcoMoon.io -->
<svg version="1.1" xmlns="http://www.w3.org/2000/svg" width="32" height="32" viewBox="0 0 32 32">
<title>report</title>
<path fill="#686768" d="M29.704 1.905v29.922h-27.425v-29.918h6.719v-2.078l13.987-0.004v2.078h6.719zM10.66 1.49v3.673h10.663v-3.669l-10.662-0.004zM3.941 30.161h24.101v-26.594h-5.057v3.254h-13.987v-3.254h-5.057v26.594z"></path>
<path fill="#686768" d="M16.753 13.835h2.259v8.787h-2.259v-8.787z"></path>
<path fill="#686768" d="M20.518 12.249h2.259v10.637h-2.259v-10.637z"></path>
<path fill="#686768" d="M9.223 24.53h13.554v1.387h-13.554v-1.387z"></path>
<path fill="#686768" d="M9.223 15.319h2.259v7.4h-2.259v-7.4z"></path>
<path fill="#686768" d="M12.988 16.61h2.259v6.012h-2.259v-6.012z"></path>
</svg>
