<!-- Generated by IcoMoon.io -->
<svg version="1.1" xmlns="http://www.w3.org/2000/svg" width="32" height="32" viewBox="0 0 32 32">
<title>scraper</title>
<path fill="#686768" d="M27.429 25.143c-1.26 0-2.286 1.025-2.286 2.286s1.025 2.286 2.286 2.286c1.26 0 2.286-1.025 2.286-2.286s-1.025-2.286-2.286-2.286zM27.429 28.571c-0.631 0-1.143-0.512-1.143-1.143s0.512-1.143 1.143-1.143c0.631 0 1.143 0.512 1.143 1.143s-0.512 1.143-1.143 1.143z"></path>
<path fill="#686768" d="M30.718 24.531c-0.032-0.032-0.066-0.062-0.101-0.090-0.233-0.186-9.41-7.559-11.281-9.062-0.356-1.849-2.057-8.858-8.243-15.044-0.223-0.223-0.516-0.335-0.808-0.335s-0.585 0.112-0.808 0.335l-9.143 9.143c-0.446 0.446-0.446 1.17 0 1.616 6.186 6.186 13.194 7.887 15.044 8.243l9.069 11.289c0.026 0.032 0.054 0.063 0.083 0.092 0.826 0.826 1.925 1.282 3.094 1.282s2.268-0.455 3.094-1.282c1.706-1.706 1.706-4.482 0-6.188zM1.143 10.286l9.143-9.143c6.857 6.857 8 14.857 8 14.857l-2.286 2.286c0 0-8-1.143-14.857-8zM29.91 29.91c-0.631 0.631-1.459 0.947-2.286 0.947s-1.655-0.316-2.286-0.947l-8.634-10.747c0.033-0.026 0.073-0.039 0.103-0.069l2.286-2.286c0.030-0.030 0.039-0.073 0.066-0.106 2.692 2.163 10.75 8.637 10.751 8.637 1.262 1.262 1.262 3.309 0 4.572z"></path>
</svg>
