<!-- Generated by IcoMoon.io -->
<svg version="1.1" xmlns="http://www.w3.org/2000/svg" width="32" height="32" viewBox="0 0 32 32">
<title>star</title>
<path fill="#686768" d="M15.942 1.014c1.047 0 1.975 0.653 2.3 1.617l2.664 7.925h8.619c1.047 0 1.975 0.653 2.3 1.617 0.325 0.963-0.031 2.020-0.878 2.615l-6.974 4.898 2.664 7.925c0.325 0.963-0.031 2.018-0.878 2.615-0.425 0.298-0.925 0.447-1.422 0.447-0.5 0-1-0.149-1.422-0.447l-6.972-4.899-6.972 4.899c-0.422 0.298-0.922 0.447-1.422 0.447-0.497 0-0.997-0.149-1.422-0.447-0.847-0.595-1.203-1.652-0.878-2.615l2.664-7.925-6.972-4.9c-0.847-0.596-1.203-1.652-0.878-2.615 0.322-0.965 1.253-1.617 2.3-1.617h8.616l2.664-7.924c0.322-0.964 1.253-1.617 2.3-1.617zM19.512 12.617l-2.833-8.436c-0.378-1.124-0.98-1.113-1.354-0l-2.836 8.435h-9.222c-1.168 0-1.353 0.551-0.386 1.23l7.44 5.229-2.834 8.435c-0.378 1.124 0.107 1.464 1.074 0.784l7.442-5.23 7.442 5.23c0.967 0.68 1.447 0.328 1.073-0.784l-2.836-8.435 7.444-5.228c0.967-0.679 0.794-1.23-0.386-1.23h-9.227z"></path>
</svg>
