<!-- Generated by IcoMoon.io -->
<svg version="1.1" xmlns="http://www.w3.org/2000/svg" width="32" height="32" viewBox="0 0 32 32">
<title>table</title>
<path fill="#686768" d="M1-0.040c-0.6 0-1 0.426-1 1.067v29.866c0 0.64 0.4 1.067 1 1.067h30c0.6 0 1-0.426 1-1.067v-29.866c0-0.64-0.4-1.067-1-1.067h-30zM1.949 2.021h4.323v4.612h-4.323v-4.612zM7.353 2.021h10.808v4.612h-10.808v-4.612zM19.242 2.021h10.808v4.612h-10.808v-4.612zM1.949 7.785h4.323v4.612h-4.323v-4.612zM7.353 7.785h10.808v4.612h-10.808v-4.612zM19.242 7.785h10.808v4.612h-10.808v-4.612zM1.949 13.549h4.323v4.612h-4.323v-4.612zM7.353 13.549h10.808v4.612h-10.808v-4.612zM19.242 13.549h10.808v4.612h-10.808v-4.612zM1.949 19.314h4.323v4.611h-4.323v-4.611zM7.353 19.314h10.808v4.611h-10.808v-4.611zM19.242 19.314h10.808v4.611h-10.808v-4.611zM1.949 25.078h4.323v4.612h-4.323v-4.612zM7.353 25.078h10.808v4.612h-10.808v-4.612zM19.242 25.078h10.808v4.612h-10.808v-4.612z"></path>
</svg>
