<!-- Generated by IcoMoon.io -->
<svg version="1.1" xmlns="http://www.w3.org/2000/svg" width="32" height="32" viewBox="0 0 32 32">
<title>wrangle</title>
<path fill="#4a4a4a" d="M31.214 15.238h-5.737c-0.363-2.106-2.198-3.714-4.406-3.714s-4.043 1.608-4.406 3.714h-15.879c-0.421 0-0.762 0.341-0.762 0.762s0.341 0.762 0.762 0.762h15.88c0.363 2.106 2.198 3.714 4.406 3.714s4.043-1.608 4.406-3.714h5.737c0.421 0 0.762-0.341 0.762-0.762s-0.341-0.762-0.762-0.762zM21.072 18.952c-1.628 0-2.952-1.325-2.952-2.952s1.325-2.952 2.952-2.952c1.628 0 2.952 1.325 2.952 2.952s-1.325 2.952-2.952 2.952zM31.214 26.667h-15.88c-0.363-2.106-2.198-3.714-4.406-3.714s-4.043 1.608-4.406 3.714h-5.736c-0.421 0-0.762 0.341-0.762 0.762s0.341 0.762 0.762 0.762h5.737c0.363 2.106 2.198 3.714 4.406 3.714s4.043-1.608 4.406-3.714h15.88c0.421 0 0.762-0.341 0.762-0.762s-0.341-0.762-0.762-0.762zM10.929 30.381c-1.628 0-2.952-1.325-2.952-2.952s1.325-2.952 2.952-2.952c1.628 0 2.952 1.325 2.952 2.952s-1.325 2.952-2.952 2.952zM0.786 5.333h5.737c0.363 2.106 2.198 3.714 4.406 3.714s4.043-1.608 4.406-3.714h15.88c0.421 0 0.762-0.341 0.762-0.762s-0.341-0.762-0.762-0.762h-15.88c-0.363-2.106-2.198-3.714-4.406-3.714s-4.043 1.608-4.406 3.714h-5.736c-0.421 0-0.762 0.341-0.762 0.762s0.341 0.762 0.762 0.762zM10.929 1.619c1.628 0 2.952 1.325 2.952 2.952s-1.325 2.952-2.952 2.952c-1.628 0-2.952-1.325-2.952-2.952s1.324-2.952 2.952-2.952z"></path>
</svg>
