<?xml version="1.0" encoding="UTF-8"?>
<svg width="187px" height="45px" viewBox="0 0 187 45" version="1.1" xmlns="http://www.w3.org/2000/svg" xmlns:xlink="http://www.w3.org/1999/xlink">
    <!-- Generator: Sketch 50.2 (55047) - http://www.bohemiancoding.com/sketch -->
    <title>Group 9</title>
    <desc>Created with Sketch.</desc>
    <defs>
        <linearGradient x1="10.0508493%" y1="50%" x2="97.0195087%" y2="50%" id="linearGradient-1">
            <stop stop-color="#C5BCBC" offset="0%"></stop>
            <stop stop-color="#719BB0" offset="100%"></stop>
        </linearGradient>
    </defs>
    <g id="Web" stroke="none" stroke-width="1" fill="none" fill-rule="evenodd">
        <g id="background-image-copy-3" transform="translate(-363.000000, -439.000000)">
            <g id="Group-3" transform="translate(363.000000, 100.000000)">
                <g id="Group-8-Copy-2">
                    <g id="Group-9" transform="translate(0.000000, 339.000000)">
                        <rect id="Rectangle-Copy" fill="url(#linearGradient-1)" transform="translate(93.500000, 22.500000) scale(-1, 1) translate(-93.500000, -22.500000) " x="0" y="0" width="187" height="45"></rect>
                        <g id="Icon-/-Edit-/-white" transform="translate(15.000000, 14.000000)">
                            <rect id="Rectangle" x="0" y="0" width="17" height="17"></rect>
                            <g id="Group" stroke-width="1" fill-rule="evenodd" transform="translate(0.566667, 0.566667)" fill="#FFFFFF">
                                <path d="M7.35641026,0.433333333 L2.43333333,0.433333333 C1.32876383,0.433333333 0.433333333,1.32876383 0.433333333,2.43333333 L0.433333333,13.4333333 C0.433333333,14.5379028 1.32876383,15.4333333 2.43333333,15.4333333 L13.4333333,15.4333333 C14.5379028,15.4333333 15.4333333,14.5379028 15.4333333,13.4333333 L15.4333333,8.51025641 L14.3053331,8.51025641 L14.3053331,13.3053331 C14.3053331,13.8576178 13.8576178,14.3053331 13.3053331,14.3053331 L2.56666667,14.3053331 C2.01438192,14.3053331 1.56666667,13.8576178 1.56666667,13.3053331 L1.56666667,2.56666667 C1.56666667,2.01438192 2.01438192,1.56666667 2.56666667,1.56666667 L7.35641026,1.56666667 L7.35641026,0.433333333 Z" id="Path-1121"></path>
                                <path d="M8.23561854,1.61794872 L8.23561854,9.11794872 L10.5433109,9.11794872 L10.5433109,1.61794872 L8.23561854,1.61794872 Z M8.23561854,9.69487179 L10.5433109,9.69487179 L9.3894647,12.0025641 L8.23561854,9.69487179 Z M8.23561854,-0.68974359 L10.5433109,-0.68974359 L10.5433109,1.04102564 L8.23561854,1.04102564 L8.23561854,-0.68974359 Z" id="Path-1121" transform="translate(9.389465, 5.656410) rotate(-315.000000) translate(-9.389465, -5.656410) "></path>
                            </g>
                        </g>
                        <g id="Icon-/-Filter-/-white" transform="translate(66.000000, 15.000000)" fill="#FFFFFF">
                            <rect id="Rectangle" x="1" y="1.5" width="13" height="1.5"></rect>
                            <rect id="Rectangle-Copy" x="3.5" y="6.75" width="8" height="1.5"></rect>
                            <rect id="Rectangle-Copy-2" x="6" y="11.75" width="3" height="1.5"></rect>
                        </g>
                        <g id="Icon-/-notepad-/-white" transform="translate(115.000000, 14.000000)" fill="#FFFFFF">
                            <g id="Icon-/-notepad" transform="translate(1.226667, 0.000000)">
                                <path d="M13.5384615,1.04205128 L10.2215385,1.04205128 L10.2215385,0.0164102564 L8.78564103,0.0164102564 L4.75282051,0.0184615385 L3.31692308,0.0184615385 L3.31692308,1.04410256 L0,1.04410256 L0,15.8133333 L13.5384615,15.8133333 L13.5384615,1.04205128 Z M4.1374359,0.836923077 L5.57333333,0.836923077 L7.96512821,0.838974359 L9.40102564,0.838974359 L9.40102564,2.65025641 L4.1374359,2.65025641 L4.1374359,0.836923077 Z M12.7179487,14.9907692 L0.820512821,14.9907692 L0.820512821,1.8625641 L3.31692308,1.8625641 L3.31692308,3.46871795 L10.2215385,3.46871795 L10.2215385,1.8625641 L12.7179487,1.8625641 L12.7179487,14.9907692 Z" id="Shape" fill-rule="nonzero"></path>
                                <polygon id="Shape" fill-rule="nonzero" points="5.92 10.014359 4.14974359 8.01025641 3.53435897 8.55179487 5.84820513 11.1733333 10.0041026 7.49128205 9.45846154 6.87589744"></polygon>
                            </g>
                        </g>
                        <g id="Group-Copy-3" transform="translate(42.000000, 15.000000)" fill="#FFFFFF">
                            <g id="Group-16">
                                <g id="Group-12">
                                    <rect id="Rectangle-3" x="5.6" y="0" width="2.8" height="14"></rect>
                                    <rect id="Rectangle-3-Copy" transform="translate(7.000000, 6.650000) rotate(-270.000000) translate(-7.000000, -6.650000) " x="5.6" y="-0.35" width="2.8" height="14"></rect>
                                </g>
                            </g>
                            <g id="Group-13" transform="translate(49.000000, 0.000000)">
                                <g id="Group-14">
                                    <rect id="Rectangle-3-Copy-3" x="5.6" y="0" width="2.8" height="14"></rect>
                                    <rect id="Rectangle-3-Copy-2" transform="translate(7.000000, 6.650000) rotate(-270.000000) translate(-7.000000, -6.650000) " x="5.6" y="-0.35" width="2.8" height="14"></rect>
                                </g>
                            </g>
                        </g>
                    </g>
                </g>
            </g>
        </g>
    </g>
</svg>