<?xml version="1.0" encoding="UTF-8"?>
<svg width="187px" height="45px" viewBox="0 0 187 45" version="1.1" xmlns="http://www.w3.org/2000/svg" xmlns:xlink="http://www.w3.org/1999/xlink">
    <!-- Generator: Sketch 50.2 (55047) - http://www.bohemiancoding.com/sketch -->
    <title>Group 17</title>
    <desc>Created with Sketch.</desc>
    <defs>
        <linearGradient x1="0%" y1="50%" x2="97.0195087%" y2="50%" id="linearGradient-1">
            <stop stop-color="#FFAAD2" offset="0%"></stop>
            <stop stop-color="#E24F4A" offset="100%"></stop>
        </linearGradient>
    </defs>
    <g id="Web" stroke="none" stroke-width="1" fill="none" fill-rule="evenodd">
        <g id="background-image-copy-3" transform="translate(-1003.000000, -439.000000)">
            <g id="Group-3" transform="translate(363.000000, 100.000000)">
                <g id="Group-8-Copy-2">
                    <g id="Group-10" transform="translate(208.000000, 329.000000)">
                        <g id="Group-17" transform="translate(432.000000, 10.000000)">
                            <rect id="Rectangle-Copy-3" fill="url(#linearGradient-1)" x="0" y="0" width="187" height="45"></rect>
                            <rect id="Rectangle-3-Copy-11" fill="#FFFFFF" x="49.6" y="16" width="2.8" height="14"></rect>
                            <rect id="Rectangle-3-Copy-10" fill="#FFFFFF" transform="translate(51.000000, 22.650000) rotate(-270.000000) translate(-51.000000, -22.650000) " x="49.6" y="15.65" width="2.8" height="14"></rect>
                            <g id="Icon-/-notification-/-white" transform="translate(69.000000, 14.000000)" fill="#FFFFFF">
                                <path d="M15.6857692,7.0848138 C15.6857692,4.23049872 13.8316735,0.3 8.99999993,0.3 C4.16832632,0.3 2.31423083,4.23074289 2.31423083,7.08505797 L2.31423083,9.94743056 L0.808074516,11.4917884 C0.674574298,11.628522 0.6,11.8118916 0.6,12.0028304 L0.6,14.1832439 C0.6,14.5751323 0.918102169,14.8925497 1.31028962,14.8925497 L6.04905836,14.8925497 C6.05272595,16.4598593 7.43002765,17.8333 9,17.8333 C10.5699723,17.8333 11.9472741,16.4598593 11.9509416,14.8925497 L16.6897104,14.8925497 C17.0821423,14.8925497 17.4,14.5748882 17.4,14.1832439 L17.4,12.0028304 C17.4,11.8118916 17.3254257,11.628522 17.1919255,11.4917884 L15.6857692,9.9471864 L15.6857692,7.0848138 Z M9,16.4144442 C8.16061126,16.4144442 7.47379421,15.624319 7.46988211,14.8923056 L10.5303624,14.8923056 C10.5262058,15.624319 9.83938874,16.4144442 9,16.4144442 L9,16.4144442 Z M2.02082375,13.4736939 L2.02082375,12.2814252 L3.73505458,10.5239094 L3.73505458,7.0848138 C3.73505458,4.49883852 5.47205671,1.65886167 9.03991617,1.65886167 C12.6077756,1.65886167 14.2651899,4.49883852 14.2651899,7.0848138 L14.2651899,10.5239094 L15.9794208,12.2814252 L15.9794208,13.4736939 L2.02082375,13.4736939 Z" id="Alert-Icon"></path>
                            </g>
                            <g id="Icon-/-Spreadsheet-/-white" transform="translate(14.000000, 14.000000)" fill="#FFFFFF">
                                <g id="Spreadsheet" transform="translate(-0.000000, -0.022482)">
                                    <path d="M0.56256,2.27373675e-12 C0.22512,2.27373675e-12 4.54747351e-13,0.239873706 4.54747351e-13,0.600068267 L4.54747351e-13,17.3999317 C4.54747351e-13,17.7601263 0.22512,18 0.56256,18 L17.43744,18 C17.77488,18 18,17.7601263 18,17.3999317 L18,0.600068267 C18,0.239873706 17.77488,2.27373675e-12 17.43744,2.27373675e-12 L0.56256,2.27373675e-12 Z M1.09648898,1.15902585 L3.52831857,1.15902585 L3.52831857,3.75299586 L1.09648898,3.75299586 L1.09648898,1.15902585 Z M4.13634082,1.15902585 L10.2160445,1.15902585 L10.2160445,3.75299586 L4.13634082,3.75299586 L4.13634082,1.15902585 Z M10.8238073,1.15902585 L16.903511,1.15902585 L16.903511,3.75299586 L10.8238073,3.75299586 L10.8238073,1.15902585 Z M1.09648898,4.40155753 L3.52831857,4.40155753 L3.52831857,6.99552754 L1.09648898,6.99552754 L1.09648898,4.40155753 Z M4.13634082,4.40155753 L10.2160445,4.40155753 L10.2160445,6.99552754 L4.13634082,6.99552754 L4.13634082,4.40155753 Z M10.8238073,4.40155753 L16.903511,4.40155753 L16.903511,6.99552754 L10.8238073,6.99552754 L10.8238073,4.40155753 Z M1.09648898,7.64381252 L3.52831857,7.64381252 L3.52831857,10.2380592 L1.09648898,10.2380592 L1.09648898,7.64381252 Z M4.13634082,7.64381252 L10.2160445,7.64381252 L10.2160445,10.2380592 L4.13634082,10.2380592 L4.13634082,7.64381252 Z M10.8238073,7.64381252 L16.903511,7.64381252 L16.903511,10.2380592 L10.8238073,10.2380592 L10.8238073,7.64381252 Z M1.09648898,10.8863442 L3.52831857,10.8863442 L3.52831857,13.4803142 L1.09648898,13.4803142 L1.09648898,10.8863442 Z M4.13634082,10.8863442 L10.2160445,10.8863442 L10.2160445,13.4803142 L4.13634082,13.4803142 L4.13634082,10.8863442 Z M10.8238073,10.8863442 L16.903511,10.8863442 L16.903511,13.4803142 L10.8238073,13.4803142 L10.8238073,10.8863442 Z M1.09648898,14.1288759 L3.52831857,14.1288759 L3.52831857,16.7228459 L1.09648898,16.7228459 L1.09648898,14.1288759 Z M4.13634082,14.1288759 L10.2160445,14.1288759 L10.2160445,16.7228459 L4.13634082,16.7228459 L4.13634082,14.1288759 Z M10.8238073,14.1288759 L16.903511,14.1288759 L16.903511,16.7228459 L10.8238073,16.7228459 L10.8238073,14.1288759 Z"></path>
                                </g>
                            </g>
                        </g>
                    </g>
                </g>
            </g>
        </g>
    </g>
</svg>