<?xml version="1.0" encoding="UTF-8"?>
<svg width="187px" height="65px" viewBox="0 0 187 65" version="1.1" xmlns="http://www.w3.org/2000/svg" xmlns:xlink="http://www.w3.org/1999/xlink">
    <!-- Generator: Sketch 50.2 (55047) - http://www.bohemiancoding.com/sketch -->
    <title>Group 8</title>
    <desc>Created with Sketch.</desc>
    <defs>
        <linearGradient x1="31.1819672%" y1="50%" x2="119.702609%" y2="50%" id="linearGradient-1">
            <stop stop-color="#7DD9E4" offset="0%"></stop>
            <stop stop-color="#0C93C0" offset="100%"></stop>
        </linearGradient>
    </defs>
    <g id="Web" stroke="none" stroke-width="1" fill="none" fill-rule="evenodd">
        <g id="background-image-copy-2" transform="translate(-573.000000, -228.000000)">
            <g id="Group-3" transform="translate(363.000000, 100.000000)">
                <g id="Group-8" transform="translate(210.000000, 128.000000)">
                    <rect id="Rectangle-Copy" fill="url(#linearGradient-1)" x="0" y="0" width="187" height="65"></rect>
                    <g id="Group-7" transform="translate(20.000000, 16.000000)" fill="#FFFFFF">
                        <g id="Icon-/-Chart-/-white" transform="translate(63.000000, 0.000000)">
                            <g id="Group-2" transform="translate(1.866667, 2.133333)">
                                <g id="Group" transform="translate(1.080702, 1.235088)">
                                    <rect id="Rectangle-path" x="12.2807018" y="2.8995949" width="3.68421053" height="16.0668079"></rect>
                                    <rect id="Rectangle-path" x="18.4210526" y="0" width="3.68421053" height="19.4492938"></rect>
                                    <rect id="Rectangle-path" x="0" y="22.4561404" width="22.1052632" height="2.53686441"></rect>
                                    <rect id="Rectangle-path" x="0" y="5.61403509" width="3.68421053" height="13.5299435"></rect>
                                    <rect id="Rectangle-path" x="6.14035088" y="7.97332372" width="3.68421053" height="10.9930791"></rect>
                                </g>
                            </g>
                        </g>
                        <g id="Icon-/-Spreadsheet-/-white" transform="translate(0.000000, 4.000000)">
                            <g id="Spreadsheet" transform="translate(-0.000000, -0.031226)">
                                <path d="M0.781333333,2.27373675e-12 C0.312666667,2.27373675e-12 4.54747351e-13,0.333157925 4.54747351e-13,0.833428149 L4.54747351e-13,24.1665719 C4.54747351e-13,24.6668421 0.312666667,25 0.781333333,25 L24.2186667,25 C24.6873333,25 25,24.6668421 25,24.1665719 L25,0.833428149 C25,0.333157925 24.6873333,2.27373675e-12 24.2186667,2.27373675e-12 L0.781333333,2.27373675e-12 Z M1.52290137,1.60975812 L4.90044246,1.60975812 L4.90044246,5.21249424 L1.52290137,5.21249424 L1.52290137,1.60975812 Z M5.74491781,1.60975812 L14.1889507,1.60975812 L14.1889507,5.21249424 L5.74491781,5.21249424 L5.74491781,1.60975812 Z M15.0330658,1.60975812 L23.4770986,1.60975812 L23.4770986,5.21249424 L15.0330658,5.21249424 L15.0330658,1.60975812 Z M1.52290137,6.11327435 L4.90044246,6.11327435 L4.90044246,9.71601047 L1.52290137,9.71601047 L1.52290137,6.11327435 Z M5.74491781,6.11327435 L14.1889507,6.11327435 L14.1889507,9.71601047 L5.74491781,9.71601047 L5.74491781,6.11327435 Z M15.0330658,6.11327435 L23.4770986,6.11327435 L23.4770986,9.71601047 L15.0330658,9.71601047 L15.0330658,6.11327435 Z M1.52290137,10.6164063 L4.90044246,10.6164063 L4.90044246,14.2195267 L1.52290137,14.2195267 L1.52290137,10.6164063 Z M5.74491781,10.6164063 L14.1889507,10.6164063 L14.1889507,14.2195267 L5.74491781,14.2195267 L5.74491781,10.6164063 Z M15.0330658,10.6164063 L23.4770986,10.6164063 L23.4770986,14.2195267 L15.0330658,14.2195267 L15.0330658,10.6164063 Z M1.52290137,15.1199225 L4.90044246,15.1199225 L4.90044246,18.7226586 L1.52290137,18.7226586 L1.52290137,15.1199225 Z M5.74491781,15.1199225 L14.1889507,15.1199225 L14.1889507,18.7226586 L5.74491781,18.7226586 L5.74491781,15.1199225 Z M15.0330658,15.1199225 L23.4770986,15.1199225 L23.4770986,18.7226586 L15.0330658,18.7226586 L15.0330658,15.1199225 Z M1.52290137,19.6234387 L4.90044246,19.6234387 L4.90044246,23.2261749 L1.52290137,23.2261749 L1.52290137,19.6234387 Z M5.74491781,19.6234387 L14.1889507,19.6234387 L14.1889507,23.2261749 L5.74491781,23.2261749 L5.74491781,19.6234387 Z M15.0330658,19.6234387 L23.4770986,19.6234387 L23.4770986,23.2261749 L15.0330658,23.2261749 L15.0330658,19.6234387 Z"></path>
                            </g>
                        </g>
                        <g id="Group-Copy" transform="translate(39.000000, 9.000000)">
                            <rect id="Rectangle-3" x="5.6" y="0" width="2.8" height="14"></rect>
                            <rect id="Rectangle-3-Copy" transform="translate(7.000000, 6.650000) rotate(-270.000000) translate(-7.000000, -6.650000) " x="5.6" y="-0.35" width="2.8" height="14"></rect>
                        </g>
                    </g>
                </g>
            </g>
        </g>
    </g>
</svg>