<?xml version="1.0" encoding="UTF-8"?>
<svg width="187px" height="45px" viewBox="0 0 187 45" version="1.1" xmlns="http://www.w3.org/2000/svg" xmlns:xlink="http://www.w3.org/1999/xlink">
    <!-- Generator: Sketch 50.2 (55047) - http://www.bohemiancoding.com/sketch -->
    <title>Group 8</title>
    <desc>Created with Sketch.</desc>
    <defs>
        <linearGradient x1="31.1819672%" y1="50%" x2="119.702609%" y2="50%" id="linearGradient-1">
            <stop stop-color="#7DD9E4" offset="0%"></stop>
            <stop stop-color="#0C93C0" offset="100%"></stop>
        </linearGradient>
    </defs>
    <g id="Web" stroke="none" stroke-width="1" fill="none" fill-rule="evenodd">
        <g id="background-image-copy-3" transform="translate(-573.000000, -238.000000)">
            <g id="Group-3" transform="translate(363.000000, 100.000000)">
                <g id="Group-8" transform="translate(210.000000, 138.000000)">
                    <rect id="Rectangle-Copy" fill="url(#linearGradient-1)" x="0" y="0" width="187" height="45"></rect>
                    <g id="Group-7" transform="translate(20.000000, 11.000000)" fill="#FFFFFF">
                        <g id="Icon-/-Chart-/-white" transform="translate(54.000000, 0.000000)">
                            <g id="Group-2" transform="translate(1.333333, 1.600000)">
                                <g id="Group" transform="translate(0.771930, 0.926316)">
                                    <rect id="Rectangle-path" x="8.77192982" y="2.17469617" width="2.63157895" height="12.050106"></rect>
                                    <rect id="Rectangle-path" x="13.1578947" y="0" width="2.63157895" height="14.5869704"></rect>
                                    <rect id="Rectangle-path" x="0" y="16.8421053" width="15.7894737" height="1.90264831"></rect>
                                    <rect id="Rectangle-path" x="0" y="4.21052632" width="2.63157895" height="10.1474577"></rect>
                                    <rect id="Rectangle-path" x="4.38596491" y="5.97999279" width="2.63157895" height="8.24480934"></rect>
                                </g>
                            </g>
                        </g>
                        <g id="Icon-/-Spreadsheet-/-white" transform="translate(0.000000, 3.000000)">
                            <g id="Spreadsheet" transform="translate(-0.000000, -0.022482)">
                                <path d="M0.56256,2.27373675e-12 C0.22512,2.27373675e-12 4.54747351e-13,0.239873706 4.54747351e-13,0.600068267 L4.54747351e-13,17.3999317 C4.54747351e-13,17.7601263 0.22512,18 0.56256,18 L17.43744,18 C17.77488,18 18,17.7601263 18,17.3999317 L18,0.600068267 C18,0.239873706 17.77488,2.27373675e-12 17.43744,2.27373675e-12 L0.56256,2.27373675e-12 Z M1.09648898,1.15902585 L3.52831857,1.15902585 L3.52831857,3.75299586 L1.09648898,3.75299586 L1.09648898,1.15902585 Z M4.13634082,1.15902585 L10.2160445,1.15902585 L10.2160445,3.75299586 L4.13634082,3.75299586 L4.13634082,1.15902585 Z M10.8238073,1.15902585 L16.903511,1.15902585 L16.903511,3.75299586 L10.8238073,3.75299586 L10.8238073,1.15902585 Z M1.09648898,4.40155753 L3.52831857,4.40155753 L3.52831857,6.99552754 L1.09648898,6.99552754 L1.09648898,4.40155753 Z M4.13634082,4.40155753 L10.2160445,4.40155753 L10.2160445,6.99552754 L4.13634082,6.99552754 L4.13634082,4.40155753 Z M10.8238073,4.40155753 L16.903511,4.40155753 L16.903511,6.99552754 L10.8238073,6.99552754 L10.8238073,4.40155753 Z M1.09648898,7.64381252 L3.52831857,7.64381252 L3.52831857,10.2380592 L1.09648898,10.2380592 L1.09648898,7.64381252 Z M4.13634082,7.64381252 L10.2160445,7.64381252 L10.2160445,10.2380592 L4.13634082,10.2380592 L4.13634082,7.64381252 Z M10.8238073,7.64381252 L16.903511,7.64381252 L16.903511,10.2380592 L10.8238073,10.2380592 L10.8238073,7.64381252 Z M1.09648898,10.8863442 L3.52831857,10.8863442 L3.52831857,13.4803142 L1.09648898,13.4803142 L1.09648898,10.8863442 Z M4.13634082,10.8863442 L10.2160445,10.8863442 L10.2160445,13.4803142 L4.13634082,13.4803142 L4.13634082,10.8863442 Z M10.8238073,10.8863442 L16.903511,10.8863442 L16.903511,13.4803142 L10.8238073,13.4803142 L10.8238073,10.8863442 Z M1.09648898,14.1288759 L3.52831857,14.1288759 L3.52831857,16.7228459 L1.09648898,16.7228459 L1.09648898,14.1288759 Z M4.13634082,14.1288759 L10.2160445,14.1288759 L10.2160445,16.7228459 L4.13634082,16.7228459 L4.13634082,14.1288759 Z M10.8238073,14.1288759 L16.903511,14.1288759 L16.903511,16.7228459 L10.8238073,16.7228459 L10.8238073,14.1288759 Z"></path>
                            </g>
                        </g>
                        <g id="Group-Copy" transform="translate(30.000000, 4.000000)">
                            <rect id="Rectangle-3" x="5.6" y="0" width="2.8" height="14"></rect>
                            <rect id="Rectangle-3-Copy" transform="translate(7.000000, 6.650000) rotate(-270.000000) translate(-7.000000, -6.650000) " x="5.6" y="-0.35" width="2.8" height="14"></rect>
                        </g>
                    </g>
                </g>
            </g>
        </g>
    </g>
</svg>