<?xml version="1.0" encoding="UTF-8"?>
<svg width="187px" height="45px" viewBox="0 0 187 45" version="1.1" xmlns="http://www.w3.org/2000/svg" xmlns:xlink="http://www.w3.org/1999/xlink">
    <!-- Generator: Sketch 50.2 (55047) - http://www.bohemiancoding.com/sketch -->
    <title>Group 15</title>
    <desc>Created with Sketch.</desc>
    <defs>
        <linearGradient x1="0%" y1="50%" x2="97.0195087%" y2="50%" id="linearGradient-1">
            <stop stop-color="#FBAA6D" offset="0%"></stop>
            <stop stop-color="#FFAAD2" offset="100%"></stop>
        </linearGradient>
    </defs>
    <g id="Web" stroke="none" stroke-width="1" fill="none" fill-rule="evenodd">
        <g id="background-image-copy-3" transform="translate(-363.000000, -238.000000)">
            <g id="Group-3" transform="translate(363.000000, 100.000000)">
                <g id="Group-15" transform="translate(0.000000, 138.000000)">
                    <rect id="Rectangle" fill="url(#linearGradient-1)" x="0" y="0" width="187" height="45"></rect>
                    <g id="Group-6" transform="translate(14.000000, 12.000000)" fill="#FFFFFF">
                        <g id="Icon-/-scraper-white" transform="translate(55.000000, 0.000000)">
                            <g id="noun_117844_cc">
                                <g id="Group" fill-rule="nonzero">
                                    <path d="M17.1428571,15.7142857 C16.3551549,15.7142857 15.7142857,16.3551549 15.7142857,17.1428571 C15.7142857,17.9305594 16.3551549,18.5714286 17.1428571,18.5714286 C17.9305594,18.5714286 18.5714286,17.9305594 18.5714286,17.1428571 C18.5714286,16.3551549 17.9305594,15.7142857 17.1428571,15.7142857 Z M17.1428571,17.8571429 C16.7483956,17.8571429 16.4285714,17.5373186 16.4285714,17.1428571 C16.4285714,16.7483521 16.7483956,16.4285714 17.1428571,16.4285714 C17.5373622,16.4285714 17.8571429,16.7483521 17.8571429,17.1428571 C17.8571429,17.5373186 17.5373622,17.8571429 17.1428571,17.8571429 Z" id="Shape"></path>
                                    <path d="M19.1990444,15.3316825 C19.1790771,15.3117153 19.1580636,15.293056 19.1361346,15.2757481 C18.9903477,15.1592582 13.2549177,10.5511039 12.0857893,9.61177286 C11.8632289,8.45585421 10.8002145,4.07575343 6.93363736,0.209176214 C6.794172,0.0697108571 6.61137171,0 6.42857143,0 C6.24577114,0 6.06297086,0.0697108571 5.9235055,0.209176214 L0.209219786,5.92346193 C-0.0697545,6.20243621 -0.0697545,6.65470671 0.209219786,6.93363736 C4.07570971,10.8001709 8.45572336,11.8632289 9.61172921,12.0857893 L15.2798898,19.1413226 C15.2961077,19.1614641 15.3133719,19.1807339 15.3316825,19.1990444 C15.8481707,19.7155326 16.5349034,20 17.2653634,20 C17.9958235,20 18.6825561,19.7155326 19.1990444,19.1990444 C20.2652849,18.1328038 20.2652849,16.3979231 19.1990444,15.3316825 Z M0.714285714,6.42857143 L6.42857143,0.714285714 C10.7142857,5 11.4285714,10 11.4285714,10 L10,11.4285714 C10,11.4285714 5,10.7142857 0.714285714,6.42857143 Z M18.6939784,18.6939784 C18.2994734,19.0884399 17.7824184,19.2857143 17.2653634,19.2857143 C16.7483085,19.2857143 16.2312535,19.0884399 15.8367484,18.6939784 L10.4404123,11.9767979 C10.4608591,11.9604056 10.4863194,11.9523839 10.5050659,11.9336374 L11.9336374,10.5050659 C11.9525146,10.4861886 11.9581386,10.4593331 11.9746181,10.438712 C13.6572266,11.7905971 18.6931937,15.8367484 18.6939784,15.8367484 C19.482945,16.6257586 19.482945,17.9049683 18.6939784,18.6939784 Z" id="Shape"></path>
                                </g>
                            </g>
                        </g>
                        <g id="Icon-/-notepad-/-white" transform="translate(115.000000, 1.000000)">
                            <g id="Icon-/-notepad" transform="translate(1.380000, 0.000000)">
                                <path d="M15.2307692,1.17230769 L11.4992308,1.17230769 L11.4992308,0.0184615385 L9.88384615,0.0184615385 L5.34692308,0.0207692308 L3.73153846,0.0207692308 L3.73153846,1.17461538 L0,1.17461538 L0,17.79 L15.2307692,17.79 L15.2307692,1.17230769 Z M4.65461538,0.941538462 L6.27,0.941538462 L8.96076923,0.943846154 L10.5761538,0.943846154 L10.5761538,2.98153846 L4.65461538,2.98153846 L4.65461538,0.941538462 Z M14.3076923,16.8646154 L0.923076923,16.8646154 L0.923076923,2.09538462 L3.73153846,2.09538462 L3.73153846,3.90230769 L11.4992308,3.90230769 L11.4992308,2.09538462 L14.3076923,2.09538462 L14.3076923,16.8646154 Z" id="Shape" fill-rule="nonzero"></path>
                                <polygon id="Shape" fill-rule="nonzero" points="6.66 11.2661538 4.66846154 9.01153846 3.97615385 9.62076923 6.57923077 12.57 11.2546154 8.42769231 10.6407692 7.73538462"></polygon>
                            </g>
                        </g>
                        <g id="Icon-/-Spreadsheet-/-white" transform="translate(0.000000, 2.000000)">
                            <g id="Spreadsheet" transform="translate(-0.000000, -0.022482)">
                                <path d="M0.56256,2.27373675e-12 C0.22512,2.27373675e-12 4.54747351e-13,0.239873706 4.54747351e-13,0.600068267 L4.54747351e-13,17.3999317 C4.54747351e-13,17.7601263 0.22512,18 0.56256,18 L17.43744,18 C17.77488,18 18,17.7601263 18,17.3999317 L18,0.600068267 C18,0.239873706 17.77488,2.27373675e-12 17.43744,2.27373675e-12 L0.56256,2.27373675e-12 Z M1.09648898,1.15902585 L3.52831857,1.15902585 L3.52831857,3.75299586 L1.09648898,3.75299586 L1.09648898,1.15902585 Z M4.13634082,1.15902585 L10.2160445,1.15902585 L10.2160445,3.75299586 L4.13634082,3.75299586 L4.13634082,1.15902585 Z M10.8238073,1.15902585 L16.903511,1.15902585 L16.903511,3.75299586 L10.8238073,3.75299586 L10.8238073,1.15902585 Z M1.09648898,4.40155753 L3.52831857,4.40155753 L3.52831857,6.99552754 L1.09648898,6.99552754 L1.09648898,4.40155753 Z M4.13634082,4.40155753 L10.2160445,4.40155753 L10.2160445,6.99552754 L4.13634082,6.99552754 L4.13634082,4.40155753 Z M10.8238073,4.40155753 L16.903511,4.40155753 L16.903511,6.99552754 L10.8238073,6.99552754 L10.8238073,4.40155753 Z M1.09648898,7.64381252 L3.52831857,7.64381252 L3.52831857,10.2380592 L1.09648898,10.2380592 L1.09648898,7.64381252 Z M4.13634082,7.64381252 L10.2160445,7.64381252 L10.2160445,10.2380592 L4.13634082,10.2380592 L4.13634082,7.64381252 Z M10.8238073,7.64381252 L16.903511,7.64381252 L16.903511,10.2380592 L10.8238073,10.2380592 L10.8238073,7.64381252 Z M1.09648898,10.8863442 L3.52831857,10.8863442 L3.52831857,13.4803142 L1.09648898,13.4803142 L1.09648898,10.8863442 Z M4.13634082,10.8863442 L10.2160445,10.8863442 L10.2160445,13.4803142 L4.13634082,13.4803142 L4.13634082,10.8863442 Z M10.8238073,10.8863442 L16.903511,10.8863442 L16.903511,13.4803142 L10.8238073,13.4803142 L10.8238073,10.8863442 Z M1.09648898,14.1288759 L3.52831857,14.1288759 L3.52831857,16.7228459 L1.09648898,16.7228459 L1.09648898,14.1288759 Z M4.13634082,14.1288759 L10.2160445,14.1288759 L10.2160445,16.7228459 L4.13634082,16.7228459 L4.13634082,14.1288759 Z M10.8238073,14.1288759 L16.903511,14.1288759 L16.903511,16.7228459 L10.8238073,16.7228459 L10.8238073,14.1288759 Z"></path>
                            </g>
                        </g>
                        <g id="Group" transform="translate(30.000000, 3.000000)">
                            <rect id="Rectangle-3-Copy-5" x="5.6" y="0" width="2.8" height="14"></rect>
                            <rect id="Rectangle-3-Copy-4" transform="translate(7.000000, 6.650000) rotate(-270.000000) translate(-7.000000, -6.650000) " x="5.6" y="-0.35" width="2.8" height="14"></rect>
                            <rect id="Rectangle-3-Copy-9" x="62.6" y="0" width="2.8" height="14"></rect>
                            <rect id="Rectangle-3-Copy-8" transform="translate(64.000000, 6.650000) rotate(-270.000000) translate(-64.000000, -6.650000) " x="62.6" y="-0.35" width="2.8" height="14"></rect>
                        </g>
                    </g>
                </g>
            </g>
        </g>
    </g>
</svg>