<?xml version="1.0" encoding="UTF-8"?>
<svg width="187px" height="45px" viewBox="0 0 187 45" version="1.1" xmlns="http://www.w3.org/2000/svg" xmlns:xlink="http://www.w3.org/1999/xlink">
    <!-- Generator: Sketch 50.2 (55047) - http://www.bohemiancoding.com/sketch -->
    <title>Group 15</title>
    <desc>Created with Sketch.</desc>
    <defs>
        <linearGradient x1="0%" y1="50%" x2="97.0195087%" y2="50%" id="linearGradient-1">
            <stop stop-color="#FBAA6D" offset="0%"></stop>
            <stop stop-color="#FFAAD2" offset="100%"></stop>
        </linearGradient>
    </defs>
    <g id="Web" stroke="none" stroke-width="1" fill="none" fill-rule="evenodd">
        <g id="background-image-copy-3" transform="translate(-363.000000, -238.000000)">
            <g id="Group-3" transform="translate(363.000000, 100.000000)">
                <g id="Group-15" transform="translate(0.000000, 138.000000)">
                    <rect id="Rectangle" fill="url(#linearGradient-1)" x="0" y="0" width="187" height="45"></rect>
                    <g id="Group-6" transform="translate(15.000000, 12.000000)" fill="#FFFFFF">
                        <g id="Icon-/-scraper-white" transform="translate(53.000000, 0.000000)">
                            <g id="noun_117844_cc">
                                <g id="Group" fill-rule="nonzero">
                                    <path d="M17.1428571,15.7142857 C16.3551549,15.7142857 15.7142857,16.3551549 15.7142857,17.1428571 C15.7142857,17.9305594 16.3551549,18.5714286 17.1428571,18.5714286 C17.9305594,18.5714286 18.5714286,17.9305594 18.5714286,17.1428571 C18.5714286,16.3551549 17.9305594,15.7142857 17.1428571,15.7142857 Z M17.1428571,17.8571429 C16.7483956,17.8571429 16.4285714,17.5373186 16.4285714,17.1428571 C16.4285714,16.7483521 16.7483956,16.4285714 17.1428571,16.4285714 C17.5373622,16.4285714 17.8571429,16.7483521 17.8571429,17.1428571 C17.8571429,17.5373186 17.5373622,17.8571429 17.1428571,17.8571429 Z" id="Shape"></path>
                                    <path d="M19.1990444,15.3316825 C19.1790771,15.3117153 19.1580636,15.293056 19.1361346,15.2757481 C18.9903477,15.1592582 13.2549177,10.5511039 12.0857893,9.61177286 C11.8632289,8.45585421 10.8002145,4.07575343 6.93363736,0.209176214 C6.794172,0.0697108571 6.61137171,0 6.42857143,0 C6.24577114,0 6.06297086,0.0697108571 5.9235055,0.209176214 L0.209219786,5.92346193 C-0.0697545,6.20243621 -0.0697545,6.65470671 0.209219786,6.93363736 C4.07570971,10.8001709 8.45572336,11.8632289 9.61172921,12.0857893 L15.2798898,19.1413226 C15.2961077,19.1614641 15.3133719,19.1807339 15.3316825,19.1990444 C15.8481707,19.7155326 16.5349034,20 17.2653634,20 C17.9958235,20 18.6825561,19.7155326 19.1990444,19.1990444 C20.2652849,18.1328038 20.2652849,16.3979231 19.1990444,15.3316825 Z M0.714285714,6.42857143 L6.42857143,0.714285714 C10.7142857,5 11.4285714,10 11.4285714,10 L10,11.4285714 C10,11.4285714 5,10.7142857 0.714285714,6.42857143 Z M18.6939784,18.6939784 C18.2994734,19.0884399 17.7824184,19.2857143 17.2653634,19.2857143 C16.7483085,19.2857143 16.2312535,19.0884399 15.8367484,18.6939784 L10.4404123,11.9767979 C10.4608591,11.9604056 10.4863194,11.9523839 10.5050659,11.9336374 L11.9336374,10.5050659 C11.9525146,10.4861886 11.9581386,10.4593331 11.9746181,10.438712 C13.6572266,11.7905971 18.6931937,15.8367484 18.6939784,15.8367484 C19.482945,16.6257586 19.482945,17.9049683 18.6939784,18.6939784 Z" id="Shape"></path>
                                </g>
                            </g>
                        </g>
                        <g id="Icon-/-Globe-/-white" transform="translate(0.000000, 1.000000)">
                            <g id="World-Wide-web-Gray">
                                <path d="M0.0195833333,10.7506629 L0.0195833333,9.16873101 C0.0327083333,9.12183744 0.05375,9.07535885 0.0579166667,9.0276353 C0.181041667,7.64033252 0.578958333,6.33353728 1.27458333,5.12841395 C2.771875,2.53515786 4.98583333,0.890770395 7.923125,0.234052878 C8.34541667,0.139643251 8.77791667,0.0900522599 9.20583333,0.0195044065 L10.7941667,0.0195044065 C10.8489583,0.0327840024 10.903125,0.0533258774 10.9585417,0.0578907385 C11.6945833,0.117856414 12.4164583,0.257914652 13.110625,0.503587177 C16.595625,1.73609967 18.8110417,4.13742411 19.7404167,7.70403308 C19.850625,8.1273202 19.9016667,8.56616935 19.9802083,8.99754872 L19.9802083,10.9641739 C19.9233333,11.2835067 19.8697917,11.6036694 19.809375,11.9221722 C19.089375,15.7099695 15.994375,18.8703058 12.2052083,19.6811911 C11.7952083,19.768961 11.3791667,19.8274742 10.9658333,19.899682 L9.03416667,19.899682 C8.78958333,19.8583907 8.545,19.8175145 8.30041667,19.7760157 C4.29958333,19.0973039 1.06520833,16.0031581 0.234375,12.0512333 C0.143958333,11.6215139 0.0904166667,11.1843247 0.0195833333,10.7506629 L0.0195833333,10.7506629 Z M7.70291667,5.79882605 C7.50541667,7.09649157 7.42604167,8.38336741 7.40895833,9.67439312 L12.601875,9.67439312 C12.59875,8.36842786 12.501875,7.08300448 12.3139583,5.79882605 L7.70291667,5.79882605 L7.70291667,5.79882605 Z M7.349375,10.3757218 C7.465,11.6171565 7.58395833,12.8268447 7.68479167,14.0379853 C7.70208333,14.245064 7.78479167,14.2736982 7.9625,14.2728682 C9.32833333,14.2672659 10.694375,14.2697558 12.0604167,14.2697558 L12.2939583,14.2697558 C12.4920833,12.9608856 12.5916667,11.6752547 12.6025,10.3757218 C10.8572917,10.3757218 9.14395833,10.3757218 7.349375,10.3757218 L7.349375,10.3757218 Z M12.1977083,5.1004023 C11.996875,4.02682997 11.7585417,2.98624913 11.2814583,2.02327094 C11.0916667,1.6400301 10.8408333,1.27276627 10.5547917,0.954470957 C10.225,0.587414626 9.81895833,0.599864247 9.46166667,0.945548729 C9.26458333,1.13623543 9.09354167,1.363856 8.95125,1.59894635 C8.55708333,2.24964655 8.32479167,2.96819718 8.1325,3.69857496 C8.01208333,4.15630603 7.91541667,4.62026191 7.80375,5.1004023 L12.1977083,5.1004023 L12.1977083,5.1004023 Z M7.851875,14.9654821 C7.85833333,15.0148656 7.86104167,15.0491021 7.8675,15.0825086 C8.05729167,16.0685186 8.31020833,17.0360616 8.74104167,17.9484114 C8.93,18.3484592 9.148125,18.7331525 9.49520833,19.0250961 C9.830625,19.307495 10.17,19.3269994 10.4977083,19.0365083 C10.696875,18.8599311 10.873125,18.6441377 11.013125,18.4173471 C11.5472917,17.5525134 11.8114583,16.5851778 12.0397917,15.6072601 C12.0889583,15.397069 12.12875,15.184803 12.174375,14.9654821 C10.7160417,14.9654821 9.290625,14.9654821 7.851875,14.9654821 L7.851875,14.9654821 Z M16.4897917,9.67646806 C16.4835417,9.55342431 16.4772917,9.45444982 16.4733333,9.35506034 C16.426875,8.21094015 16.2235417,7.09566159 15.87125,6.00548976 C15.8202083,5.84779456 15.7597917,5.78284904 15.579375,5.78575395 C14.7997917,5.79841106 14.02,5.79114879 13.2404167,5.79114879 L13.0510417,5.79114879 C13.145625,7.10043395 13.2385417,8.38793227 13.3314583,9.67626057 C14.3679167,9.67646806 15.4177083,9.67646806 16.4897917,9.67646806 L16.4897917,9.67646806 Z M6.96416667,5.79135628 L6.77833333,5.79135628 C6.00666667,5.79135628 5.235,5.79903355 4.46354167,5.78616894 C4.270625,5.78284904 4.1925,5.84696459 4.13625,6.02250425 C3.80645833,7.05001298 3.61666667,8.10242096 3.545,9.17703076 C3.53395833,9.3432332 3.54354167,9.51068061 3.54354167,9.66879079 L6.68291667,9.66879079 C6.776875,8.3738227 6.869375,7.0985665 6.96416667,5.79135628 L6.96416667,5.79135628 Z M6.68395833,10.3809091 L3.54354167,10.3809091 C3.540625,10.4373474 3.535,10.4794686 3.53666667,10.5211749 C3.58833333,11.7505749 3.80520833,12.9490585 4.20729167,14.1141355 C4.25104167,14.2409142 4.31708333,14.2726607 4.44083333,14.2720382 C5.24875,14.2678884 6.056875,14.2703783 6.86479167,14.2693408 C6.9125,14.2693408 6.96041667,14.2577212 6.9825,14.2548162 C6.88291667,12.9600556 6.78395833,11.6785746 6.68395833,10.3809091 L6.68395833,10.3809091 Z M13.331875,10.3755143 C13.2314583,11.6798196 13.1325,12.9658655 13.0322917,14.2691333 C13.893125,14.2691333 14.771875,14.2712083 15.6504167,14.2637385 C15.69875,14.2633235 15.7725,14.1948506 15.7908333,14.1427697 C16.2191667,12.9268567 16.4497917,11.6748398 16.4783333,10.3755143 C15.4172917,10.3755143 14.3677083,10.3755143 13.331875,10.3755143 L13.331875,10.3755143 Z M2.84541667,9.67605307 C2.86895833,8.33792629 3.08958333,7.05644528 3.495625,5.79114879 C2.93395833,5.79114879 2.398125,5.79654362 1.8625,5.7874139 C1.72375,5.78513147 1.66583333,5.83970231 1.61,5.95631376 C1.21333333,6.78338359 0.940833333,7.64863226 0.803333333,8.55392722 C0.747291667,8.92222851 0.723958333,9.29550965 0.684583333,9.67605307 L2.84541667,9.67605307 L2.84541667,9.67605307 Z M16.5158333,5.79135628 C16.9383333,7.0724223 17.1366667,8.35826067 17.175625,9.67231819 L19.31875,9.67231819 C19.2964583,9.39635158 19.2822917,9.13532453 19.2529167,8.87616491 C19.1358333,7.84388382 18.8458333,6.86077874 18.3835417,5.92954707 C18.353125,5.86833644 18.2641667,5.79841106 18.2010417,5.7971661 C17.6522917,5.78699891 17.1029167,5.79135628 16.5158333,5.79135628 L16.5158333,5.79135628 Z M17.1691667,10.3775892 C17.13125,11.7024364 16.9033333,12.9897272 16.4772917,14.2691333 C17.0647917,14.2691333 17.6141667,14.2739057 18.163125,14.262286 C18.2229167,14.2610411 18.3027083,14.1753462 18.335625,14.1101932 C18.6958333,13.3957924 18.9722917,12.6496451 19.1197917,11.862829 C19.2108333,11.3775013 19.2666667,10.8855338 19.3410417,10.3777967 C18.5933333,10.3775892 17.9022917,10.3775892 17.1691667,10.3775892 L17.1691667,10.3775892 Z M2.84604167,10.3813241 L0.69125,10.3813241 C0.724375,10.6811525 0.75125,10.9639664 0.787708333,11.2455353 C0.919791667,12.2637068 1.23208333,13.2268925 1.69708333,14.1413172 C1.72416667,14.1946431 1.79333333,14.262286 1.84375,14.263116 C2.40020833,14.2718307 2.95666667,14.2685108 3.540625,14.2685108 C3.110625,12.9953296 2.88729167,11.7115661 2.84604167,10.3813241 L2.84604167,10.3813241 Z M11.51,0.960903261 C12.29375,2.24030933 12.6114583,3.67139329 12.9033333,5.10309972 L15.5314583,5.10309972 C14.6695833,3.23524156 13.5066667,1.69978828 11.51,0.960903261 L11.51,0.960903261 Z M4.480625,5.11139947 C5.35583333,5.11139947 6.17708333,5.11409689 6.99791667,5.10475967 C7.04833333,5.10413719 7.13083333,5.01304746 7.14270833,4.95308179 C7.32208333,4.0390721 7.53020833,3.1319097 7.88104167,2.26645354 C8.06041667,1.82366201 8.285,1.39892243 8.50333333,0.935796525 C6.510625,1.70497562 5.34708333,3.23233665 4.480625,5.11139947 L4.480625,5.11139947 Z M8.50854167,18.9752976 C7.74479167,17.7351079 7.42625,16.35071 7.13833333,14.9690095 L4.54416667,14.9690095 C5.413125,16.7814669 6.565625,18.2646317 8.50854167,18.9752976 L8.50854167,18.9752976 Z M11.4675,19.0159664 C13.45125,18.2586144 14.6095833,16.7791844 15.4691667,14.9675571 L12.879375,14.9675571 C12.27375,17.5072798 12.2610417,17.5437987 11.4675,19.0159664 L11.4675,19.0159664 Z M6.15041667,1.54582796 C4.44479167,2.32475926 3.095625,3.49792856 2.07854167,5.11160696 C2.62916667,5.11160696 3.12875,5.11637932 3.62791667,5.10538215 C3.68854167,5.10413719 3.77166667,5.03068442 3.80291667,4.96968128 C3.965,4.6536684 4.10291667,4.32541338 4.26916667,4.01168293 C4.75895833,3.08688357 5.38145833,2.2610587 6.15041667,1.54582796 L6.15041667,1.54582796 Z M17.9389583,5.11160696 C16.9202083,3.51017069 15.5904167,2.33534144 13.90375,1.56450239 C14.1172917,1.81494727 14.3516667,2.0442278 14.5670833,2.28990032 C15.2641667,3.08522362 15.78875,3.9863687 16.205,4.95432675 C16.2335417,5.02072473 16.3252083,5.10309972 16.389375,5.10475967 C16.8891667,5.1170018 17.389375,5.11160696 17.9389583,5.11160696 L17.9389583,5.11160696 Z M13.8504167,18.4175546 C15.5191667,17.6367558 16.8395833,16.5057078 17.856875,14.9509576 C17.340625,14.9509576 16.8720833,14.9571824 16.40375,14.9472227 C16.2585417,14.9441103 16.1925,14.9932863 16.13625,15.1237998 C15.7941667,15.9172557 15.369375,16.6650629 14.8214583,17.3356825 C14.5222917,17.7014939 14.1904167,18.0407461 13.8504167,18.4175546 L13.8504167,18.4175546 Z M2.158125,14.9517875 C3.16708333,16.4847509 4.46270833,17.6133091 6.095625,18.3582114 C5.90166667,18.1249885 5.685,17.9141749 5.48541667,17.6884218 C4.809375,16.9238075 4.289375,16.0608413 3.87604167,15.1310621 C3.844375,15.0596843 3.7625,14.9613323 3.70145833,14.9594648 C3.20395833,14.9455627 2.70604167,14.9517875 2.158125,14.9517875 L2.158125,14.9517875 Z" id="world-wide-web-gray"></path>
                            </g>
                        </g>
                        <g id="Group" transform="translate(30.000000, 3.000000)">
                            <rect id="Rectangle-3" x="5.6" y="0" width="2.8" height="14"></rect>
                            <rect id="Rectangle-3-Copy" transform="translate(7.000000, 6.650000) rotate(-270.000000) translate(-7.000000, -6.650000) " x="5.6" y="-0.35" width="2.8" height="14"></rect>
                        </g>
                    </g>
                </g>
            </g>
        </g>
    </g>
</svg>