<?xml version="1.0" encoding="UTF-8"?>
<svg width="187px" height="65px" viewBox="0 0 187 65" version="1.1" xmlns="http://www.w3.org/2000/svg" xmlns:xlink="http://www.w3.org/1999/xlink">
    <!-- Generator: Sketch 50.2 (55047) - http://www.bohemiancoding.com/sketch -->
    <title>Group 15</title>
    <desc>Created with Sketch.</desc>
    <defs>
        <linearGradient x1="0%" y1="50%" x2="97.0195087%" y2="50%" id="linearGradient-1">
            <stop stop-color="#FBAA6D" offset="0%"></stop>
            <stop stop-color="#FFAAD2" offset="100%"></stop>
        </linearGradient>
    </defs>
    <g id="Web" stroke="none" stroke-width="1" fill="none" fill-rule="evenodd">
        <g id="background-image-copy-2" transform="translate(-363.000000, -228.000000)">
            <g id="Group-3" transform="translate(363.000000, 100.000000)">
                <g id="Group-15" transform="translate(0.000000, 128.000000)">
                    <rect id="Rectangle" fill="url(#linearGradient-1)" x="0" y="0" width="187" height="65"></rect>
                    <g id="Group-6" transform="translate(15.000000, 20.000000)" fill="#FFFFFF">
                        <g id="Icon-/-scraper-white" transform="translate(63.000000, 0.000000)">
                            <g id="noun_117844_cc">
                                <g id="Group" fill-rule="nonzero">
                                    <path d="M21.4285714,19.6428571 C20.4439436,19.6428571 19.6428571,20.4439436 19.6428571,21.4285714 C19.6428571,22.4131993 20.4439436,23.2142857 21.4285714,23.2142857 C22.4131993,23.2142857 23.2142857,22.4131993 23.2142857,21.4285714 C23.2142857,20.4439436 22.4131993,19.6428571 21.4285714,19.6428571 Z M21.4285714,22.3214286 C20.9354946,22.3214286 20.5357143,21.9216483 20.5357143,21.4285714 C20.5357143,20.9354401 20.9354946,20.5357143 21.4285714,20.5357143 C21.9217028,20.5357143 22.3214286,20.9354401 22.3214286,21.4285714 C22.3214286,21.9216483 21.9217028,22.3214286 21.4285714,22.3214286 Z" id="Shape"></path>
                                    <path d="M23.9988054,19.1646031 C23.9738464,19.1396441 23.9475796,19.11632 23.9201682,19.0946852 C23.7379346,18.9490728 16.5686471,13.1888798 15.1072366,12.0147161 C14.8290362,10.5698178 13.5002681,5.09469179 8.6670467,0.261470268 C8.492715,0.0871385714 8.26421464,0 8.03571429,0 C7.80721393,0 7.57871357,0.0871385714 7.40438187,0.261470268 L0.261524732,7.40432741 C-0.087193125,7.75304527 -0.087193125,8.31838339 0.261524732,8.6670467 C5.09463714,13.5002137 10.5696542,14.8290362 12.0146615,15.1072366 L19.0998622,23.9266532 C19.1201346,23.9518302 19.1417149,23.9759173 19.1646031,23.9988054 C19.8102134,24.6444157 20.6686292,25 21.5817043,25 C22.4947794,25 23.3531952,24.6444157 23.9988054,23.9988054 C25.3316062,22.6660047 25.3316062,20.4974038 23.9988054,19.1646031 Z M0.892857143,8.03571429 L8.03571429,0.892857143 C13.3928571,6.25 14.2857143,12.5 14.2857143,12.5 L12.5,14.2857143 C12.5,14.2857143 6.25,13.3928571 0.892857143,8.03571429 Z M23.367473,23.367473 C22.8743417,23.8605499 22.2280229,24.1071429 21.5817043,24.1071429 C20.9353856,24.1071429 20.2890669,23.8605499 19.7959355,23.367473 L13.0505154,14.9709974 C13.0760738,14.9505071 13.1078993,14.9404798 13.1313324,14.9170467 L14.9170467,13.1313324 C14.9406433,13.1077358 14.9476733,13.0741664 14.9682726,13.04839 C17.0715332,14.7382464 23.3664921,19.7959355 23.367473,19.7959355 C24.3536812,20.7821982 24.3536812,22.3812104 23.367473,23.367473 Z" id="Shape"></path>
                                </g>
                            </g>
                        </g>
                        <g id="Icon-/-Globe-/-white">
                            <g id="World-Wide-web-Gray">
                                <path d="M0.0244791667,13.4383286 L0.0244791667,11.4609138 C0.0408854167,11.4022968 0.0671875,11.3441986 0.0723958333,11.2845441 C0.226302083,9.55041565 0.723697917,7.9169216 1.59322917,6.41051744 C3.46484375,3.16894732 6.23229167,1.11346299 9.90390625,0.292566098 C10.4317708,0.174554064 10.9723958,0.112565325 11.5072917,0.0243805081 L13.4927083,0.0243805081 C13.5611979,0.040980003 13.6289062,0.0666573467 13.6981771,0.0723634231 C14.6182292,0.147320517 15.5205729,0.322393315 16.3882812,0.629483971 C20.7445312,2.17012459 23.5138021,5.17178013 24.6755208,9.63004135 C24.8132812,10.1591502 24.8770833,10.7077117 24.9752604,11.2469359 L24.9752604,13.7052173 C24.9041667,14.1043833 24.8372396,14.5045868 24.7617187,14.9027153 C23.8617187,19.6374618 19.9929687,23.5878823 15.2565104,24.6014889 C14.7440104,24.7112012 14.2239583,24.7843427 13.7072917,24.8746025 L11.2927083,24.8746025 C10.9869792,24.8229884 10.68125,24.7718931 10.3755208,24.7200197 C5.37447917,23.8716299 1.33151042,20.0039476 0.29296875,15.0640416 C0.179947917,14.5268923 0.113020833,13.9804058 0.0244791667,13.4383286 L0.0244791667,13.4383286 Z M9.62864583,7.24853256 C9.38177083,8.87061446 9.28255208,10.4792093 9.26119792,12.0929914 L15.7523437,12.0929914 C15.7484375,10.4605348 15.6273437,8.8537556 15.3924479,7.24853256 L9.62864583,7.24853256 L9.62864583,7.24853256 Z M9.18671875,12.9696522 C9.33125,14.5214456 9.47994792,16.0335559 9.60598958,17.5474817 C9.62760417,17.8063301 9.73098958,17.8421227 9.953125,17.8410853 C11.6604167,17.8340823 13.3679687,17.8371947 15.0755208,17.8371947 L15.3674479,17.8371947 C15.6151042,16.201107 15.7395833,14.5940684 15.753125,12.9696522 C13.5716146,12.9696522 11.4299479,12.9696522 9.18671875,12.9696522 L9.18671875,12.9696522 Z M15.2471354,6.37550288 C14.9960937,5.03353746 14.6981771,3.73281142 14.1018229,2.52908867 C13.8645833,2.05003762 13.5510417,1.59095784 13.1934896,1.1930887 C12.78125,0.734268282 12.2736979,0.749830309 11.8270833,1.18193591 C11.5807292,1.42029428 11.3669271,1.70482 11.1890625,1.99868293 C10.6963542,2.81205818 10.4059896,3.71024648 10.165625,4.6232187 C10.0151042,5.19538254 9.89427083,5.77532739 9.7546875,6.37550288 L15.2471354,6.37550288 L15.2471354,6.37550288 Z M9.81484375,18.7068527 C9.82291667,18.768582 9.82630208,18.8113776 9.834375,18.8531357 C10.0716146,20.0856482 10.3877604,21.295077 10.9263021,22.4355142 C11.1625,22.935574 11.4351562,23.4164406 11.8690104,23.7813701 C12.2882812,24.1343688 12.7125,24.1587493 13.1221354,23.7956353 C13.3710937,23.5749139 13.5914062,23.3051721 13.7664062,23.0216839 C14.4341146,21.9406418 14.7643229,20.7314723 15.0497396,19.5090751 C15.1111979,19.2463362 15.1609375,18.9810037 15.2179687,18.7068527 C13.3950521,18.7068527 11.6132812,18.7068527 9.81484375,18.7068527 L9.81484375,18.7068527 Z M20.6122396,12.0955851 C20.6044271,11.9417804 20.5966146,11.8180623 20.5916667,11.6938254 C20.5335937,10.2636752 20.2794271,8.86957699 19.8390625,7.5068622 C19.7752604,7.3097432 19.6997396,7.2285613 19.4742187,7.23219244 C18.4997396,7.24801383 17.525,7.23893598 16.5505208,7.23893598 L16.3138021,7.23893598 C16.4320312,8.87554243 16.5481771,10.4849153 16.6643229,12.0953257 C17.9598958,12.0955851 19.2721354,12.0955851 20.6122396,12.0955851 L20.6122396,12.0955851 Z M8.70520833,7.23919535 L8.47291667,7.23919535 C7.50833333,7.23919535 6.54375,7.24879193 5.57942708,7.23271117 C5.33828125,7.2285613 5.240625,7.30870573 5.1703125,7.52813031 C4.75807292,8.81251622 4.52083333,10.1280262 4.43125,11.4712884 C4.41744792,11.6790415 4.42942708,11.8883508 4.42942708,12.0859885 L8.35364583,12.0859885 C8.47109375,10.4672784 8.58671875,8.87320813 8.70520833,7.23919535 L8.70520833,7.23919535 Z M8.35494792,12.9761364 L4.42942708,12.9761364 C4.42578125,13.0466843 4.41875,13.0993358 4.42083333,13.1514686 C4.48541667,14.6882187 4.75651042,16.1863231 5.25911458,17.6426694 C5.31380208,17.8011427 5.39635417,17.8408259 5.55104167,17.8400478 C6.5609375,17.8348604 7.57109375,17.8379728 8.58098958,17.836676 C8.640625,17.836676 8.70052083,17.8221515 8.728125,17.8185203 C8.60364583,16.2000696 8.47994792,14.5982183 8.35494792,12.9761364 L8.35494792,12.9761364 Z M16.6648437,12.9693929 C16.5393229,14.5997745 16.415625,16.2073318 16.2903646,17.8364166 C17.3664062,17.8364166 18.4648437,17.8390103 19.5630208,17.8296731 C19.6234375,17.8291544 19.715625,17.7435632 19.7385417,17.6784621 C20.2739583,16.1585708 20.5622396,14.5935497 20.5979167,12.9693929 C19.2716146,12.9693929 17.9596354,12.9693929 16.6648437,12.9693929 L16.6648437,12.9693929 Z M3.55677083,12.0950663 C3.58619792,10.4224079 3.86197917,8.82055661 4.36953125,7.23893598 C3.66744792,7.23893598 2.99765625,7.24567953 2.328125,7.23426737 C2.1546875,7.23141434 2.08229167,7.29962788 2.0125,7.4453922 C1.51666667,8.47922949 1.17604167,9.56079033 1.00416667,10.692409 C0.934114583,11.1527856 0.904947917,11.6193871 0.855729167,12.0950663 L3.55677083,12.0950663 L3.55677083,12.0950663 Z M20.6447917,7.23919535 C21.1729167,8.84052787 21.4208333,10.4478258 21.4695312,12.0903977 L24.1484375,12.0903977 C24.1205729,11.7454395 24.1028646,11.4191557 24.0661458,11.0952061 C23.9197917,9.80485478 23.5572917,8.57597342 22.9794271,7.41193384 C22.9414062,7.33542055 22.8302083,7.24801383 22.7513021,7.24645763 C22.0653646,7.23374864 21.3786458,7.23919535 20.6447917,7.23919535 L20.6447917,7.23919535 Z M21.4614583,12.9719865 C21.4140625,14.6280455 21.1291667,16.2371591 20.5966146,17.8364166 C21.3309896,17.8364166 22.0177083,17.8423821 22.7039062,17.8278575 C22.7786458,17.8263013 22.8783854,17.7191827 22.9195312,17.6377414 C23.3697917,16.7447405 23.7153646,15.8120564 23.8997396,14.8285363 C24.0135417,14.2218766 24.0833333,13.6069172 24.1763021,12.9722459 C23.2416667,12.9719865 22.3778646,12.9719865 21.4614583,12.9719865 L21.4614583,12.9719865 Z M3.55755208,12.9766551 L0.8640625,12.9766551 C0.90546875,13.3514406 0.9390625,13.704958 0.984635417,14.0569191 C1.14973958,15.3296335 1.54010417,16.5336157 2.12135417,17.6766465 C2.15520833,17.7433039 2.24166667,17.8278575 2.3046875,17.828895 C3.00026042,17.8397884 3.69583333,17.8356385 4.42578125,17.8356385 C3.88828125,16.244162 3.60911458,14.6394577 3.55755208,12.9766551 L3.55755208,12.9766551 Z M14.3875,1.20112908 C15.3671875,2.80038666 15.7643229,4.58924161 16.1291667,6.37887465 L19.4143229,6.37887465 C18.3369792,4.04405195 16.8833333,2.12473535 14.3875,1.20112908 L14.3875,1.20112908 Z M5.60078125,6.38924934 C6.69479167,6.38924934 7.72135417,6.39262111 8.74739583,6.38094959 C8.81041667,6.38017149 8.91354167,6.26630933 8.92838542,6.19135223 C9.15260417,5.04884012 9.41276042,3.91488713 9.85130208,2.83306692 C10.0755208,2.27957751 10.35625,1.74865304 10.6291667,1.16974566 C8.13828125,2.13121953 6.68385417,4.04042081 5.60078125,6.38924934 L5.60078125,6.38924934 Z M10.6356771,23.719122 C9.68098958,22.1688848 9.2828125,20.4383875 8.92291667,18.7112619 L5.68020833,18.7112619 C6.76640625,20.9768336 8.20703125,22.8307897 10.6356771,23.719122 L10.6356771,23.719122 Z M14.334375,23.769958 C16.8140625,22.823268 18.2619792,20.9739805 19.3364583,18.7094463 L16.0992187,18.7094463 C15.3421875,21.8840997 15.3263021,21.9297483 14.334375,23.769958 L14.334375,23.769958 Z M7.68802083,1.93228495 C5.55598958,2.90594908 3.86953125,4.3724107 2.59817708,6.3895087 C3.28645833,6.3895087 3.9109375,6.39547415 4.53489583,6.38172769 C4.61067708,6.38017149 4.71458333,6.28835553 4.75364583,6.2121016 C4.95625,5.8170855 5.12864583,5.40676673 5.33645833,5.01460366 C5.94869792,3.85860446 6.72682292,2.82632337 7.68802083,1.93228495 L7.68802083,1.93228495 Z M22.4236979,6.3895087 C21.1502604,4.38771336 19.4880208,2.9191768 17.3796875,1.95562799 C17.6466146,2.26868409 17.9395833,2.55528475 18.2088542,2.8623754 C19.0802083,3.85652953 19.7359375,4.98296088 20.25625,6.19290844 C20.2919271,6.27590591 20.4065104,6.37887465 20.4867187,6.38094959 C21.1114583,6.39625225 21.7367187,6.3895087 22.4236979,6.3895087 L22.4236979,6.3895087 Z M17.3130208,23.0219432 C19.3989583,22.0459448 21.0494792,20.6321347 22.3210937,18.688697 C21.6757812,18.688697 21.0901042,18.696478 20.5046875,18.6840284 C20.3231771,18.6801378 20.240625,18.7416078 20.1703125,18.9047498 C19.7427083,19.8965696 19.2117187,20.8313286 18.5268229,21.6696031 C18.1528646,22.1268673 17.7380208,22.5509326 17.3130208,23.0219432 L17.3130208,23.0219432 Z M2.69765625,18.6897344 C3.95885417,20.6059386 5.57838542,22.0166363 7.61953125,22.9477642 C7.37708333,22.6562356 7.10625,22.3927186 6.85677083,22.1105272 C6.01171875,21.1547594 5.36171875,20.0760516 4.84505208,18.9138276 C4.80546875,18.8246053 4.703125,18.7016653 4.62682292,18.699331 C4.00494792,18.6819534 3.38255208,18.6897344 2.69765625,18.6897344 L2.69765625,18.6897344 Z" id="world-wide-web-gray"></path>
                            </g>
                        </g>
                        <g id="Group" transform="translate(38.000000, 5.000000)">
                            <rect id="Rectangle-3" x="5.6" y="0" width="2.8" height="14"></rect>
                            <rect id="Rectangle-3-Copy" transform="translate(7.000000, 6.650000) rotate(-270.000000) translate(-7.000000, -6.650000) " x="5.6" y="-0.35" width="2.8" height="14"></rect>
                        </g>
                    </g>
                </g>
            </g>
        </g>
    </g>
</svg>