<?xml version="1.0" encoding="UTF-8"?>
<svg width="187px" height="35px" viewBox="0 0 187 35" version="1.1" xmlns="http://www.w3.org/2000/svg" xmlns:xlink="http://www.w3.org/1999/xlink">
    <!-- Generator: Sketch 53.2 (72643) - https://sketchapp.com -->
    <title>Turorial-6</title>
    <desc>Created with Sketch.</desc>
    <defs>
        <linearGradient x1="0%" y1="50%" x2="97.0195087%" y2="50%" id="linearGradient-1">
            <stop stop-color="#FBAA6D" offset="0%"></stop>
            <stop stop-color="#FFAAD2" offset="100%"></stop>
        </linearGradient>
    </defs>
    <g id="Turorial-6" stroke="none" stroke-width="1" fill="none" fill-rule="evenodd">
        <rect id="Rectangle" fill="url(#linearGradient-1)" x="0" y="0" width="187" height="65"></rect>
        <g id="Group" transform="translate(10.000000, 10.000000)" fill="#FFFFFF">
            <g id="Icon-/-Spreadsheet-/-white">
                <g id="Spreadsheet" transform="translate(-0.000000, -0.018735)">
                    <path d="M0.4688,2.27373675e-12 C0.1876,2.27373675e-12 4.54747351e-13,0.199894755 4.54747351e-13,0.500056889 L4.54747351e-13,14.4999431 C4.54747351e-13,14.8001052 0.1876,15 0.4688,15 L14.5312,15 C14.8124,15 15,14.8001052 15,14.4999431 L15,0.500056889 C15,0.199894755 14.8124,2.27373675e-12 14.5312,2.27373675e-12 L0.4688,2.27373675e-12 Z M0.913740821,0.965854872 L2.94026548,0.965854872 L2.94026548,3.12749655 L0.913740821,3.12749655 L0.913740821,0.965854872 Z M3.44695068,0.965854872 L8.51337041,0.965854872 L8.51337041,3.12749655 L3.44695068,3.12749655 L3.44695068,0.965854872 Z M9.01983945,0.965854872 L14.0862592,0.965854872 L14.0862592,3.12749655 L9.01983945,3.12749655 L9.01983945,0.965854872 Z M0.913740821,3.66796461 L2.94026548,3.66796461 L2.94026548,5.82960628 L0.913740821,5.82960628 L0.913740821,3.66796461 Z M3.44695068,3.66796461 L8.51337041,3.66796461 L8.51337041,5.82960628 L3.44695068,5.82960628 L3.44695068,3.66796461 Z M9.01983945,3.66796461 L14.0862592,3.66796461 L14.0862592,5.82960628 L9.01983945,5.82960628 L9.01983945,3.66796461 Z M0.913740821,6.36984377 L2.94026548,6.36984377 L2.94026548,8.53171602 L0.913740821,8.53171602 L0.913740821,6.36984377 Z M3.44695068,6.36984377 L8.51337041,6.36984377 L8.51337041,8.53171602 L3.44695068,8.53171602 L3.44695068,6.36984377 Z M9.01983945,6.36984377 L14.0862592,6.36984377 L14.0862592,8.53171602 L9.01983945,8.53171602 L9.01983945,6.36984377 Z M0.913740821,9.0719535 L2.94026548,9.0719535 L2.94026548,11.2335952 L0.913740821,11.2335952 L0.913740821,9.0719535 Z M3.44695068,9.0719535 L8.51337041,9.0719535 L8.51337041,11.2335952 L3.44695068,11.2335952 L3.44695068,9.0719535 Z M9.01983945,9.0719535 L14.0862592,9.0719535 L14.0862592,11.2335952 L9.01983945,11.2335952 L9.01983945,9.0719535 Z M0.913740821,11.7740632 L2.94026548,11.7740632 L2.94026548,13.9357049 L0.913740821,13.9357049 L0.913740821,11.7740632 Z M3.44695068,11.7740632 L8.51337041,11.7740632 L8.51337041,13.9357049 L3.44695068,13.9357049 L3.44695068,11.7740632 Z M9.01983945,11.7740632 L14.0862592,11.7740632 L14.0862592,13.9357049 L9.01983945,13.9357049 L9.01983945,11.7740632 Z"></path>
                </g>
            </g>
            <g id="Group-2" transform="translate(25.250000, 4.000000)">
                <rect id="Rectangle-3-Copy-5" x="3.2" y="0.186666667" width="1.49333333" height="7.46666667"></rect>
                <polygon id="Rectangle-3-Copy-4" transform="translate(3.946667, 3.733333) rotate(-270.000000) translate(-3.946667, -3.733333) " points="3.2 -4.59780362e-14 4.69333333 -4.59780362e-14 4.69333333 7.46666667 3.2 7.46666667"></polygon>
            </g>
            <g id="Group-2-Copy" transform="translate(68.750000, 4.000000)">
                <rect id="Rectangle-3-Copy-5" x="3.2" y="0.186666667" width="1.49333333" height="7.46666667"></rect>
                <polygon id="Rectangle-3-Copy-4" transform="translate(3.946667, 3.733333) rotate(-270.000000) translate(-3.946667, -3.733333) " points="3.2 -4.57411886e-14 4.69333333 -4.57411886e-14 4.69333333 7.46666667 3.2 7.46666667"></polygon>
            </g>
        </g>
        <g id="Icon-/-notepad-/-white" transform="translate(97.000000, 10.000000)" fill="#FFFFFF">
            <g id="Icon-/-notepad" transform="translate(1.226667, 0.000000)">
                <path d="M13.5384615,1.04205128 L10.2215385,1.04205128 L10.2215385,0.0164102564 L8.78564103,0.0164102564 L4.75282051,0.0184615385 L3.31692308,0.0184615385 L3.31692308,1.04410256 L0,1.04410256 L0,15.8133333 L13.5384615,15.8133333 L13.5384615,1.04205128 Z M4.1374359,0.836923077 L5.57333333,0.836923077 L7.96512821,0.838974359 L9.40102564,0.838974359 L9.40102564,2.65025641 L4.1374359,2.65025641 L4.1374359,0.836923077 Z M12.7179487,14.9907692 L0.820512821,14.9907692 L0.820512821,1.8625641 L3.31692308,1.8625641 L3.31692308,3.46871795 L10.2215385,3.46871795 L10.2215385,1.8625641 L12.7179487,1.8625641 L12.7179487,14.9907692 Z" id="Shape" fill-rule="nonzero"></path>
                <polygon id="Shape" fill-rule="nonzero" points="5.92 10.014359 4.14974359 8.01025641 3.53435897 8.55179487 5.84820513 11.1733333 10.0041026 7.49128205 9.45846154 6.87589744"></polygon>
            </g>
        </g>
        <g id="Icon-/-scraper-white" transform="translate(53.000000, 10.000000)" fill="#FFFFFF">
            <g id="noun_117844_cc">
                <g id="Group" fill-rule="nonzero">
                    <path d="M13.7142857,12.5714286 C13.0841239,12.5714286 12.5714286,13.0841239 12.5714286,13.7142857 C12.5714286,14.3444475 13.0841239,14.8571429 13.7142857,14.8571429 C14.3444475,14.8571429 14.8571429,14.3444475 14.8571429,13.7142857 C14.8571429,13.0841239 14.3444475,12.5714286 13.7142857,12.5714286 Z M13.7142857,14.2857143 C13.3987165,14.2857143 13.1428571,14.0298549 13.1428571,13.7142857 C13.1428571,13.3986817 13.3987165,13.1428571 13.7142857,13.1428571 C14.0298898,13.1428571 14.2857143,13.3986817 14.2857143,13.7142857 C14.2857143,14.0298549 14.0298898,14.2857143 13.7142857,14.2857143 Z" id="Shape"></path>
                    <path d="M15.3592355,12.265346 C15.3432617,12.2493722 15.3264509,12.2344448 15.3089077,12.2205985 C15.1922782,12.1274066 10.6039342,8.44088309 9.66863143,7.68941829 C9.49058314,6.76468337 8.6401716,3.26060274 5.54690989,0.167340971 C5.4353376,0.0557686857 5.28909737,0 5.14285714,0 C4.99661691,0 4.85037669,0.0557686857 4.7388044,0.167340971 L0.167375829,4.73876954 C-0.0558036,4.96194897 -0.0558036,5.32376537 0.167375829,5.54690989 C3.26056777,8.64013674 6.76457869,9.49058314 7.68938337,9.66863143 L12.2239118,15.3130581 C12.2368862,15.3291713 12.2506975,15.3445871 12.265346,15.3592355 C12.6785366,15.7724261 13.2279227,16 13.8122907,16 C14.3966588,16 14.9460449,15.7724261 15.3592355,15.3592355 C16.2122279,14.506243 16.2122279,13.1183385 15.3592355,12.265346 Z M0.571428571,5.14285714 L5.14285714,0.571428571 C8.57142857,4 9.14285714,8 9.14285714,8 L8,9.14285714 C8,9.14285714 4,8.57142857 0.571428571,5.14285714 Z M14.9551827,14.9551827 C14.6395787,15.2707519 14.2259347,15.4285714 13.8122907,15.4285714 C13.3986468,15.4285714 12.9850028,15.2707519 12.6693987,14.9551827 L8.35232983,9.58143834 C8.36868726,9.56832451 8.38905554,9.56190709 8.40405274,9.54690989 L9.54690989,8.40405274 C9.56201171,8.38895091 9.56651091,8.36746651 9.57969446,8.3509696 C10.9257813,9.43247771 14.954555,12.6693987 14.9551827,12.6693987 C15.586356,13.3006069 15.586356,14.3239746 14.9551827,14.9551827 Z" id="Shape"></path>
                </g>
            </g>
        </g>
    </g>
</svg>