<?xml version="1.0" encoding="UTF-8"?>
<svg width="187px" height="65px" viewBox="0 0 187 65" version="1.1" xmlns="http://www.w3.org/2000/svg" xmlns:xlink="http://www.w3.org/1999/xlink">
    <!-- Generator: Sketch 50.2 (55047) - http://www.bohemiancoding.com/sketch -->
    <title>Group 8 Copy</title>
    <desc>Created with Sketch.</desc>
    <defs>
        <linearGradient x1="0%" y1="50%" x2="97.0195087%" y2="50%" id="linearGradient-1">
            <stop stop-color="#E24F4A" offset="0%"></stop>
            <stop stop-color="#FBAA6D" offset="100%"></stop>
        </linearGradient>
    </defs>
    <g id="Web" stroke="none" stroke-width="1" fill="none" fill-rule="evenodd">
        <g id="background-image-copy-2" transform="translate(-784.000000, -228.000000)">
            <g id="Group-3" transform="translate(363.000000, 100.000000)">
                <g id="Group-8-Copy" transform="translate(421.000000, 128.000000)">
                    <rect id="Rectangle-Copy" fill="url(#linearGradient-1)" transform="translate(93.500000, 32.500000) scale(-1, 1) translate(-93.500000, -32.500000) " x="0" y="0" width="187" height="65"></rect>
                    <g id="Group-7" transform="translate(20.000000, 20.000000)" fill="#FFFFFF">
                        <g id="Icon-/-notification-/-white" transform="translate(66.000000, 0.000000)">
                            <path d="M21.7857905,9.84001917 C21.7857905,5.87569267 19.2106577,0.416666666 12.4999999,0.416666667 C5.78934211,0.416666667 3.21420948,5.87603179 3.21420948,9.84035829 L3.21420948,13.8158758 L1.12232572,15.9608172 C0.936908747,16.150725 0.833333333,16.405405 0.833333333,16.6705978 L0.833333333,19.6989499 C0.833333333,20.2432393 1.2751419,20.6840969 1.8198467,20.6840969 L8.40146995,20.6840969 C8.40656382,22.8609157 10.3194829,24.7684723 12.5,24.7684723 C14.6805171,24.7684723 16.5934362,22.8609157 16.5985301,20.6840969 L23.1801533,20.6840969 C23.7251977,20.6840969 24.1666667,20.2429002 24.1666667,19.6989499 L24.1666667,16.6705978 C24.1666667,16.405405 24.0630913,16.150725 23.8776743,15.9608172 L21.7857905,13.8155367 L21.7857905,9.84001917 Z M12.5,22.7978391 C11.3341823,22.7978391 10.3802697,21.700443 10.3748363,20.6837577 L14.6255033,20.6837577 C14.6197303,21.700443 13.6658177,22.7978391 12.5,22.7978391 L12.5,22.7978391 Z M2.80669966,18.7134637 L2.80669966,17.0575351 L5.1875758,14.6165409 L5.1875758,9.84001917 C5.1875758,6.24838684 7.60007876,2.30397454 12.5554391,2.30397454 C17.5107995,2.30397454 19.8127638,6.24838684 19.8127638,9.84001917 L19.8127638,14.6165409 L22.1936399,17.0575351 L22.1936399,18.7134637 L2.80669966,18.7134637 Z" id="Alert-Icon"></path>
                        </g>
                        <g id="Icon-/-Twitter-/-white">
                            <g id="Twitter-black" transform="translate(0.000000, 1.666667)">
                                <path d="M25,2.46629323 C24.0814109,2.88461563 23.092387,3.16750937 22.0549391,3.29390885 C23.1143979,2.64385469 23.9273344,1.6130974 24.3103245,0.385217188 C23.3183661,0.987119271 22.2222224,1.42500313 21.0512417,1.65974479 C20.1179786,0.638016146 18.7841167,0 17.3079182,0 C14.4773141,0 12.1808417,2.35494167 12.1808417,5.25911875 C12.1808417,5.67142187 12.2248635,6.07168646 12.3129073,6.45690365 C8.05012604,6.23720937 4.27158542,4.1456 1.74032969,0.960033854 C1.29864427,1.73949687 1.04625208,2.64385469 1.04625208,3.60689792 C1.04625208,5.43066094 1.9516349,7.04074896 3.32805052,7.98423021 C2.48870104,7.95864948 1.69630781,7.71939323 1.00369792,7.32815677 L1.00369792,7.39286146 C1.00369792,9.94191667 2.77190833,12.0681354 5.11973958,12.5496568 C4.68979271,12.6730469 4.23636771,12.7347417 3.76826927,12.7347417 C3.43810521,12.7347417 3.11527865,12.7031422 2.80272344,12.6414469 C3.45571406,14.7300469 5.34865312,16.2513542 7.59376667,16.2919828 C5.8387625,17.7034427 3.62593177,18.544601 1.22380677,18.544601 C0.810001563,18.544601 0.400598438,18.520525 0,18.4723729 C2.27005938,19.9620802 4.96713021,20.8333333 7.86229948,20.8333333 C17.2976464,20.8333333 22.455538,12.820513 22.455538,5.87004948 C22.455538,5.64132656 22.4511359,5.41260365 22.4423312,5.18839531 C23.444562,4.44655104 24.3147266,3.52112656 25,2.46629323" id="Twitter" fill-rule="nonzero"></path>
                            </g>
                        </g>
                        <g id="Group-Copy" transform="translate(39.000000, 5.000000)">
                            <rect id="Rectangle-3" x="5.6" y="0" width="2.8" height="14"></rect>
                            <rect id="Rectangle-3-Copy" transform="translate(7.000000, 6.650000) rotate(-270.000000) translate(-7.000000, -6.650000) " x="5.6" y="-0.35" width="2.8" height="14"></rect>
                        </g>
                    </g>
                </g>
            </g>
        </g>
    </g>
</svg>