<?xml version="1.0" encoding="UTF-8"?>
<svg width="187px" height="35px" viewBox="0 0 187 35" version="1.1" xmlns="http://www.w3.org/2000/svg" xmlns:xlink="http://www.w3.org/1999/xlink">
    <!-- Generator: Sketch 53.2 (72643) - https://sketchapp.com -->
    <title>Tutorial-4</title>
    <desc>Created with Sketch.</desc>
    <defs>
        <linearGradient x1="0%" y1="50%" x2="97.0195087%" y2="50%" id="linearGradient-1">
            <stop stop-color="#E24F4A" offset="0%"></stop>
            <stop stop-color="#FBAA6D" offset="100%"></stop>
        </linearGradient>
    </defs>
    <g id="Tutorial-4" stroke="none" stroke-width="1" fill="none" fill-rule="evenodd">
        <rect id="Rectangle-Copy" fill="url(#linearGradient-1)" transform="translate(93.500000, 22.500000) scale(-1, 1) translate(-93.500000, -22.500000) " x="0" y="0" width="187" height="45"></rect>
        <g id="Group-2" transform="translate(35.250000, 14.000000)" fill="#FFFFFF">
            <rect id="Rectangle-3-Copy-5" x="3.2" y="0.186666667" width="1.49333333" height="7.46666667"></rect>
            <polygon id="Rectangle-3-Copy-4" transform="translate(3.946667, 3.733333) rotate(-270.000000) translate(-3.946667, -3.733333) " points="3.2 -4.59780362e-14 4.69333333 -4.59780362e-14 4.69333333 7.46666667 3.2 7.46666667"></polygon>
        </g>
        <g id="Group-2-Copy" transform="translate(78.750000, 14.000000)" fill="#FFFFFF">
            <rect id="Rectangle-3-Copy-5" x="3.2" y="0.186666667" width="1.49333333" height="7.46666667"></rect>
            <polygon id="Rectangle-3-Copy-4" transform="translate(3.946667, 3.733333) rotate(-270.000000) translate(-3.946667, -3.733333) " points="3.2 -4.57411886e-14 4.69333333 -4.57411886e-14 4.69333333 7.46666667 3.2 7.46666667"></polygon>
        </g>
        <g id="Icon-/-notification-/-white" transform="translate(97.000000, 10.000000)" fill="#FFFFFF">
            <path d="M13.9429059,6.29761227 C13.9429059,3.76044331 12.2948209,0.266666667 7.99999994,0.266666667 C3.70517895,0.266666667 2.05709407,3.76066035 2.05709407,6.2978293 L2.05709407,8.8421605 L0.718288459,10.214923 C0.599621598,10.336464 0.533333333,10.4994592 0.533333333,10.6691826 L0.533333333,12.6073279 C0.533333333,12.9556732 0.816090816,13.237822 1.16470189,13.237822 L5.37694077,13.237822 C5.38020084,14.630986 6.60446902,15.8518222 8,15.8518222 C9.39553098,15.8518222 10.6197992,14.630986 10.6230592,13.237822 L14.8352981,13.237822 C15.1841265,13.237822 15.4666667,12.9554561 15.4666667,12.6073279 L15.4666667,10.6691826 C15.4666667,10.4994592 15.4003784,10.336464 15.2817115,10.214923 L13.9429059,8.84194346 L13.9429059,6.29761227 Z M8,14.590617 C7.25387668,14.590617 6.64337263,13.8882835 6.63989521,13.237605 L9.36032213,13.237605 C9.35662737,13.8882835 8.74612332,14.590617 8,14.590617 L8,14.590617 Z M1.79628778,11.9766168 L1.79628778,10.9168224 L3.32004851,9.35458616 L3.32004851,6.29761227 C3.32004851,3.99896758 4.86405041,1.47454371 8.03548104,1.47454371 C11.2069117,1.47454371 12.6801688,3.99896758 12.6801688,6.29761227 L12.6801688,9.35458616 L14.2039296,10.9168224 L14.2039296,11.9766168 L1.79628778,11.9766168 Z" id="Alert-Icon"></path>
        </g>
        <g id="Brand-/-Twitter-white" transform="translate(10.000000, 10.000000)" fill="#FFFFFF">
            <g id="Twitter-black" transform="translate(0.000000, 1.133333)">
                <path d="M17,1.6770794 C16.3753594,1.96153863 15.7028231,2.15390637 14.9973586,2.23985802 C15.7177906,1.79782119 16.2705874,1.09690623 16.5310206,0.261947688 C15.856489,0.671241104 15.1111112,0.969002125 14.3148443,1.12862646 C13.6802255,0.433850979 12.7731993,0 11.7693844,0 C9.84457356,0 8.28297233,1.60136033 8.28297233,3.57620075 C8.28297233,3.85656687 8.31290721,4.12874679 8.37277696,4.39069448 C5.47408571,4.24130237 2.90467808,2.819008 1.18342419,0.652823021 C0.883078104,1.18285787 0.711451417,1.79782119 0.711451417,2.45269058 C0.711451417,3.69284944 1.32711173,4.78770929 2.26307435,5.42927654 C1.69231671,5.41188165 1.15348931,5.2491874 0.682514583,4.9831466 L0.682514583,5.02714579 C0.682514583,6.76050333 1.88489767,8.20633208 3.48142292,8.5337666 C3.18905904,8.61767187 2.88073004,8.65962433 2.5624231,8.65962433 C2.33791154,8.65962433 2.11838948,8.63813669 1.90585194,8.59618388 C2.34988556,10.0164319 3.63708412,11.0509208 5.16376133,11.0785483 C3.9703585,12.038341 2.4656336,12.6103287 0.832188604,12.6103287 C0.550801063,12.6103287 0.272406938,12.593957 0,12.5612136 C1.54364038,13.5742145 3.37764854,14.1666667 5.34636365,14.1666667 C11.7623995,14.1666667 15.2697659,8.71794885 15.2697659,3.99163365 C15.2697659,3.83610206 15.2667724,3.68057048 15.2607852,3.52810881 C15.9423021,3.02365471 16.5340141,2.39436606 17,1.6770794" id="Twitter" fill-rule="nonzero"></path>
            </g>
        </g>
        <g id="Icon-/-Chart-/-white" transform="translate(52.000000, 9.000000)" fill="#FFFFFF">
            <g id="Group-2" transform="translate(1.200000, 1.200000)">
                <g id="Group" transform="translate(0.694737, 0.694737)">
                    <polygon id="Rectangle-path" points="7.89473684 1.63102213 10.2631579 1.63102213 10.2631579 10.6686016 7.89473684 10.6686016"></polygon>
                    <rect id="Rectangle-path" x="11.8421053" y="0" width="2.36842105" height="10.9402278"></rect>
                    <polygon id="Rectangle-path" points="0 12.6315789 14.2105263 12.6315789 14.2105263 14.0585652 0 14.0585652"></polygon>
                    <polygon id="Rectangle-path" points="0 3.15789474 2.36842105 3.15789474 2.36842105 10.768488 0 10.768488"></polygon>
                    <rect id="Rectangle-path" x="3.94736842" y="4.4849946" width="2.36842105" height="6.18360701"></rect>
                </g>
            </g>
        </g>
    </g>
</svg>