<?xml version="1.0" encoding="UTF-8"?>
<svg width="187px" height="45px" viewBox="0 0 187 45" version="1.1" xmlns="http://www.w3.org/2000/svg" xmlns:xlink="http://www.w3.org/1999/xlink">
    <!-- Generator: Sketch 50.2 (55047) - http://www.bohemiancoding.com/sketch -->
    <title>Group 8 Copy</title>
    <desc>Created with Sketch.</desc>
    <defs>
        <linearGradient x1="0%" y1="50%" x2="97.0195087%" y2="50%" id="linearGradient-1">
            <stop stop-color="#E24F4A" offset="0%"></stop>
            <stop stop-color="#FBAA6D" offset="100%"></stop>
        </linearGradient>
    </defs>
    <g id="Web" stroke="none" stroke-width="1" fill="none" fill-rule="evenodd">
        <g id="background-image-copy-3" transform="translate(-784.000000, -238.000000)">
            <g id="Group-3" transform="translate(363.000000, 100.000000)">
                <g id="Group-8-Copy" transform="translate(421.000000, 138.000000)">
                    <rect id="Rectangle-Copy" fill="url(#linearGradient-1)" transform="translate(93.500000, 22.500000) scale(-1, 1) translate(-93.500000, -22.500000) " x="0" y="0" width="187" height="45"></rect>
                    <g id="Group-7" transform="translate(20.000000, 13.000000)" fill="#FFFFFF">
                        <g id="Icon-/-notification-/-white" transform="translate(57.000000, 0.000000)">
                            <path d="M15.6857692,7.0848138 C15.6857692,4.23049872 13.8316735,0.3 8.99999993,0.3 C4.16832632,0.3 2.31423083,4.23074289 2.31423083,7.08505797 L2.31423083,9.94743056 L0.808074516,11.4917884 C0.674574298,11.628522 0.6,11.8118916 0.6,12.0028304 L0.6,14.1832439 C0.6,14.5751323 0.918102169,14.8925497 1.31028962,14.8925497 L6.04905836,14.8925497 C6.05272595,16.4598593 7.43002765,17.8333 9,17.8333 C10.5699723,17.8333 11.9472741,16.4598593 11.9509416,14.8925497 L16.6897104,14.8925497 C17.0821423,14.8925497 17.4,14.5748882 17.4,14.1832439 L17.4,12.0028304 C17.4,11.8118916 17.3254257,11.628522 17.1919255,11.4917884 L15.6857692,9.9471864 L15.6857692,7.0848138 Z M9,16.4144442 C8.16061126,16.4144442 7.47379421,15.624319 7.46988211,14.8923056 L10.5303624,14.8923056 C10.5262058,15.624319 9.83938874,16.4144442 9,16.4144442 L9,16.4144442 Z M2.02082375,13.4736939 L2.02082375,12.2814252 L3.73505458,10.5239094 L3.73505458,7.0848138 C3.73505458,4.49883852 5.47205671,1.65886167 9.03991617,1.65886167 C12.6077756,1.65886167 14.2651899,4.49883852 14.2651899,7.0848138 L14.2651899,10.5239094 L15.9794208,12.2814252 L15.9794208,13.4736939 L2.02082375,13.4736939 Z" id="Alert-Icon"></path>
                        </g>
                        <g id="Icon-/-Twitter-/-white">
                            <g id="Twitter-black" transform="translate(0.000000, 1.333333)">
                                <path d="M20,1.97303458 C19.2651288,2.3076925 18.4739096,2.5340075 17.6439513,2.63512708 C18.4915183,2.11508375 19.1418675,1.29047792 19.4482596,0.30817375 C18.6546929,0.789695417 17.7777779,1.1400025 16.8409933,1.32779583 C16.0943829,0.510412917 15.0272933,0 13.8463346,0 C11.5818513,0 9.74467333,1.88395333 9.74467333,4.207295 C9.74467333,4.5371375 9.77989083,4.85734917 9.85032583,5.16552292 C6.44010083,4.9897675 3.41726833,3.31648 1.39226375,0.768027083 C1.03891542,1.3915975 0.837001667,2.11508375 0.837001667,2.88551833 C0.837001667,4.34452875 1.56130792,5.63259917 2.66244042,6.38738417 C1.99096083,6.36691958 1.35704625,6.17551458 0.802958333,5.86252542 L0.802958333,5.91428917 C0.802958333,7.95353333 2.21752667,9.65450833 4.09579167,10.0397254 C3.75183417,10.1384375 3.38909417,10.1877933 3.01461542,10.1877933 C2.75048417,10.1877933 2.49222292,10.1625137 2.24217875,10.1131575 C2.76457125,11.7840375 4.2789225,13.0010833 6.07501333,13.0335862 C4.67101,14.1627542 2.90074542,14.8356808 0.979045417,14.8356808 C0.64800125,14.8356808 0.32047875,14.81642 0,14.7778983 C1.8160475,15.9696642 3.97370417,16.6666667 6.28983958,16.6666667 C13.8381171,16.6666667 17.9644304,10.2564104 17.9644304,4.69603958 C17.9644304,4.51306125 17.9609087,4.33008292 17.953865,4.15071625 C18.7556496,3.55724083 19.4517813,2.81690125 20,1.97303458" id="Twitter" fill-rule="nonzero"></path>
                            </g>
                        </g>
                        <g id="Group-Copy" transform="translate(30.000000, 2.000000)">
                            <rect id="Rectangle-3" x="5.6" y="0" width="2.8" height="14"></rect>
                            <rect id="Rectangle-3-Copy" transform="translate(7.000000, 6.650000) rotate(-270.000000) translate(-7.000000, -6.650000) " x="5.6" y="-0.35" width="2.8" height="14"></rect>
                        </g>
                    </g>
                </g>
            </g>
        </g>
    </g>
</svg>