<?xml version="1.0" encoding="UTF-8"?>
<svg width="187px" height="35px" viewBox="0 0 187 35" version="1.1" xmlns="http://www.w3.org/2000/svg" xmlns:xlink="http://www.w3.org/1999/xlink">
    <!-- Generator: Sketch 53.2 (72643) - https://sketchapp.com -->
    <title>Totorial-3</title>
    <desc>Created with Sketch.</desc>
    <defs>
        <linearGradient x1="0%" y1="50%" x2="97.0195087%" y2="50%" id="linearGradient-1">
            <stop stop-color="#48C8D7" offset="2.88565751%"></stop>
            <stop stop-color="#FBAA6D" offset="100%"></stop>
        </linearGradient>
    </defs>
    <g id="Totorial-3" stroke="none" stroke-width="1" fill="none" fill-rule="evenodd">
        <rect id="Rectangle-Copy" fill="url(#linearGradient-1)" x="0" y="0" width="187" height="45"></rect>
        <g id="Group-2" transform="translate(35.250000, 14.000000)" fill="#FFFFFF">
            <rect id="Rectangle-3-Copy-5" x="3.2" y="0.186666667" width="1.49333333" height="7.46666667"></rect>
            <polygon id="Rectangle-3-Copy-4" transform="translate(3.946667, 3.733333) rotate(-270.000000) translate(-3.946667, -3.733333) " points="3.2 -4.59780362e-14 4.69333333 -4.59780362e-14 4.69333333 7.46666667 3.2 7.46666667"></polygon>
        </g>
        <g id="Group-2-Copy" transform="translate(78.750000, 14.000000)" fill="#FFFFFF">
            <rect id="Rectangle-3-Copy-5" x="3.2" y="0.186666667" width="1.49333333" height="7.46666667"></rect>
            <polygon id="Rectangle-3-Copy-4" transform="translate(3.946667, 3.733333) rotate(-270.000000) translate(-3.946667, -3.733333) " points="3.2 -4.57411886e-14 4.69333333 -4.57411886e-14 4.69333333 7.46666667 3.2 7.46666667"></polygon>
        </g>
        <g id="Icon-/-notification-/-white" transform="translate(97.000000, 10.000000)" fill="#FFFFFF">
            <path d="M13.0714743,5.9040115 C13.0714743,3.5254156 11.5263946,0.25 7.49999994,0.25 C3.47360527,0.25 1.92852569,3.52561908 1.92852569,5.90421497 L1.92852569,8.28952547 L0.67339543,9.57649031 C0.562145248,9.69043503 0.5,9.84324303 0.5,10.0023587 L0.5,11.8193699 C0.5,12.1459436 0.76508514,12.4104581 1.09190802,12.4104581 L5.04088197,12.4104581 C5.04393829,13.7165494 6.19168971,14.8610834 7.5,14.8610834 C8.80831029,14.8610834 9.95606171,13.7165494 9.95911803,12.4104581 L13.908092,12.4104581 C14.2351186,12.4104581 14.5,12.1457401 14.5,11.8193699 L14.5,10.0023587 C14.5,9.84324303 14.4378548,9.69043503 14.3266046,9.57649031 L13.0714743,8.289322 L13.0714743,5.9040115 Z M7.5,13.6787035 C6.80050939,13.6787035 6.22816184,13.0202658 6.22490176,12.4102546 L8.77530199,12.4102546 C8.77183816,13.0202658 8.19949061,13.6787035 7.5,13.6787035 L7.5,13.6787035 Z M1.68401979,11.2280782 L1.68401979,10.234521 L3.11254548,8.76992452 L3.11254548,5.9040115 C3.11254548,3.7490321 4.56004726,1.38238472 7.53326348,1.38238472 C10.5064797,1.38238472 11.8876583,3.7490321 11.8876583,5.9040115 L11.8876583,8.76992452 L13.316184,10.234521 L13.316184,11.2280782 L1.68401979,11.2280782 Z" id="Alert-Icon"></path>
        </g>
        <g id="Icon-/-scraper-white" transform="translate(53.000000, 10.000000)" fill="#FFFFFF">
            <g id="noun_117844_cc">
                <g id="Group" fill-rule="nonzero">
                    <path d="M13.7142857,12.5714286 C13.0841239,12.5714286 12.5714286,13.0841239 12.5714286,13.7142857 C12.5714286,14.3444475 13.0841239,14.8571429 13.7142857,14.8571429 C14.3444475,14.8571429 14.8571429,14.3444475 14.8571429,13.7142857 C14.8571429,13.0841239 14.3444475,12.5714286 13.7142857,12.5714286 Z M13.7142857,14.2857143 C13.3987165,14.2857143 13.1428571,14.0298549 13.1428571,13.7142857 C13.1428571,13.3986817 13.3987165,13.1428571 13.7142857,13.1428571 C14.0298898,13.1428571 14.2857143,13.3986817 14.2857143,13.7142857 C14.2857143,14.0298549 14.0298898,14.2857143 13.7142857,14.2857143 Z" id="Shape"></path>
                    <path d="M15.3592355,12.265346 C15.3432617,12.2493722 15.3264509,12.2344448 15.3089077,12.2205985 C15.1922782,12.1274066 10.6039342,8.44088309 9.66863143,7.68941829 C9.49058314,6.76468337 8.6401716,3.26060274 5.54690989,0.167340971 C5.4353376,0.0557686857 5.28909737,0 5.14285714,0 C4.99661691,0 4.85037669,0.0557686857 4.7388044,0.167340971 L0.167375829,4.73876954 C-0.0558036,4.96194897 -0.0558036,5.32376537 0.167375829,5.54690989 C3.26056777,8.64013674 6.76457869,9.49058314 7.68938337,9.66863143 L12.2239118,15.3130581 C12.2368862,15.3291713 12.2506975,15.3445871 12.265346,15.3592355 C12.6785366,15.7724261 13.2279227,16 13.8122907,16 C14.3966588,16 14.9460449,15.7724261 15.3592355,15.3592355 C16.2122279,14.506243 16.2122279,13.1183385 15.3592355,12.265346 Z M0.571428571,5.14285714 L5.14285714,0.571428571 C8.57142857,4 9.14285714,8 9.14285714,8 L8,9.14285714 C8,9.14285714 4,8.57142857 0.571428571,5.14285714 Z M14.9551827,14.9551827 C14.6395787,15.2707519 14.2259347,15.4285714 13.8122907,15.4285714 C13.3986468,15.4285714 12.9850028,15.2707519 12.6693987,14.9551827 L8.35232983,9.58143834 C8.36868726,9.56832451 8.38905554,9.56190709 8.40405274,9.54690989 L9.54690989,8.40405274 C9.56201171,8.38895091 9.56651091,8.36746651 9.57969446,8.3509696 C10.9257813,9.43247771 14.954555,12.6693987 14.9551827,12.6693987 C15.586356,13.3006069 15.586356,14.3239746 14.9551827,14.9551827 Z" id="Shape"></path>
                </g>
            </g>
        </g>
        <g id="Icon-/-Globe-/-white" transform="translate(10.000000, 10.000000)" fill="#FFFFFF">
            <g id="World-Wide-web-Gray">
                <path d="M0.0166458333,9.13806344 L0.0166458333,7.79342136 C0.0278020833,7.75356182 0.0456875,7.71405502 0.0492291667,7.67349001 C0.153885417,6.49428264 0.492114583,5.38350669 1.08339583,4.35915186 C2.35609375,2.15488418 4.23795833,0.757154836 6.73465625,0.198944946 C7.09360417,0.118696763 7.46122917,0.0765444209 7.82495833,0.0165787455 L9.17504167,0.0165787455 C9.22161458,0.0278664021 9.26765625,0.0453269958 9.31476042,0.0492071277 C9.94039583,0.100177952 10.5539896,0.219227454 11.1440312,0.4280491 C14.1062812,1.47568472 15.9893854,3.51681049 16.7793542,6.54842812 C16.8730312,6.90822217 16.9164167,7.28124394 16.9831771,7.64791641 L16.9831771,9.3195478 C16.9348333,9.59098066 16.8893229,9.86311901 16.8379687,10.1338464 C16.2259687,13.3534741 13.5952187,16.0397599 10.3744271,16.7290125 C10.0259271,16.8036168 9.67229167,16.8533531 9.32095833,16.9147297 L7.67904167,16.9147297 C7.47114583,16.8796321 7.26325,16.8448873 7.05535417,16.8096134 C3.65464583,16.2327083 0.905427083,13.6026843 0.19921875,10.2435483 C0.122364583,9.8782868 0.0768541667,9.50667598 0.0166458333,9.13806344 L0.0166458333,9.13806344 Z M6.54747917,4.92900214 C6.37960417,6.03201783 6.31213542,7.1258623 6.29761458,8.22323416 L10.7115937,8.22323416 C10.7089375,7.11316368 10.6265937,6.0205538 10.4668646,4.92900214 L6.54747917,4.92900214 L6.54747917,4.92900214 Z M6.24696875,8.81936352 C6.34525,9.87458303 6.44636458,10.902818 6.53207292,11.9322875 C6.54677083,12.1083044 6.61707292,12.1326434 6.768125,12.131938 C7.92908333,12.127176 9.09021875,12.1292924 10.2513542,12.1292924 L10.4498646,12.1292924 C10.6182708,11.0167528 10.7029167,9.92396653 10.712125,8.81936352 C9.22869792,8.81936352 7.77236458,8.81936352 6.24696875,8.81936352 L6.24696875,8.81936352 Z M10.3680521,4.33534196 C10.1973437,3.42280547 9.99476042,2.53831176 9.58923958,1.71978029 C9.42791667,1.39402558 9.21470833,1.08185133 8.97157292,0.811300313 C8.69125,0.499302432 8.34611458,0.50988461 8.04241667,0.803716419 C7.87489583,0.965800112 7.72951042,1.1592776 7.6085625,1.35910439 C7.27352083,1.91219956 7.07607292,2.52296761 6.912625,3.14378871 C6.81027083,3.53286013 6.72810417,3.92722263 6.6331875,4.33534196 L10.3680521,4.33534196 L10.3680521,4.33534196 Z M6.67409375,12.7206598 C6.67958333,12.7626358 6.68188542,12.7917368 6.687375,12.8201323 C6.84869792,13.6582408 7.06367708,14.4806524 7.42988542,15.2561497 C7.5905,15.5961903 7.77590625,15.9231796 8.07092708,16.1713317 C8.35603125,16.4113708 8.6445,16.4279495 8.92305208,16.181032 C9.09234375,16.0309415 9.24215625,15.847517 9.36115625,15.654745 C9.81519792,14.9196364 10.0397396,14.0974012 10.2338229,13.2661711 C10.2756146,13.0875086 10.3094375,12.9070825 10.3482187,12.7206598 C9.10863542,12.7206598 7.89703125,12.7206598 6.67409375,12.7206598 L6.67409375,12.7206598 Z M14.0163229,8.22499785 C14.0110104,8.12041066 14.0056979,8.03628234 14.0023333,7.95180129 C13.9628437,6.97929913 13.7900104,6.03131235 13.4905625,5.1046663 C13.4471771,4.97062538 13.3958229,4.91542168 13.2424687,4.91789086 C12.5798229,4.9286494 11.917,4.92247647 11.2543542,4.92247647 L11.0933854,4.92247647 C11.1737812,6.03536885 11.2527604,7.12974243 11.3317396,8.22482148 C12.2127292,8.22499785 13.1050521,8.22499785 14.0163229,8.22499785 L14.0163229,8.22499785 Z M5.91954167,4.92265284 L5.76158333,4.92265284 C5.10566667,4.92265284 4.44975,4.92917851 3.79401042,4.9182436 C3.63003125,4.91542168 3.563625,4.9699199 3.5158125,5.11912861 C3.23548958,5.99251103 3.07416667,6.88705781 3.01325,7.80047614 C3.00386458,7.94174822 3.01201042,8.08407852 3.01201042,8.21847218 L5.68047917,8.21847218 C5.76034375,7.11774929 5.83896875,6.03378153 5.91954167,4.92265284 L5.91954167,4.92265284 Z M5.68136458,8.82377276 L3.01201042,8.82377276 C3.00953125,8.8717453 3.00475,8.90754833 3.00616667,8.94299863 C3.05008333,9.98798871 3.23442708,11.0066997 3.57619792,11.9970152 C3.61338542,12.104777 3.66952083,12.1317616 3.77470833,12.1312325 C4.4614375,12.1277051 5.14834375,12.1298215 5.83507292,12.1289397 C5.875625,12.1289397 5.91635417,12.119063 5.935125,12.1165938 C5.85047917,11.0160473 5.76636458,9.92678844 5.68136458,8.82377276 L5.68136458,8.82377276 Z M11.3320937,8.81918715 C11.2467396,9.92784666 11.162625,11.0209856 11.0774479,12.1287633 C11.8091562,12.1287633 12.5560937,12.130527 13.3028542,12.1241777 C13.3439375,12.123825 13.406625,12.065623 13.4222083,12.0213542 C13.7862917,10.9878282 13.9823229,9.92361379 14.0065833,8.81918715 C13.1046979,8.81918715 12.2125521,8.81918715 11.3320937,8.81918715 L11.3320937,8.81918715 Z M2.41860417,8.22464511 C2.43861458,7.08723735 2.62614583,5.99797849 2.97128125,4.92247647 C2.49386458,4.92247647 2.03840625,4.92706208 1.583125,4.91930181 C1.4651875,4.91736175 1.41595833,4.96374696 1.3685,5.0628667 C1.03133333,5.76587605 0.799708333,6.50133743 0.682833333,7.27083814 C0.635197917,7.58389423 0.615364583,7.90118321 0.581895833,8.22464511 L2.41860417,8.22464511 L2.41860417,8.22464511 Z M14.0384583,4.92265284 C14.3975833,6.01155895 14.5661667,7.10452157 14.5992812,8.22147046 L16.4209375,8.22147046 C16.4019896,7.98689885 16.3899479,7.76502585 16.3649792,7.54474018 C16.2654583,6.66730125 16.0189583,5.83166193 15.6260104,5.04011501 C15.6001562,4.98808597 15.5245417,4.9286494 15.4708854,4.92759119 C15.0044479,4.91894907 14.5374792,4.92265284 14.0384583,4.92265284 L14.0384583,4.92265284 Z M14.5937917,8.82095084 C14.5615625,9.94707095 14.3678333,11.0412682 14.0056979,12.1287633 C14.5050729,12.1287633 14.9720417,12.1328198 15.4386562,12.1229431 C15.4894792,12.1218849 15.5573021,12.0490442 15.5852812,11.9936642 C15.8914583,11.3864235 16.1264479,10.7521983 16.2518229,10.0834047 C16.3292083,9.67087611 16.3766667,9.25270371 16.4398854,8.82112721 C15.8043333,8.82095084 15.2169479,8.82095084 14.5937917,8.82095084 L14.5937917,8.82095084 Z M2.41913542,8.8241255 L0.5875625,8.8241255 C0.61571875,9.07897962 0.6385625,9.31937143 0.669552083,9.55870502 C0.781822917,10.4241508 1.04727083,11.2428586 1.44252083,12.0201196 C1.46554167,12.0654466 1.52433333,12.1229431 1.5671875,12.1236486 C2.04017708,12.1310561 2.51316667,12.1282342 3.00953125,12.1282342 C2.64403125,11.0460301 2.45419792,9.95483122 2.41913542,8.8241255 L2.41913542,8.8241255 Z M9.7835,0.816767772 C10.4496875,1.90426293 10.7197396,3.12068429 10.9678333,4.33763476 L13.2017396,4.33763476 C12.4691458,2.74995532 11.4806667,1.44482004 9.7835,0.816767772 L9.7835,0.816767772 Z M3.80853125,4.34468955 C4.55245833,4.34468955 5.25052083,4.34698235 5.94822917,4.33904572 C5.99108333,4.33851661 6.06120833,4.26109034 6.07130208,4.21011952 C6.22377083,3.43321128 6.40067708,2.66212325 6.69888542,1.92648551 C6.85135417,1.55011271 7.04225,1.18908407 7.22783333,0.795427046 C5.53403125,1.44922928 4.54502083,2.74748615 3.80853125,4.34468955 L3.80853125,4.34468955 Z M7.23226042,16.129003 C6.58307292,15.0748417 6.3123125,13.8981035 6.06758333,12.7236581 L3.86254167,12.7236581 C4.60115625,14.2642468 5.58078125,15.524937 7.23226042,16.129003 L7.23226042,16.129003 Z M9.747375,16.1635714 C11.4335625,15.5198223 12.4181458,14.2623068 13.1487917,12.7224235 L10.9474687,12.7224235 C10.4326875,14.8811878 10.4218854,14.9122289 9.747375,16.1635714 L9.747375,16.1635714 Z M5.22785417,1.31395377 C3.77807292,1.97604537 2.63128125,2.97323928 1.76676042,4.34486592 C2.23479167,4.34486592 2.6594375,4.34892242 3.08372917,4.33957483 C3.13526042,4.33851661 3.20591667,4.27608176 3.23247917,4.22422909 C3.37025,3.95561814 3.48747917,3.67660138 3.62879167,3.40993049 C4.04511458,2.62385104 4.57423958,1.92189989 5.22785417,1.31395377 L5.22785417,1.31395377 Z M15.2481146,4.34486592 C14.3821771,2.98364509 13.2518542,1.98504022 11.8181875,1.32982704 C11.9996979,1.54270518 12.1989167,1.73759363 12.3820208,1.94641527 C12.9745417,2.62244008 13.4204375,3.3884134 13.77425,4.21117774 C13.7985104,4.26761602 13.8764271,4.33763476 13.9309687,4.33904572 C14.3557917,4.34945153 14.7809687,4.34486592 15.2481146,4.34486592 L15.2481146,4.34486592 Z M11.7728542,15.6549214 C13.1912917,14.9912425 14.3136458,14.0298516 15.1783437,12.7083139 C14.7395312,12.7083139 14.3412708,12.713605 13.9431875,12.7051393 C13.8197604,12.7024937 13.763625,12.7442933 13.7158125,12.8552298 C13.4250417,13.5296673 13.0639687,14.1653035 12.5982396,14.7353301 C12.3439479,15.0462698 12.0618542,15.3346341 11.7728542,15.6549214 L11.7728542,15.6549214 Z M1.83440625,12.7090194 C2.69202083,14.0120383 3.79330208,14.9713127 5.18128125,15.6044797 C5.01641667,15.4062402 4.83225,15.2270487 4.66260417,15.0351585 C4.08796875,14.3852364 3.64596875,13.6517151 3.29463542,12.8614028 C3.26771875,12.8007316 3.198125,12.7171324 3.14623958,12.7155451 C2.72336458,12.7037283 2.30013542,12.7090194 1.83440625,12.7090194 L1.83440625,12.7090194 Z" id="world-wide-web-gray"></path>
            </g>
        </g>
    </g>
</svg>