<?xml version="1.0" encoding="UTF-8"?>
<svg width="187px" height="35px" viewBox="0 0 187 35" version="1.1" xmlns="http://www.w3.org/2000/svg" xmlns:xlink="http://www.w3.org/1999/xlink">
    <!-- Generator: Sketch 53.2 (72643) - https://sketchapp.com -->
    <title>Lesson-12</title>
    <desc>Created with Sketch.</desc>
    <defs>
        <linearGradient x1="0%" y1="50%" x2="97.0195087%" y2="50%" id="linearGradient-1">
            <stop stop-color="#48C8D7" offset="2.88565751%"></stop>
            <stop stop-color="#FBAA6D" offset="100%"></stop>
        </linearGradient>
    </defs>
    <g id="Lesson-12" stroke="none" stroke-width="1" fill="none" fill-rule="evenodd">
        <rect id="Rectangle-Copy" fill="url(#linearGradient-1)" x="0" y="0" width="187" height="45"></rect>
        <g id="Icon-/-Spreadsheet-/-white" transform="translate(10.000000, 10.000000)" fill="#FFFFFF">
            <g id="Spreadsheet" transform="translate(-0.000000, -0.018735)">
                <path d="M0.4688,2.27373675e-12 C0.1876,2.27373675e-12 4.54747351e-13,0.199894755 4.54747351e-13,0.500056889 L4.54747351e-13,14.4999431 C4.54747351e-13,14.8001052 0.1876,15 0.4688,15 L14.5312,15 C14.8124,15 15,14.8001052 15,14.4999431 L15,0.500056889 C15,0.199894755 14.8124,2.27373675e-12 14.5312,2.27373675e-12 L0.4688,2.27373675e-12 Z M0.913740821,0.965854872 L2.94026548,0.965854872 L2.94026548,3.12749655 L0.913740821,3.12749655 L0.913740821,0.965854872 Z M3.44695068,0.965854872 L8.51337041,0.965854872 L8.51337041,3.12749655 L3.44695068,3.12749655 L3.44695068,0.965854872 Z M9.01983945,0.965854872 L14.0862592,0.965854872 L14.0862592,3.12749655 L9.01983945,3.12749655 L9.01983945,0.965854872 Z M0.913740821,3.66796461 L2.94026548,3.66796461 L2.94026548,5.82960628 L0.913740821,5.82960628 L0.913740821,3.66796461 Z M3.44695068,3.66796461 L8.51337041,3.66796461 L8.51337041,5.82960628 L3.44695068,5.82960628 L3.44695068,3.66796461 Z M9.01983945,3.66796461 L14.0862592,3.66796461 L14.0862592,5.82960628 L9.01983945,5.82960628 L9.01983945,3.66796461 Z M0.913740821,6.36984377 L2.94026548,6.36984377 L2.94026548,8.53171602 L0.913740821,8.53171602 L0.913740821,6.36984377 Z M3.44695068,6.36984377 L8.51337041,6.36984377 L8.51337041,8.53171602 L3.44695068,8.53171602 L3.44695068,6.36984377 Z M9.01983945,6.36984377 L14.0862592,6.36984377 L14.0862592,8.53171602 L9.01983945,8.53171602 L9.01983945,6.36984377 Z M0.913740821,9.0719535 L2.94026548,9.0719535 L2.94026548,11.2335952 L0.913740821,11.2335952 L0.913740821,9.0719535 Z M3.44695068,9.0719535 L8.51337041,9.0719535 L8.51337041,11.2335952 L3.44695068,11.2335952 L3.44695068,9.0719535 Z M9.01983945,9.0719535 L14.0862592,9.0719535 L14.0862592,11.2335952 L9.01983945,11.2335952 L9.01983945,9.0719535 Z M0.913740821,11.7740632 L2.94026548,11.7740632 L2.94026548,13.9357049 L0.913740821,13.9357049 L0.913740821,11.7740632 Z M3.44695068,11.7740632 L8.51337041,11.7740632 L8.51337041,13.9357049 L3.44695068,13.9357049 L3.44695068,11.7740632 Z M9.01983945,11.7740632 L14.0862592,11.7740632 L14.0862592,13.9357049 L9.01983945,13.9357049 L9.01983945,11.7740632 Z"></path>
            </g>
        </g>
        <g id="Icon-/-Math-/-white" transform="translate(54.000000, 10.000000)" fill="#FFFFFF">
            <g id="noun_Math_1987636">
                <g id="Group">
                    <path d="M12.375,0 L2.625,0 C1.17525253,0 0,1.17525253 0,2.625 L0,12.375 C0,13.8247475 1.17525253,15 2.625,15 L12.375,15 C13.8247475,15 15,13.8247475 15,12.375 L15,2.625 C15,1.17525253 13.8247475,0 12.375,0 Z M14.25,12.375 C14.25,13.4105339 13.4105339,14.25 12.375,14.25 L2.625,14.25 C1.58946609,14.25 0.75,13.4105339 0.75,12.375 L0.75,2.625 C0.75,1.58946609 1.58946609,0.75 2.625,0.75 L12.375,0.75 C13.4105339,0.75 14.25,1.58946609 14.25,2.625 L14.25,12.375 Z" id="Shape" fill-rule="nonzero"></path>
                    <path d="M5.625,10.125 L4.3125,10.125 L4.3125,9 C4.3125,8.79289322 4.14460678,8.625 3.9375,8.625 C3.73039322,8.625 3.5625,8.79289322 3.5625,9 L3.5625,10.125 L2.25,10.125 C2.04289322,10.125 1.875,10.2928932 1.875,10.5 C1.875,10.7071068 2.04289322,10.875 2.25,10.875 L3.5625,10.875 L3.5625,12.1875 C3.5625,12.3946068 3.73039322,12.5625 3.9375,12.5625 C4.14460678,12.5625 4.3125,12.3946068 4.3125,12.1875 L4.3125,10.875 L5.625,10.875 C5.83210678,10.875 6,10.7071068 6,10.5 C6,10.2928932 5.83210678,10.125 5.625,10.125 Z" id="Path"></path>
                    <path d="M5.625,3.9375 L2.25,3.9375 C2.04289322,3.9375 1.875,4.10539322 1.875,4.3125 C1.875,4.51960678 2.04289322,4.6875 2.25,4.6875 L5.625,4.6875 C5.83210678,4.6875 6,4.51960678 6,4.3125 C6,4.10539322 5.83210678,3.9375 5.625,3.9375 Z" id="Path"></path>
                    <path d="M12.375,11.25 L9,11.25 C8.79289322,11.25 8.625,11.4178932 8.625,11.625 C8.625,11.8321068 8.79289322,12 9,12 L12.375,12 C12.5821068,12 12.75,11.8321068 12.75,11.625 C12.75,11.4178932 12.5821068,11.25 12.375,11.25 Z" id="Path"></path>
                    <path d="M12.375,9.5625 L9,9.5625 C8.79289322,9.5625 8.625,9.73039322 8.625,9.9375 C8.625,10.1446068 8.79289322,10.3125 9,10.3125 L12.375,10.3125 C12.5821068,10.3125 12.75,10.1446068 12.75,9.9375 C12.75,9.73039322 12.5821068,9.5625 12.375,9.5625 Z" id="Path"></path>
                    <path d="M9.28125,5.71875 C9.34872256,5.79228825 9.4439481,5.83415189 9.54375,5.83415189 C9.6435519,5.83415189 9.73877744,5.79228825 9.80625,5.71875 L10.7625,4.7625 L11.71875,5.71875 C11.7862226,5.79228825 11.8814481,5.83415189 11.98125,5.83415189 C12.0810519,5.83415189 12.1762774,5.79228825 12.24375,5.71875 C12.3172882,5.65127744 12.3591519,5.5560519 12.3591519,5.45625 C12.3591519,5.3564481 12.3172882,5.26122256 12.24375,5.19375 L11.2875,4.2375 L12.24375,3.28125 C12.3611352,3.19321107 12.4163892,3.04479665 12.3851561,2.90142777 C12.3539229,2.75805889 12.2419411,2.6460771 12.0985722,2.61484392 C11.9552033,2.58361075 11.8067889,2.63886476 11.71875,2.75625 L10.7625,3.7125 L9.80625,2.75625 C9.65695489,2.64427867 9.44804444,2.65912547 9.31608496,2.79108496 C9.18412547,2.92304444 9.16927867,3.13195489 9.28125,3.28125 L10.2375,4.2375 L9.28125,5.19375 C9.20771175,5.26122256 9.16584811,5.3564481 9.16584811,5.45625 C9.16584811,5.5560519 9.20771175,5.65127744 9.28125,5.71875 L9.28125,5.71875 Z" id="Path"></path>
                </g>
            </g>
        </g>
        <g id="Group-2" transform="translate(35.250000, 14.000000)" fill="#FFFFFF">
            <rect id="Rectangle-3-Copy-5" x="3.2" y="0.186666667" width="1.49333333" height="7.46666667"></rect>
            <polygon id="Rectangle-3-Copy-4" transform="translate(3.946667, 3.733333) rotate(-270.000000) translate(-3.946667, -3.733333) " points="3.2 -4.59780362e-14 4.69333333 -4.59780362e-14 4.69333333 7.46666667 3.2 7.46666667"></polygon>
        </g>
        <g id="Group-2-Copy" transform="translate(78.750000, 14.000000)" fill="#FFFFFF">
            <rect id="Rectangle-3-Copy-5" x="3.2" y="0.186666667" width="1.49333333" height="7.46666667"></rect>
            <polygon id="Rectangle-3-Copy-4" transform="translate(3.946667, 3.733333) rotate(-270.000000) translate(-3.946667, -3.733333) " points="3.2 -4.57411886e-14 4.69333333 -4.57411886e-14 4.69333333 7.46666667 3.2 7.46666667"></polygon>
        </g>
        <g id="Icon-/-Sigma-white" transform="translate(96.000000, 10.000000)" fill="#FFFFFF">
            <polygon id="Sigma" points="12 15 0 15 5.68421053 7.5 0 0 12 0 12 2.89473684 11 2.89473684 11 1 2 1 6.97368421 7.5 2 14 11 14 11 12.1052632 12 12.1052632"></polygon>
        </g>
    </g>
</svg>