<?xml version="1.0" encoding="UTF-8"?>
<svg width="31px" height="28px" viewBox="0 0 31 28" version="1.1" xmlns="http://www.w3.org/2000/svg" xmlns:xlink="http://www.w3.org/1999/xlink">
    <!-- Generator: Sketch 50.2 (55047) - http://www.bohemiancoding.com/sketch -->
    <title>Group 2</title>
    <desc>Created with Sketch.</desc>
    <defs></defs>
    <g id="Images-for-lessons" stroke="none" stroke-width="1" fill="none" fill-rule="evenodd">
        <g id="Alert" transform="translate(-10.000000, -18.000000)">
            <g id="Group-2" transform="translate(10.000000, 18.000000)">
                <g id="Group" stroke="#FFFFFF">
                    <rect id="Rectangle" x="0.5" y="0.5" width="30" height="27" rx="4"></rect>
                </g>
                <g id="Icon-/-notification-/-white" transform="translate(6.500000, 4.500000)" fill="#FFFFFF">
                    <path d="M15.6857692,7.47841457 C15.6857692,4.46552643 13.8316735,0.316666666 8.99999993,0.316666667 C4.16832632,0.316666667 2.31423083,4.46578416 2.31423083,7.4786723 L2.31423083,10.5000656 L0.808074516,12.1302211 C0.674574298,12.274551 0.6,12.4681078 0.6,12.6696543 L0.6,14.9712019 C0.6,15.3848619 0.918102169,15.7199136 1.31028962,15.7199136 L6.04905836,15.7199136 C6.05272595,17.3742959 7.43002765,18.8240389 9,18.8240389 C10.5699723,18.8240389 11.9472741,17.3742959 11.9509416,15.7199136 L16.6897104,15.7199136 C17.0821423,15.7199136 17.4,15.3846042 17.4,14.9712019 L17.4,12.6696543 C17.4,12.4681078 17.3254257,12.274551 17.1919255,12.1302211 L15.6857692,10.4998079 L15.6857692,7.47841457 Z M9,17.3263577 C8.16061126,17.3263577 7.47379421,16.4923367 7.46988211,15.7196559 L10.5303624,15.7196559 C10.5262058,16.4923367 9.83938874,17.3263577 9,17.3263577 L9,17.3263577 Z M2.02082375,14.2222324 L2.02082375,12.9637266 L3.73505458,11.1085711 L3.73505458,7.47841457 C3.73505458,4.748774 5.47205671,1.75102065 9.03991617,1.75102065 C12.6077756,1.75102065 14.2651899,4.748774 14.2651899,7.47841457 L14.2651899,11.1085711 L15.9794208,12.9637266 L15.9794208,14.2222324 L2.02082375,14.2222324 Z" id="Alert-Icon"></path>
                </g>
            </g>
        </g>
    </g>
</svg>