<?xml version="1.0" encoding="UTF-8"?>
<svg width="187px" height="35px" viewBox="0 0 187 35" version="1.1" xmlns="http://www.w3.org/2000/svg" xmlns:xlink="http://www.w3.org/1999/xlink">
    <!-- Generator: Sketch 53.2 (72643) - https://sketchapp.com -->
    <title>Lesson-8</title>
    <desc>Created with Sketch.</desc>
    <defs>
        <linearGradient x1="31.1819672%" y1="50%" x2="119.702609%" y2="50%" id="linearGradient-1">
            <stop stop-color="#7DD9E4" offset="0%"></stop>
            <stop stop-color="#0C93C0" offset="100%"></stop>
        </linearGradient>
    </defs>
    <g id="Lesson-8" stroke="none" stroke-width="1" fill="none" fill-rule="evenodd">
        <rect id="Rectangle-Copy" fill="url(#linearGradient-1)" x="0" y="0" width="187" height="45"></rect>
        <g id="Icon-/-chrono-white" transform="translate(53.000000, 10.000000)" fill="#FFFFFF">
            <g id="noun_Stopwatch_36465" stroke-width="1" fill-rule="evenodd" transform="translate(0.533333, 0.000000)">
                <path d="M7.46655136,3.5047619 C7.14921831,3.5047619 6.89230769,3.82626263 6.89230769,4.22366522 L6.89230769,8.42424242 C6.89230769,8.82164502 7.14921831,9.14285714 7.46655136,9.14285714 C7.78411502,9.14285714 8.04102564,8.82164502 8.04102564,8.42424242 L8.04102564,4.22366522 C8.04102564,3.82626263 7.78411502,3.5047619 7.46655136,3.5047619 Z" id="Shape" fill-rule="nonzero"></path>
                <path d="M7.46666667,1.14285714 C3.34958228,1.14285714 0,4.47490354 0,8.5708004 C0,12.6674511 3.34983483,16 7.46666667,16 C11.5834985,16 14.9333333,12.6671998 14.9333333,8.5708004 C14.9335859,4.47465227 11.5837511,1.14285714 7.46666667,1.14285714 Z M7.46666667,14.3403335 C4.23207351,14.3403335 1.6,11.7216446 1.6,8.50270749 C1.6,5.28456293 4.23207351,2.66666667 7.46666667,2.66666667 C10.7012598,2.66666667 13.3333333,5.28456293 13.3333333,8.50270749 C13.3333333,11.7216446 10.7012598,14.3403335 7.46666667,14.3403335 Z" id="Shape" fill-rule="nonzero"></path>
                <path d="M8.04111884,0 C7.82650371,0 7.1065497,0 6.89249419,0 C6.25732296,0 5.74358974,0.355762244 5.74358974,0.795427021 L5.74358974,1.14285714 L6.89249419,1.14285714 L8.04111884,1.14285714 L9.18974359,1.14285714 L9.18974348,0.795427021 C9.19002329,0.355762244 8.67629007,0 8.04111884,0 Z" id="Shape" fill-rule="nonzero"></path>
            </g>
            <path d="M10.133218,6.7047619 C9.81588498,6.7047619 9.55897436,7.02626263 9.55897436,7.42366522 L9.55897436,11.6242424 C9.55897436,12.021645 9.81588498,12.3428571 10.133218,12.3428571 C10.4507817,12.3428571 10.7076923,12.021645 10.7076923,11.6242424 L10.7076923,7.42366522 C10.7076923,7.02626263 10.4507817,6.7047619 10.133218,6.7047619 Z" id="Shape-Copy" fill-rule="nonzero" transform="translate(10.133333, 9.523810) rotate(111.000000) translate(-10.133333, -9.523810) "></path>
        </g>
        <g id="Icon-/-line-chart-/-white" transform="translate(95.000000, 9.000000)" fill="#FFFFFF">
            <g id="Group-2" stroke-width="1" transform="translate(1.200000, 13.200000)">
                <g id="Group" transform="translate(0.694737, 0.694737)">
                    <polygon id="Rectangle-path" points="0 0.631578947 14.2105263 0.631578947 14.2105263 2.05856518 0 2.05856518"></polygon>
                </g>
            </g>
            <polygon id="Path-13" points="1.89600005 9.3911499 2.87952515 10.8966312 6.57661321 8.55791016 11.0874519 11.9904602 16.1040002 3.28939819 14.5169116 2.4 10.5430096 9.30534668 6.68072774 6.3694519"></polygon>
        </g>
        <g id="Icon-/-Spreadsheet-/-white" transform="translate(10.000000, 10.000000)" fill="#FFFFFF">
            <g id="Spreadsheet" transform="translate(-0.000000, -0.018735)">
                <path d="M0.4688,2.27373675e-12 C0.1876,2.27373675e-12 4.54747351e-13,0.199894755 4.54747351e-13,0.500056889 L4.54747351e-13,14.4999431 C4.54747351e-13,14.8001052 0.1876,15 0.4688,15 L14.5312,15 C14.8124,15 15,14.8001052 15,14.4999431 L15,0.500056889 C15,0.199894755 14.8124,2.27373675e-12 14.5312,2.27373675e-12 L0.4688,2.27373675e-12 Z M0.913740821,0.965854872 L2.94026548,0.965854872 L2.94026548,3.12749655 L0.913740821,3.12749655 L0.913740821,0.965854872 Z M3.44695068,0.965854872 L8.51337041,0.965854872 L8.51337041,3.12749655 L3.44695068,3.12749655 L3.44695068,0.965854872 Z M9.01983945,0.965854872 L14.0862592,0.965854872 L14.0862592,3.12749655 L9.01983945,3.12749655 L9.01983945,0.965854872 Z M0.913740821,3.66796461 L2.94026548,3.66796461 L2.94026548,5.82960628 L0.913740821,5.82960628 L0.913740821,3.66796461 Z M3.44695068,3.66796461 L8.51337041,3.66796461 L8.51337041,5.82960628 L3.44695068,5.82960628 L3.44695068,3.66796461 Z M9.01983945,3.66796461 L14.0862592,3.66796461 L14.0862592,5.82960628 L9.01983945,5.82960628 L9.01983945,3.66796461 Z M0.913740821,6.36984377 L2.94026548,6.36984377 L2.94026548,8.53171602 L0.913740821,8.53171602 L0.913740821,6.36984377 Z M3.44695068,6.36984377 L8.51337041,6.36984377 L8.51337041,8.53171602 L3.44695068,8.53171602 L3.44695068,6.36984377 Z M9.01983945,6.36984377 L14.0862592,6.36984377 L14.0862592,8.53171602 L9.01983945,8.53171602 L9.01983945,6.36984377 Z M0.913740821,9.0719535 L2.94026548,9.0719535 L2.94026548,11.2335952 L0.913740821,11.2335952 L0.913740821,9.0719535 Z M3.44695068,9.0719535 L8.51337041,9.0719535 L8.51337041,11.2335952 L3.44695068,11.2335952 L3.44695068,9.0719535 Z M9.01983945,9.0719535 L14.0862592,9.0719535 L14.0862592,11.2335952 L9.01983945,11.2335952 L9.01983945,9.0719535 Z M0.913740821,11.7740632 L2.94026548,11.7740632 L2.94026548,13.9357049 L0.913740821,13.9357049 L0.913740821,11.7740632 Z M3.44695068,11.7740632 L8.51337041,11.7740632 L8.51337041,13.9357049 L3.44695068,13.9357049 L3.44695068,11.7740632 Z M9.01983945,11.7740632 L14.0862592,11.7740632 L14.0862592,13.9357049 L9.01983945,13.9357049 L9.01983945,11.7740632 Z"></path>
            </g>
        </g>
        <g id="Group-2" transform="translate(35.000000, 14.000000)" fill="#FFFFFF">
            <rect id="Rectangle-3-Copy-5" x="3.2" y="0.186666667" width="1.49333333" height="7.46666667"></rect>
            <polygon id="Rectangle-3-Copy-4" transform="translate(3.946667, 3.733333) rotate(-270.000000) translate(-3.946667, -3.733333) " points="3.2 -4.59780362e-14 4.69333333 -4.59780362e-14 4.69333333 7.46666667 3.2 7.46666667"></polygon>
        </g>
        <g id="Group-2-Copy" transform="translate(79.000000, 14.000000)" fill="#FFFFFF">
            <rect id="Rectangle-3-Copy-5" x="3.2" y="0.186666667" width="1.49333333" height="7.46666667"></rect>
            <polygon id="Rectangle-3-Copy-4" transform="translate(3.946667, 3.733333) rotate(-270.000000) translate(-3.946667, -3.733333) " points="3.2 -4.57411886e-14 4.69333333 -4.57411886e-14 4.69333333 7.46666667 3.2 7.46666667"></polygon>
        </g>
    </g>
</svg>