<?xml version="1.0" encoding="UTF-8"?>
<svg width="187px" height="35px" viewBox="0 0 187 35" version="1.1" xmlns="http://www.w3.org/2000/svg" xmlns:xlink="http://www.w3.org/1999/xlink">
    <!-- Generator: Sketch 53.2 (72643) - https://sketchapp.com -->
    <title>Lesson-4</title>
    <desc>Created with Sketch.</desc>
    <defs>
        <linearGradient x1="0%" y1="50%" x2="97.0195087%" y2="50%" id="linearGradient-1">
            <stop stop-color="#48C8D7" offset="2.88565751%"></stop>
            <stop stop-color="#FBAA6D" offset="100%"></stop>
        </linearGradient>
    </defs>
    <g id="Lesson-4" stroke="none" stroke-width="1" fill="none" fill-rule="evenodd">
        <rect id="Rectangle-Copy" fill="url(#linearGradient-1)" transform="translate(93.500000, 22.500000) scale(-1, 1) translate(-93.500000, -22.500000) " x="-1" y="0" width="189" height="45"></rect>
        <g id="Group" transform="translate(10.000000, 10.000000)" fill="#FFFFFF">
            <g id="Icon-/-notepad-/-white" transform="translate(87.000000, 0.000000)">
                <g id="Icon-/-notepad" transform="translate(1.226667, 0.000000)">
                    <path d="M13.5384615,1.04205128 L10.2215385,1.04205128 L10.2215385,0.0164102564 L8.78564103,0.0164102564 L4.75282051,0.0184615385 L3.31692308,0.0184615385 L3.31692308,1.04410256 L0,1.04410256 L0,15.8133333 L13.5384615,15.8133333 L13.5384615,1.04205128 Z M4.1374359,0.836923077 L5.57333333,0.836923077 L7.96512821,0.838974359 L9.40102564,0.838974359 L9.40102564,2.65025641 L4.1374359,2.65025641 L4.1374359,0.836923077 Z M12.7179487,14.9907692 L0.820512821,14.9907692 L0.820512821,1.8625641 L3.31692308,1.8625641 L3.31692308,3.46871795 L10.2215385,3.46871795 L10.2215385,1.8625641 L12.7179487,1.8625641 L12.7179487,14.9907692 Z" id="Shape" fill-rule="nonzero"></path>
                    <polygon id="Shape" fill-rule="nonzero" points="5.92 10.014359 4.14974359 8.01025641 3.53435897 8.55179487 5.84820513 11.1733333 10.0041026 7.49128205 9.45846154 6.87589744"></polygon>
                </g>
            </g>
            <g id="Icon-/-Filter-/-white" transform="translate(44.000000, 1.000000)">
                <rect id="Rectangle" x="0.933333333" y="1.4" width="12.1333333" height="1.4"></rect>
                <rect id="Rectangle-Copy" x="3.26666667" y="6.3" width="7.46666667" height="1.4"></rect>
                <rect id="Rectangle-Copy-2" x="5.6" y="10.9666667" width="2.8" height="1.4"></rect>
            </g>
            <g id="Icon-/-Spreadsheet-/-white">
                <g id="Spreadsheet" transform="translate(-0.000000, -0.018735)">
                    <path d="M0.4688,2.27373675e-12 C0.1876,2.27373675e-12 4.54747351e-13,0.199894755 4.54747351e-13,0.500056889 L4.54747351e-13,14.4999431 C4.54747351e-13,14.8001052 0.1876,15 0.4688,15 L14.5312,15 C14.8124,15 15,14.8001052 15,14.4999431 L15,0.500056889 C15,0.199894755 14.8124,2.27373675e-12 14.5312,2.27373675e-12 L0.4688,2.27373675e-12 Z M0.913740821,0.965854872 L2.94026548,0.965854872 L2.94026548,3.12749655 L0.913740821,3.12749655 L0.913740821,0.965854872 Z M3.44695068,0.965854872 L8.51337041,0.965854872 L8.51337041,3.12749655 L3.44695068,3.12749655 L3.44695068,0.965854872 Z M9.01983945,0.965854872 L14.0862592,0.965854872 L14.0862592,3.12749655 L9.01983945,3.12749655 L9.01983945,0.965854872 Z M0.913740821,3.66796461 L2.94026548,3.66796461 L2.94026548,5.82960628 L0.913740821,5.82960628 L0.913740821,3.66796461 Z M3.44695068,3.66796461 L8.51337041,3.66796461 L8.51337041,5.82960628 L3.44695068,5.82960628 L3.44695068,3.66796461 Z M9.01983945,3.66796461 L14.0862592,3.66796461 L14.0862592,5.82960628 L9.01983945,5.82960628 L9.01983945,3.66796461 Z M0.913740821,6.36984377 L2.94026548,6.36984377 L2.94026548,8.53171602 L0.913740821,8.53171602 L0.913740821,6.36984377 Z M3.44695068,6.36984377 L8.51337041,6.36984377 L8.51337041,8.53171602 L3.44695068,8.53171602 L3.44695068,6.36984377 Z M9.01983945,6.36984377 L14.0862592,6.36984377 L14.0862592,8.53171602 L9.01983945,8.53171602 L9.01983945,6.36984377 Z M0.913740821,9.0719535 L2.94026548,9.0719535 L2.94026548,11.2335952 L0.913740821,11.2335952 L0.913740821,9.0719535 Z M3.44695068,9.0719535 L8.51337041,9.0719535 L8.51337041,11.2335952 L3.44695068,11.2335952 L3.44695068,9.0719535 Z M9.01983945,9.0719535 L14.0862592,9.0719535 L14.0862592,11.2335952 L9.01983945,11.2335952 L9.01983945,9.0719535 Z M0.913740821,11.7740632 L2.94026548,11.7740632 L2.94026548,13.9357049 L0.913740821,13.9357049 L0.913740821,11.7740632 Z M3.44695068,11.7740632 L8.51337041,11.7740632 L8.51337041,13.9357049 L3.44695068,13.9357049 L3.44695068,11.7740632 Z M9.01983945,11.7740632 L14.0862592,11.7740632 L14.0862592,13.9357049 L9.01983945,13.9357049 L9.01983945,11.7740632 Z"></path>
                </g>
            </g>
            <g id="Group-2" transform="translate(25.000000, 4.000000)">
                <rect id="Rectangle-3-Copy-5" x="3.2" y="0.186666667" width="1.49333333" height="7.46666667"></rect>
                <polygon id="Rectangle-3-Copy-4" transform="translate(3.946667, 3.733333) rotate(-270.000000) translate(-3.946667, -3.733333) " points="3.2 -4.59780362e-14 4.69333333 -4.59780362e-14 4.69333333 7.46666667 3.2 7.46666667"></polygon>
            </g>
            <g id="Group-2-Copy" transform="translate(69.000000, 4.000000)">
                <rect id="Rectangle-3-Copy-5" x="3.2" y="0.186666667" width="1.49333333" height="7.46666667"></rect>
                <polygon id="Rectangle-3-Copy-4" transform="translate(3.946667, 3.733333) rotate(-270.000000) translate(-3.946667, -3.733333) " points="3.2 -4.57411886e-14 4.69333333 -4.57411886e-14 4.69333333 7.46666667 3.2 7.46666667"></polygon>
            </g>
        </g>
    </g>
</svg>