<?xml version="1.0" encoding="UTF-8"?>
<svg width="187px" height="35px" viewBox="0 0 187 35" version="1.1" xmlns="http://www.w3.org/2000/svg" xmlns:xlink="http://www.w3.org/1999/xlink">
    <!-- Generator: Sketch 53.2 (72643) - https://sketchapp.com -->
    <title>Lesson-7</title>
    <desc>Created with Sketch.</desc>
    <defs>
        <linearGradient x1="10.0508493%" y1="50%" x2="97.0195087%" y2="50%" id="linearGradient-1">
            <stop stop-color="#C5BCBC" offset="0%"></stop>
            <stop stop-color="#719BB0" offset="100%"></stop>
        </linearGradient>
    </defs>
    <g id="Lesson-7" stroke="none" stroke-width="1" fill="none" fill-rule="evenodd">
        <rect id="Rectangle-Copy" fill="url(#linearGradient-1)" transform="translate(93.500000, 22.500000) scale(-1, 1) translate(-93.500000, -22.500000) " x="0" y="0" width="187" height="45"></rect>
        <g id="Icon/Type/White" transform="translate(53.000000, 10.000000)" fill="#FFFFFF">
            <rect id="Rectangle-22" x="0" y="1" width="2" height="4"></rect>
            <rect id="Rectangle-22-Copy" x="13" y="1" width="2" height="4"></rect>
            <rect id="Rectangle-22-Copy-2" x="6.5" y="0" width="2" height="15"></rect>
            <path d="M1,0 L14,0 C14.5522847,-1.01453063e-16 15,0.44771525 15,1 L15,2 L0,2 L0,1 C-6.76353751e-17,0.44771525 0.44771525,1.01453063e-16 1,0 Z" id="Rectangle-23"></path>
            <rect id="Rectangle-23-Copy" x="4" y="13" width="7" height="2"></rect>
        </g>
        <g id="Icon-/-Spreadsheet-/-white" transform="translate(10.000000, 10.000000)" fill="#FFFFFF">
            <g id="Spreadsheet" transform="translate(-0.000000, -0.018735)">
                <path d="M0.4688,2.27373675e-12 C0.1876,2.27373675e-12 4.54747351e-13,0.199894755 4.54747351e-13,0.500056889 L4.54747351e-13,14.4999431 C4.54747351e-13,14.8001052 0.1876,15 0.4688,15 L14.5312,15 C14.8124,15 15,14.8001052 15,14.4999431 L15,0.500056889 C15,0.199894755 14.8124,2.27373675e-12 14.5312,2.27373675e-12 L0.4688,2.27373675e-12 Z M0.913740821,0.965854872 L2.94026548,0.965854872 L2.94026548,3.12749655 L0.913740821,3.12749655 L0.913740821,0.965854872 Z M3.44695068,0.965854872 L8.51337041,0.965854872 L8.51337041,3.12749655 L3.44695068,3.12749655 L3.44695068,0.965854872 Z M9.01983945,0.965854872 L14.0862592,0.965854872 L14.0862592,3.12749655 L9.01983945,3.12749655 L9.01983945,0.965854872 Z M0.913740821,3.66796461 L2.94026548,3.66796461 L2.94026548,5.82960628 L0.913740821,5.82960628 L0.913740821,3.66796461 Z M3.44695068,3.66796461 L8.51337041,3.66796461 L8.51337041,5.82960628 L3.44695068,5.82960628 L3.44695068,3.66796461 Z M9.01983945,3.66796461 L14.0862592,3.66796461 L14.0862592,5.82960628 L9.01983945,5.82960628 L9.01983945,3.66796461 Z M0.913740821,6.36984377 L2.94026548,6.36984377 L2.94026548,8.53171602 L0.913740821,8.53171602 L0.913740821,6.36984377 Z M3.44695068,6.36984377 L8.51337041,6.36984377 L8.51337041,8.53171602 L3.44695068,8.53171602 L3.44695068,6.36984377 Z M9.01983945,6.36984377 L14.0862592,6.36984377 L14.0862592,8.53171602 L9.01983945,8.53171602 L9.01983945,6.36984377 Z M0.913740821,9.0719535 L2.94026548,9.0719535 L2.94026548,11.2335952 L0.913740821,11.2335952 L0.913740821,9.0719535 Z M3.44695068,9.0719535 L8.51337041,9.0719535 L8.51337041,11.2335952 L3.44695068,11.2335952 L3.44695068,9.0719535 Z M9.01983945,9.0719535 L14.0862592,9.0719535 L14.0862592,11.2335952 L9.01983945,11.2335952 L9.01983945,9.0719535 Z M0.913740821,11.7740632 L2.94026548,11.7740632 L2.94026548,13.9357049 L0.913740821,13.9357049 L0.913740821,11.7740632 Z M3.44695068,11.7740632 L8.51337041,11.7740632 L8.51337041,13.9357049 L3.44695068,13.9357049 L3.44695068,11.7740632 Z M9.01983945,11.7740632 L14.0862592,11.7740632 L14.0862592,13.9357049 L9.01983945,13.9357049 L9.01983945,11.7740632 Z"></path>
            </g>
        </g>
        <g id="Group-2" transform="translate(35.250000, 14.000000)" fill="#FFFFFF">
            <rect id="Rectangle-3-Copy-5" x="3.2" y="0.186666667" width="1.49333333" height="7.46666667"></rect>
            <polygon id="Rectangle-3-Copy-4" transform="translate(3.946667, 3.733333) rotate(-270.000000) translate(-3.946667, -3.733333) " points="3.2 -4.59780362e-14 4.69333333 -4.59780362e-14 4.69333333 7.46666667 3.2 7.46666667"></polygon>
        </g>
    </g>
</svg>