<svg width="32" height="32" viewBox="0 0 32 32" fill="none" xmlns="http://www.w3.org/2000/svg">
<rect x="3" y="28" width="26" height="2" rx="1" fill="#686768"/>
<path d="M3 9C3 8.44772 3.44772 8 4 8H7C7.55228 8 8 8.44772 8 9V23C8 23.5523 7.55228 24 7 24H4C3.44772 24 3 23.5523 3 23V9Z" fill="#686768"/>
<path d="M10 15C10 14.4477 10.4477 14 11 14H14C14.5523 14 15 14.4477 15 15V23C15 23.5523 14.5523 24 14 24H11C10.4477 24 10 23.5523 10 23V15Z" fill="#686768"/>
<path d="M17.0054 11.0054C17.0024 10.451 17.451 10 18.0054 10H21C21.5523 10 22 10.4477 22 11V23C22 23.5523 21.5523 24 21 24H18.0697C17.5195 24 17.0726 23.5555 17.0697 23.0054L17.0054 11.0054Z" fill="#686768"/>
<rect x="24" y="3" width="5" height="21" rx="1" fill="#686768"/>
</svg>
