<svg width="32" height="32" viewBox="0 0 32 32" fill="none" xmlns="http://www.w3.org/2000/svg">
<path fill-rule="evenodd" clip-rule="evenodd" d="M16 30C23.732 30 30 23.732 30 16C30 8.26801 23.732 2 16 2C8.26801 2 2 8.26801 2 16C2 23.732 8.26801 30 16 30ZM16 32C24.8366 32 32 24.8366 32 16C32 7.16344 24.8366 0 16 0C7.16344 0 0 7.16344 0 16C0 24.8366 7.16344 32 16 32Z" fill="#686768"/>
<path d="M22.2929 10.2929L21.7071 9.70711C21.3166 9.31658 20.6834 9.31658 20.2929 9.70711L9.70711 20.2929C9.31658 20.6834 9.31658 21.3166 9.70711 21.7071L10.2929 22.2929C10.6834 22.6834 11.3166 22.6834 11.7071 22.2929L22.2929 11.7071C22.6834 11.3166 22.6834 10.6834 22.2929 10.2929Z" fill="#686768"/>
<path d="M21.7071 22.2929L22.2929 21.7071C22.6834 21.3166 22.6834 20.6834 22.2929 20.2929L11.7071 9.70711C11.3166 9.31658 10.6834 9.31658 10.2929 9.70711L9.70711 10.2929C9.31658 10.6834 9.31658 11.3166 9.70711 11.7071L20.2929 22.2929C20.6834 22.6834 21.3166 22.6834 21.7071 22.2929Z" fill="#686768"/>
</svg>
