<svg width="32" height="32" viewBox="0 0 32 32" fill="none" xmlns="http://www.w3.org/2000/svg">
<path d="M5.29289 29.2929L2.70711 26.7071C2.31658 26.3166 2.31658 25.6834 2.70711 25.2929L25.2929 2.70711C25.6834 2.31658 26.3166 2.31658 26.7071 2.70711L29.2929 5.29289C29.6834 5.68342 29.6834 6.31658 29.2929 6.70711L6.70711 29.2929C6.31658 29.6834 5.68342 29.6834 5.29289 29.2929Z" fill="#686768"/>
<path d="M2.70711 5.29289L5.29289 2.70711C5.68342 2.31658 6.31658 2.31658 6.70711 2.70711L29.2929 25.2929C29.6834 25.6834 29.6834 26.3166 29.2929 26.7071L26.7071 29.2929C26.3166 29.6834 25.6834 29.6834 25.2929 29.2929L2.70711 6.70711C2.31658 6.31658 2.31658 5.68342 2.70711 5.29289Z" fill="#686768"/>
</svg>
