<svg width="32" height="32" viewBox="0 0 32 32" fill="none" xmlns="http://www.w3.org/2000/svg">
<path d="M8.70711 8.70711L9.29289 9.29289C9.68342 9.68342 9.68342 10.3166 9.29289 10.7071L4.70711 15.2929C4.31658 15.6834 4.31658 16.3166 4.70711 16.7071L9.29289 21.2929C9.68342 21.6834 9.68342 22.3166 9.29289 22.7071L8.70711 23.2929C8.31658 23.6834 7.68342 23.6834 7.29289 23.2929L0.707107 16.7071C0.316583 16.3166 0.316582 15.6834 0.707106 15.2929L7.29289 8.70711C7.68342 8.31658 8.31658 8.31658 8.70711 8.70711Z" fill="#686768"/>
<path d="M23.2929 8.70711L22.7071 9.29289C22.3166 9.68342 22.3166 10.3166 22.7071 10.7071L27.2929 15.2929C27.6834 15.6834 27.6834 16.3166 27.2929 16.7071L22.7071 21.2929C22.3166 21.6834 22.3166 22.3166 22.7071 22.7071L23.2929 23.2929C23.6834 23.6834 24.3166 23.6834 24.7071 23.2929L31.2929 16.7071C31.6834 16.3166 31.6834 15.6834 31.2929 15.2929L24.7071 8.70711C24.3166 8.31658 23.6834 8.31658 23.2929 8.70711Z" fill="#686768"/>
<path d="M18.6266 5.07566C18.8245 4.50549 19.4786 4.2393 20.0184 4.50922L20.2145 4.60724C20.6638 4.83191 20.8767 5.35507 20.712 5.82965L13.3735 26.9667C13.1755 27.5368 12.5214 27.803 11.9816 27.5331L11.7855 27.4351C11.3362 27.2104 11.1233 26.6873 11.2881 26.2127L18.6266 5.07566Z" fill="#686768"/>
</svg>
