<?xml version="1.0" encoding="UTF-8" standalone="no"?>
<svg
   xmlns:dc="http://purl.org/dc/elements/1.1/"
   xmlns:cc="http://creativecommons.org/ns#"
   xmlns:rdf="http://www.w3.org/1999/02/22-rdf-syntax-ns#"
   xmlns:svg="http://www.w3.org/2000/svg"
   xmlns="http://www.w3.org/2000/svg"
   xmlns:sodipodi="http://sodipodi.sourceforge.net/DTD/sodipodi-0.dtd"
   xmlns:inkscape="http://www.inkscape.org/namespaces/inkscape"
   version="1.1"
   width="32"
   height="32"
   viewBox="0 0 32 32"
   id="svg6"
   sodipodi:docname="delete.svg"
   inkscape:version="1.0.1 (3bc2e813f5, 2020-09-07)">
  <metadata
     id="metadata12">
    <rdf:RDF>
      <cc:Work
         rdf:about="">
        <dc:format>image/svg+xml</dc:format>
        <dc:type
           rdf:resource="http://purl.org/dc/dcmitype/StillImage" />
        <dc:title>bin</dc:title>
      </cc:Work>
    </rdf:RDF>
  </metadata>
  <defs
     id="defs10" />
  <sodipodi:namedview
     pagecolor="#ffffff"
     bordercolor="#666666"
     borderopacity="1"
     objecttolerance="10"
     gridtolerance="10"
     guidetolerance="10"
     inkscape:pageopacity="0"
     inkscape:pageshadow="2"
     inkscape:window-width="1842"
     inkscape:window-height="1245"
     id="namedview8"
     showgrid="true"
     inkscape:snap-smooth-nodes="true"
     inkscape:zoom="32"
     inkscape:cx="13.909834"
     inkscape:cy="14.67307"
     inkscape:window-x="896"
     inkscape:window-y="90"
     inkscape:window-maximized="0"
     inkscape:current-layer="svg6">
    <inkscape:grid
       type="xygrid"
       id="grid837"
       empspacing="2"
       color="#3f3fff"
       opacity="0.08627451" />
  </sodipodi:namedview>
  <title
     id="title2">bin</title>
  <path
     fill="#686768"
     d="m 11,26 h 10 c 0,0 3,0 3,-2 V 12 H 8 v 12 c 0,2 3,2 3,2 z M 26,9.5 c 0,0 0,0.5 -1,0.5 H 7 C 6,10 6,9.5 6,9.5 v -2 C 6,7.5 6,7 7,7 h 6 V 5.5 C 13,5.5 13,5 14,5 h 4 c 1,0 1,0.5 1,0.5 V 7 h 6 c 1,0 1,0.5 1,0.5 z"
     id="path4"
     style="stroke-width:0.599945"
     sodipodi:nodetypes="ccsccsccssccsccssccscc" />
</svg>
