<svg width="32" height="32" viewBox="0 0 32 32" fill="none" xmlns="http://www.w3.org/2000/svg">
<path d="M18 16C18 16.4461 18.5399 16.6689 18.8545 16.3526L22.921 12.3605C23.3094 11.97 23.9404 11.9671 24.3324 12.354L25.2836 13.2929C25.6785 13.6827 25.6806 14.3194 25.2883 14.7117L18.1213 21.8787C16.9497 23.0502 15.0503 23.0502 13.8787 21.8787L6.71174 14.7117C6.31941 14.3194 6.32149 13.6827 6.71638 13.2929L7.66763 12.354C8.0596 11.9671 8.69061 11.97 9.07904 12.3605L13.1455 16.3526C13.4601 16.6689 14 16.4461 14 16L14 0.999999L18 0.999999L18 16Z" fill="#686768"/>
<path d="M4.07692 27H27.9231V20H31V29C31 29.5523 30.5351 30 29.9615 30H2.03846C1.46494 30 1 29.5523 1 29V20H4.07692V27Z" fill="#686768"/>
</svg>
