<svg width="32" height="32" viewBox="0 0 32 32" fill="none" xmlns="http://www.w3.org/2000/svg">
<path d="M19 16C19 15.4477 19.4477 15 20 15C20.5523 15 21 15.4477 21 16V24C21 24.5523 20.5523 25 20 25C19.4477 25 19 24.5523 19 24V16Z" fill="#686768"/>
<path d="M24 19C24.5523 19 25 19.4477 25 20C25 20.5523 24.5523 21 24 21L16 21C15.4477 21 15 20.5523 15 20C15 19.4477 15.4477 19 16 19L24 19Z" fill="#686768"/>
<path fill-rule="evenodd" clip-rule="evenodd" d="M29 11H11V29H29V11ZM11 9C9.89543 9 9 9.89543 9 11V29C9 30.1046 9.89543 31 11 31H29C30.1046 31 31 30.1046 31 29V11C31 9.89543 30.1046 9 29 9H11Z" fill="#686768"/>
<path fill-rule="evenodd" clip-rule="evenodd" d="M1 3C1 1.89543 1.89543 1 3 1H19C20.1046 1 21 1.89543 21 3V7H19V3H3V19H7V21H3C1.89543 21 1 20.1046 1 19V3Z" fill="#686768"/>
</svg>
