<svg width="32" height="32" viewBox="0 0 32 32" fill="none" xmlns="http://www.w3.org/2000/svg">
<path fill-rule="evenodd" clip-rule="evenodd" d="M15 3C15 2.44772 14.5523 2 14 2H4C2.89543 2 2 2.89543 2 4V28C2 29.1046 2.89543 30 4 30H28C29.1046 30 30 29.1046 30 28V18C30 17.4477 29.5523 17 29 17V17C28.4477 17 28 17.4477 28 18V27C28 27.5523 27.5523 28 27 28H5C4.44772 28 4 27.5523 4 27V5C4 4.44772 4.44772 4 5 4H14C14.5523 4 15 3.55228 15 3V3Z" fill="#686768"/>
<path fill-rule="evenodd" clip-rule="evenodd" d="M26.7071 3.70712C26.3166 3.31659 25.6834 3.31659 25.2929 3.70711L24 5.00001L27 8.00001L28.2929 6.70712C28.6834 6.3166 28.6834 5.68343 28.2929 5.29291L26.7071 3.70712ZM13 16L23 6.00001L26 9.00001L16 19L13 16ZM10 22L15 20L12 17L10 22Z" fill="#686768"/>
</svg>
