<svg width="32" height="32" viewBox="0 0 32 32" fill="none" xmlns="http://www.w3.org/2000/svg">
<path d="M13.9991 22C13.4468 22 12.9975 21.5515 13.0215 20.9997C13.1278 18.5531 13.6048 16.9038 13.9062 16.168C14.3047 15.1953 15.0312 14.2402 16.0859 13.3027C17.1523 12.3535 17.8613 11.5859 18.2129 11C18.5645 10.4023 18.7402 9.77539 18.7402 9.11914C18.7402 7.13867 17.8262 6.14844 15.998 6.14844C15.1309 6.14844 14.4336 6.41797 13.9062 6.95703C13.3906 7.48438 13.0234 8.0625 13 9H8C8.02344 6.76172 9 5 10 4C11 3 13 1.5 16 1.5C19 1.5 21 3 22 4C23 5 24 7 24 8.5C24 10 23.5351 11 23.1699 11.7207C22.7246 12.5996 21.9453 13.5781 20.832 14.6562L19.4082 16.0098C18.5176 16.8652 18.0887 17.7101 18 18.5C17.9093 19.308 17.9652 19.7896 17.99 20.9997C18.0013 21.5518 17.5526 22 17.0003 22C16.0866 22 14.8536 22 13.9991 22Z" fill="#686768"/>
<rect x="13" y="25" width="5" height="5" rx="1" fill="#686768"/>
</svg>
