<svg width="32" height="32" viewBox="0 0 32 32" fill="none" xmlns="http://www.w3.org/2000/svg">
<path fill-rule="evenodd" clip-rule="evenodd" d="M28 3C29.1046 3 30 3.89543 30 5V23C30 24.1046 29.1046 25 28 25H18L10 31V25H4C2.89543 25 2 24.1046 2 23V5C2 3.89543 2.89543 3 4 3H28ZM23 8V6H21V8H18V10H22.956C22.905 10.609 22.809 11.213 22.665 11.808C22.453 12.685 22.138 13.535 21.735 14.341C21.609 14.191 21.487 14.038 21.368 13.884C20.829 13.183 20.355 12.434 19.945 11.651C19.927 11.615 19.908 11.579 19.889 11.543L18.111 12.457L18.17 12.572L18.233 12.692C18.893 13.926 19.692 15.096 20.641 16.128C20.443 16.398 20.234 16.66 20.015 16.913C19.594 17.4 19.136 17.854 18.646 18.271C18.433 18.452 18.212 18.624 17.988 18.792C17.855 18.888 17.855 18.888 17.721 18.982C17.585 19.075 17.585 19.075 17.448 19.166L18.552 20.834C19.258 20.366 19.922 19.843 20.536 19.26C21.107 18.718 21.633 18.13 22.109 17.504C22.61 17.901 23.145 18.254 23.716 18.542C24.025 18.697 24.343 18.829 24.669 18.944L25.331 17.056C25.121 16.983 24.916 16.901 24.716 16.805C24.175 16.545 23.674 16.206 23.211 15.823C23.796 14.781 24.25 13.666 24.552 12.507C24.766 11.684 24.9 10.846 24.961 10H26V8H23ZM10 9H8.681L4.395 19H6.571L7 18L7.429 17H12.571L13.429 19H15.605L11.319 9H10ZM8.286 15H11.714L10 11L8.286 15Z" fill="#686768"/>
</svg>
