<?xml version="1.0" encoding="UTF-8" standalone="no"?>
<svg
   xmlns:dc="http://purl.org/dc/elements/1.1/"
   xmlns:cc="http://creativecommons.org/ns#"
   xmlns:rdf="http://www.w3.org/1999/02/22-rdf-syntax-ns#"
   xmlns:svg="http://www.w3.org/2000/svg"
   xmlns="http://www.w3.org/2000/svg"
   xmlns:sodipodi="http://sodipodi.sourceforge.net/DTD/sodipodi-0.dtd"
   xmlns:inkscape="http://www.inkscape.org/namespaces/inkscape"
   version="1.1"
   viewBox="-10 0 32 32"
   id="svg869"
   sodipodi:docname="uniE905_icomoon.svg"
   width="32"
   height="32"
   inkscape:version="1.0.1 (3bc2e813f5, 2020-09-07)">
  <metadata
     id="metadata875">
    <rdf:RDF>
      <cc:Work
         rdf:about="">
        <dc:format>image/svg+xml</dc:format>
        <dc:type
           rdf:resource="http://purl.org/dc/dcmitype/StillImage" />
        <dc:title></dc:title>
      </cc:Work>
    </rdf:RDF>
  </metadata>
  <defs
     id="defs873" />
  <sodipodi:namedview
     pagecolor="#ffffff"
     bordercolor="#666666"
     borderopacity="1"
     objecttolerance="10"
     gridtolerance="10"
     guidetolerance="10"
     inkscape:pageopacity="0"
     inkscape:pageshadow="2"
     inkscape:window-width="3440"
     inkscape:window-height="1376"
     id="namedview871"
     showgrid="true"
     inkscape:zoom="45.254834"
     inkscape:cx="11.616586"
     inkscape:cy="18.537667"
     inkscape:window-x="0"
     inkscape:window-y="27"
     inkscape:window-maximized="1"
     inkscape:current-layer="svg869">
    <inkscape:grid
       type="xygrid"
       id="grid877"
       empspacing="2"
       empcolor="#3f3fff"
       empopacity="0.40784314" />
  </sodipodi:namedview>
  <path
     fill="currentColor"
     d="M 18.007634,4 V 24 H 6 L 0,30 -2,24 H -5.9913037 V 4 Z M 12.007899,8.5465838 V 6.7329192 H 10.297038 V 8.5465838 H 7.7190264 V 10.360248 H 11.961026 C 11.941636,10.931958 11.826967,11.480016 11.726658,12 11.548953,12.82679 11.233318,13.588186 10.92982,14.31056 10.55898,13.871465 10.237836,13.331505 9.9689227,12.906832 9.7205515,12.502288 9.528541,12.113677 9.3361382,11.751552 l -1.5233695,0.844721 c 0.3448551,0.642183 0.7310716,1.300902 1.0546437,1.838512 0.3437351,0.53002 0.7187184,1.026914 1.1249499,1.490683 -0.3326128,0.502954 -0.7387382,0.942343 -1.1132316,1.354037 -0.488803,0.542966 -1.0959358,0.999033 -1.628832,1.403726 l 0.9374589,1.515527 c 0.63922,-0.422112 1.1940838,-0.935706 1.7108616,-1.416149 0.5235028,-0.499356 0.9415358,-1.079879 1.3358778,-1.614907 0.218741,0.182195 0.445294,0.351967 0.679657,0.509317 0.479946,0.355464 1.013078,0.584423 1.523371,0.807454 L 14,16.770187 c -0.433353,-0.145711 -0.852424,-0.423233 -1.195266,-0.633541 -0.218741,-0.157351 -0.421858,-0.318842 -0.609349,-0.484473 0.526108,-0.98109 0.846106,-2.021073 1.148386,-3.00621 0.198907,-0.772287 0.274126,-1.550865 0.351549,-2.285716 h 0.890585 V 8.5465838 Z m -12.2807058,0.89441 -3.6560883,9.0931672 h 1.8514806 l 0.7499669,-1.813663 h 4.4060545 l 0.7265312,1.813663 H 5.6800548 L 2.0005302,9.4409938 Z M -0.60091728,14.906833 H 2.3286405 l -1.45306055,-3.62733 z"
     id="path867"
     style="stroke-width:0.0241303"
     sodipodi:nodetypes="cccccccccccccccccccccccccccccccccccccccccccccccccc" />
</svg>
