<svg width="32" height="32" viewBox="0 0 32 32" fill="none" xmlns="http://www.w3.org/2000/svg">
<path d="M2 15C2 14.4477 2.44772 14 3 14H16C16.5523 14 17 14.4477 17 15V17C17 17.5523 16.5523 18 16 18H3C2.44772 18 2 17.5523 2 17V15Z" fill="#686768"/>
<path d="M2 4C2 3.44772 2.44772 3 3 3H18C18.5523 3 19 3.44772 19 4V6C19 6.55228 18.5523 7 18 7H3C2.44772 7 2 6.55228 2 6V4Z" fill="#686768"/>
<path d="M2 26C2 25.4477 2.44772 25 3 25H10C10.5523 25 11 25.4477 11 26V28C11 28.5523 10.5523 29 10 29H3C2.44772 29 2 28.5523 2 28V26Z" fill="#686768"/>
<path fill-rule="evenodd" clip-rule="evenodd" d="M25 7C25 6.44772 25.4477 6 26 6C26.5523 6 27 6.44772 27 7V15C27 15.5523 26.5523 16 26 16C25.4477 16 25 15.5523 25 15V7Z" fill="#686768"/>
<path fill-rule="evenodd" clip-rule="evenodd" d="M22 12C21.4477 12 21 11.5523 21 11C21 10.4477 21.4477 10 22 10H30C30.5523 10 31 10.4477 31 11C31 11.5523 30.5523 12 30 12H22Z" fill="#686768"/>
</svg>
