<svg width="32" height="32" viewBox="0 0 32 32" fill="none" xmlns="http://www.w3.org/2000/svg">
<path d="M16 3C24 3 26 8.5 26 13V18L28.6367 20.2928C28.843 20.504 29 20.705 29 21L28.9582 24.0525C28.9582 24.6576 28.6064 25 28 25H4C3.39402 25 3 24.658 3 24.0525V21.0824C3 20.7874 3.11523 20.504 3.3215 20.2928L6 18V13C6 8.5 7.99999 3 16 3Z" fill="#686768"/>
<path d="M16.0209 31C13.0209 31 11.0266 28.4217 11.0209 26H21.0209C21.0152 28.4217 19.0209 31 16.0209 31Z" fill="#686768"/>
<circle cx="16" cy="4" r="3" fill="#686768"/>
</svg>
