<svg width="32" height="32" viewBox="0 0 32 32" fill="none" xmlns="http://www.w3.org/2000/svg">
<path fill-rule="evenodd" clip-rule="evenodd" d="M26 13C26 8.5 24 3 16 3C7.99999 3 6 8.5 6 13V18L3.3215 20.2928C3.11523 20.504 3 20.7874 3 21.0824V24.0525C3 24.658 3.39402 25 4 25H28C28.6064 25 28.9582 24.6576 28.9582 24.0525L29 21C29 20.705 28.843 20.504 28.6367 20.2928L26 18V13ZM11.0209 26C11.0266 28.4217 13.0209 31 16.0209 31C19.0209 31 21.0152 28.4217 21.0209 26H11.0209ZM24 13C24 9 23 5 16 5C9 5 8 9 8 13V18L5.3215 20.2928C5.11523 20.504 5 20.7874 5 21.0824V22.0525C5 22.658 5.39402 23 6 23H26C26.6064 23 26.9582 22.6576 26.9582 22.0525L27 21C27 20.705 26.843 20.504 26.6367 20.2928L24 18V13Z" fill="#686768"/>
<path d="M16 1C14.3431 1 13 2.34315 13 4H19C19 2.34315 17.6569 1 16 1Z" fill="#686768"/>
<path d="M5.29289 29.2929L2.70711 26.7071C2.31658 26.3166 2.31658 25.6834 2.70711 25.2929L25.2929 2.70711C25.6834 2.31658 26.3166 2.31658 26.7071 2.70711L29.2929 5.29289C29.6834 5.68342 29.6834 6.31658 29.2929 6.70711L6.70711 29.2929C6.31658 29.6834 5.68342 29.6834 5.29289 29.2929Z" fill="#686768"/>
</svg>
