<svg width="32" height="32" viewBox="0 0 32 32" fill="none" xmlns="http://www.w3.org/2000/svg">
<path fill-rule="evenodd" clip-rule="evenodd" d="M29 0.999985L29 2H29V8H24L22.25 8.00001C21.6977 8.00001 21.25 7.55229 21.25 7.00001C21.25 6.44772 21.6977 5.99999 22.25 5.99999H25.798C23.2729 3.52562 19.8146 2 16 2C8.26801 2 2 8.26801 2 16C2 23.732 8.26801 30 16 30C23.732 30 30 23.732 30 16H32C32 24.8366 24.8366 32 16 32C7.16344 32 0 24.8366 0 16C0 7.16344 7.16344 0 16 0C20.2608 0 24.1327 1.66551 27 4.38101L27 0.999986C27 0.447702 27.4477 -1.23386e-05 28 -1.39401e-05C28.5523 -1.55417e-05 29 0.4477 29 0.999985Z" fill="#686768"/>
</svg>
