<svg width="32" height="32" viewBox="0 0 32 32" fill="none" xmlns="http://www.w3.org/2000/svg">
<path fill-rule="evenodd" clip-rule="evenodd" d="M28 2C29.1046 2 30 2.89543 30 4V29C30 30.1046 29.1046 31 28 31H4C2.89543 31 2 30.1046 2 29V4C2 2.89543 2.89543 2 4 2H9.98851L9.99429 0.994256C9.99745 0.444222 10.4442 0 10.9943 0H12H20H21C21.5523 0 22 0.447715 22 1V2H28ZM28 29H4V4H9.98851L9.99429 5.00574C9.99745 5.55578 10.4442 6 10.9943 6H21C21.5523 6 22 5.55228 22 5V4H28V29ZM20 2H12V4H20V2Z" fill="#686768"/>
<rect x="7" y="25" width="18" height="1" rx="0.5" fill="#686768"/>
<path d="M7 15C7 14.4477 7.44772 14 8 14H9C9.55228 14 10 14.4477 10 15V22C10 22.5523 9.55228 23 9 23H8C7.44772 23 7 22.5523 7 22V15Z" fill="#686768"/>
<path d="M12 18C12 17.4477 12.4477 17 13 17H14C14.5523 17 15 17.4477 15 18V22C15 22.5523 14.5523 23 14 23H13C12.4477 23 12 22.5523 12 22V18Z" fill="#686768"/>
<path d="M17 16C17 15.4477 17.4477 15 18 15H19C19.5523 15 20 15.4477 20 16V22C20 22.5523 19.5523 23 19 23H18C17.4477 23 17 22.5523 17 22V16Z" fill="#686768"/>
<path d="M22 11C22 10.4477 22.4477 10 23 10H24C24.5523 10 25 10.4477 25 11V22C25 22.5523 24.5523 23 24 23H23C22.4477 23 22 22.5523 22 22V11Z" fill="#686768"/>
</svg>
