<svg width="32" height="32" viewBox="0 0 32 32" fill="none" xmlns="http://www.w3.org/2000/svg">
<path fill-rule="evenodd" clip-rule="evenodd" d="M2 4C2 2.89543 2.89543 2 4 2H28C29.1046 2 30 2.89543 30 4V28C30 29.1046 29.1046 30 28 30H4C2.89543 30 2 29.1046 2 28V4ZM4 4.5C4 4.22386 4.22386 4 4.5 4H8V9H4V4.5ZM8 11H4V16H8V11ZM4 17H8V22H4V17ZM8 23H4V27.5C4 27.7761 4.22386 28 4.5 28H8V23ZM9 4H18V9H9V4ZM18 11H9V16H18V11ZM9 17H18V22H9V17ZM18 23H9V28H18V23ZM19 4H27.5C27.7761 4 28 4.22386 28 4.5V9H19V4ZM28 11H19V16H28V11ZM19 17H28V22H19V17ZM28 23H19V28H27.5C27.7761 28 28 27.7761 28 27.5V23Z" fill="#686768"/>
</svg>
