<svg width="32" height="32" viewBox="0 0 32 32" fill="none" xmlns="http://www.w3.org/2000/svg">
<path fill-rule="evenodd" clip-rule="evenodd" d="M2.87509 2C2.35019 2 2 2.37314 2 2.93344V29.0666C2 29.6269 2.35019 30 2.87509 30H29.1249C29.6498 30 30 29.6269 30 29.0666V2.93344C30 2.37314 29.6498 2 29.1249 2H2.87509ZM3.70557 3.80293H7.48841V7.83799H3.70557V3.80293ZM8.43423 3.80293H17.8916V7.83799H8.43423V3.80293ZM18.8371 3.80293H28.2944V7.83799H18.8371V3.80293ZM3.70557 8.84687H7.48841V12.8819H3.70557V8.84687ZM8.43423 8.84687H17.8916V12.8819H8.43423V8.84687ZM18.8371 8.84687H28.2944V12.8819H18.8371V8.84687ZM3.70557 13.8904H7.48841V17.9259H3.70557V13.8904ZM8.43423 13.8904H17.8916V17.9259H8.43423V13.8904ZM18.8371 13.8904H28.2944V17.9259H18.8371V13.8904ZM3.70557 18.9343H7.48841V22.9694H3.70557V18.9343ZM8.43423 18.9343H17.8916V22.9694H8.43423V18.9343ZM18.8371 18.9343H28.2944V22.9694H18.8371V18.9343ZM3.70557 23.9783H7.48841V28.0133H3.70557V23.9783ZM8.43423 23.9783H17.8916V28.0133H8.43423V23.9783ZM18.8371 23.9783H28.2944V28.0133H18.8371V23.9783Z" fill="#686768"/>
</svg>
