<svg width="32" height="32" viewBox="0 0 32 32" fill="none" xmlns="http://www.w3.org/2000/svg">
<path fill-rule="evenodd" clip-rule="evenodd" d="M2.03515 17C2.5479 24.2653 8.60424 30 16 30C23.732 30 30 23.732 30 16C30 8.26802 23.732 2 16 2C12.1854 2 8.7271 3.52563 6.20202 6L9.99999 6C10.5523 6 11 6.44772 11 7C11 7.55229 10.5523 8 9.99999 8L5.99999 8H2.99999V5L2.99999 0.999999C2.99999 0.447715 3.44771 0 3.99999 0C4.55228 0 4.99999 0.447717 4.99999 1L4.99999 4.381C7.86732 1.6655 11.7392 1.99676e-06 16 1.99676e-06C24.8365 1.99676e-06 32 7.16345 32 16C32 24.8366 24.8365 32 16 32C7.49928 32 0.546927 25.3707 0.0307312 17H2.03515Z" fill="#686768"/>
</svg>
