<svg width="32" height="32" viewBox="0 0 32 32" fill="none" xmlns="http://www.w3.org/2000/svg">
<path d="M14 7.99998C14 7.55391 13.4601 7.33111 13.1455 7.64735L9.07904 11.6395C8.69062 12.03 8.05961 12.0328 7.66764 11.646L6.71638 10.7071C6.3215 10.3173 6.31942 9.68058 6.71175 9.28825L13.8787 2.12132C15.0503 0.949745 16.9497 0.949747 18.1213 2.12132L25.2883 9.28824C25.6806 9.68057 25.6785 10.3173 25.2836 10.7071L24.3324 11.646C23.9404 12.0328 23.3094 12.03 22.921 11.6395L18.8545 7.64735C18.5399 7.33111 18 7.55391 18 7.99998L18 24H14L14 7.99998Z" fill="#686768"/>
<path d="M3.07692 29H28.9231V22H32V31C32 31.5523 31.5351 32 30.9615 32H1.03846C0.464935 32 0 31.5523 0 31V22H3.07692V29Z" fill="#686768"/>
</svg>
