<?xml version="1.0" encoding="UTF-8"?>
<svg width="15px" height="15px" viewBox="0 0 15 15" version="1.1" xmlns="http://www.w3.org/2000/svg" xmlns:xlink="http://www.w3.org/1999/xlink">
    <!-- Generator: Sketch 54.1 (76490) - https://sketchapp.com -->
    <title>notification copy</title>
    <desc>Created with Sketch.</desc>
    <g id="Icon-and-colors" stroke="none" stroke-width="1" fill="none" fill-rule="evenodd">
        <g id="Artboard" transform="translate(-766.000000, -106.000000)" fill="#FFFFFF">
            <g id="Icon-/-notification-/-white" transform="translate(766.000000, 106.000000)">
                <path d="M13.0714743,5.9040115 C13.0714743,3.5254156 11.5263946,0.25 7.49999994,0.25 C3.47360527,0.25 1.92852569,3.52561908 1.92852569,5.90421497 L1.92852569,8.28952547 L0.67339543,9.57649031 C0.562145248,9.69043503 0.5,9.84324303 0.5,10.0023587 L0.5,11.8193699 C0.5,12.1459436 0.76508514,12.4104581 1.09190802,12.4104581 L5.04088197,12.4104581 C5.04393829,13.7165494 6.19168971,14.8610834 7.5,14.8610834 C8.80831029,14.8610834 9.95606171,13.7165494 9.95911803,12.4104581 L13.908092,12.4104581 C14.2351186,12.4104581 14.5,12.1457401 14.5,11.8193699 L14.5,10.0023587 C14.5,9.84324303 14.4378548,9.69043503 14.3266046,9.57649031 L13.0714743,8.289322 L13.0714743,5.9040115 Z M7.5,13.6787035 C6.80050939,13.6787035 6.22816184,13.0202658 6.22490176,12.4102546 L8.77530199,12.4102546 C8.77183816,13.0202658 8.19949061,13.6787035 7.5,13.6787035 L7.5,13.6787035 Z M1.68401979,11.2280782 L1.68401979,10.234521 L3.11254548,8.76992452 L3.11254548,5.9040115 C3.11254548,3.7490321 4.56004726,1.38238472 7.53326348,1.38238472 C10.5064797,1.38238472 11.8876583,3.7490321 11.8876583,5.9040115 L11.8876583,8.76992452 L13.316184,10.234521 L13.316184,11.2280782 L1.68401979,11.2280782 Z" id="Alert-Icon"></path>
            </g>
        </g>
    </g>
</svg>